<mxfile host="app.diagrams.net" agent="Mozilla/5.0 (Windows NT 10.0; Win64; x64) AppleWebKit/537.36 (KHTML, like Gecko) Chrome/133.0.0.0 Safari/537.36" version="26.1.0">
  <diagram name="Page-1" id="J9TuIYMLlOkBej3a96Oo">
    <mxGraphModel dx="1050" dy="557" grid="1" gridSize="10" guides="1" tooltips="1" connect="1" arrows="1" fold="1" page="1" pageScale="1" pageWidth="1169" pageHeight="827" math="0" shadow="0">
      <root>
        <mxCell id="0" />
        <mxCell id="1" parent="0" />
        <mxCell id="j9JfCKXNSG1rssrYbunD-28" value="" style="group" vertex="1" connectable="0" parent="1">
          <mxGeometry x="80" y="240" width="840" height="320" as="geometry" />
        </mxCell>
        <mxCell id="j9JfCKXNSG1rssrYbunD-21" value="" style="rounded=1;whiteSpace=wrap;html=1;fillColor=#f5f5f5;fontColor=#333333;strokeColor=#666666;arcSize=3;" vertex="1" parent="j9JfCKXNSG1rssrYbunD-28">
          <mxGeometry x="200" width="400" height="320" as="geometry" />
        </mxCell>
        <mxCell id="j9JfCKXNSG1rssrYbunD-1" value="" style="shape=image;imageAspect=0;aspect=fixed;verticalLabelPosition=bottom;verticalAlign=top;image=data:image/png,iVBORw0KGgoAAAANSUhEUgAAAGQAAABkCAYAAABw4pVUAAAACXBIWXMAAAsTAAALEwEAmpwYAAAD2ElEQVR4nO1cTU8TQRjm7M2b8ehvgCKmdJfwJe4WGzAQpKULrJIoQQx0V9QAJmCCicYEjSltF+PF6MWrF+5OSPwD/ghOxhCxY949kKZ2d6a17WzgeZI3aaYzb+Z9np2dr7ft6AAAAAAAAAAAAAAAAAAAAGgm5oq5y5lSTsuUVgdgq03kIKcRt9JC3M1vXMgWncJMwSnPFB0Oc5rPQcEpWwV3j7gWCkJi2Ptrxy8Odvm7byWeZx6MNY8D4nTnYJfPv187zhadvPA1ReqRGBDCaykHJApxnd1fvRQoyPRerpeGFEaG1/IHkjgmrjMlNx78uiq4OlXC6PDawgFxTZxDEBaNeRGCMPUiQBCmnngIwtSTDUGYeoIhCFNPKgRh6omMnCDPv7ziScviZlZso7Ozob5W3m7ypIQfM2tx68ly3UFTGxnf1AfqS5gvikXKl2X5HLVNkGcfd3hMT3J9bC7UEsm0Xy/M18KWw3uGxoW+4iOTfrD1CkJtqK3IP/WB+hLmi2KhmES+qB5x1HZBDNsNtaHpRSlBEuaU0Jc+NtewINRW5J/6ICMIxSTyBUEYBMEIsTFCOF5ZmEM45hAbkzpWWTZWWVj2MuxDOPYh2Bhy7NQZduo4OrFxdMJxloXDRY7DRRunvTh+Zzh+x31IEHBB5eCCCjeGLq5wDVzh4k49jyQHD0kOyDpxkXWSRxoQ8rIM5GW5SJRD5qKHzEUDqaT/d3RC+bBhFh+ZkMrtvdqfEvrqGRr3M9Trze2lNtRW5J/6IJPbSzGJfLU9t/fl1zd+52VNJK6snxXBzwVqGbWR9S8isZ6YiaO2CQLzmsIBBGHRepggCFMvAgRh6omHIEw92RCEqScYgjD1pEIQpp5ICMLOqSCppwsTxsN5nl5fgq23ngPimjgPFGRw9va8f15zY/IPbLLlHBDXxHmgIN2aocv8IQDMbQoHxDVxDkHsaDxUEMRWL8KZF2Q484D33bJ9G84snQ9BZpYf+RaFMqPCEinrJKaZ5VjfzR++aWaZyoLqRy2OhgQhR0eH2/zocOvUqaoyo8IGpu5RQL+7NfP0j4i7+kYTVDY4db+mGFGLoyFBchuP+c/v277RZ5VlRoX1mumTmG5+qo4hppuf6bvq+lGM40wJcu36xK8uLblZHQOV0XcQBIJwjBANIwSvrA3MIRxzCCZ1jlUWVln/AsteF/sQ7EMM8caw0u7Y06cbNPqssixWZUHL3lp1oxpH6E49HjcudmqjA5WWzqZTH14vOmT0WWVZZ7X1G1eqY6CyWnWjGgdxHigIAAAAAAAAAAAAAAAAAABAhyT+AjCdETM5wqZKAAAAAElFTkSuQmCC;base64,iVBORw0KGgoAAAANSUhEUgAAAGQAAABkCAYAAABw4pVUAAAACXBIWXMAAAsTAAALEwEAmpwYAAAU1klEQVR4nO2deVRTWZ7HU93VXWd6emZO/9Ezc6bmzJwzM2d6prqnZqoIolVWWSVJZM0LIIv7Amq5CyRA3svCJqDITt5L2DeRHQQSQFQ0JKAoluCGS1lV7mVbUpbKTn5z7kUoRJBFyIvV/s75nhOS95KX3yf33t/9/e59cDhv7I29MQszqfv//V5KWNuShJUPSVgFYgm564NEHzpJnW3+ge3r+4swyvWDf5UKuaEygnuJJLgmkuAOKlxtukOW2nSHeizoUrjO6yIJ7gB6jSKsOoIIrlhpN+9v2b7un53JhNw/UEKrElLINQW72XTHr/0c0rbYwf5dzpDvKxwjZ0jfYgfoGIWLdQ9JcB9LCatNHA7nLba/x2tvSvf3fi0luOFSwmowzHNBT+rmJeMAmFj7fZ0hydsWZCLrPpLg1ijd3/st29/ptbUAl3n/TBHcNko0r1e9UTAtEPljlLXNEZRuNj2UyLr1DZQZmNT5g/cpgvsgzOOj3twdjq8EI/+ZcnY4gcLVplcq4pY9G/TfdGFTMZmz9R9JIbczavnCvvHHiJkrY6s9PAsGgCSsBkgR97qUsNobJLSymckP52dvSpf3/54irG9HLkMwZg9E/ihlb3eCzG32kLrZDhLXL4Zwz4+6UbAgI7h1qGWy7QOLMaWS8wtSaGUMcZ/fmzfLLSN/EmVudYDIZR/3SgluP5rLFLm7/1IVZGtNk7Y71BQvO0UhaGFk/D8zFO8JTfIGaZLXr5bxH6plghYVyQtjAgX/y/m5GUlwd1Ei677s7bMzZuTPQPRmHuzb8qmJIXk9NMmD3N1O3TXqFaamvA3QXr4dLlX7wrVaMXRo/eBMyVYw5HjDgT2ibnSsmuJfVUkXizg/B5MIP/gnUsTtSfa2ZQVEttgRUik7oCkeHEz0gPaybfDwRDA8PbN7SrpvkMPxzHWDDMUb0MgEjQy5+F3O62wyETctxG1+L5rUmRNEnp8zpJF26NcNxzLXwXcG+ZQhjCd0fkmMWy/qzpIp3kLO6zrfQBM/zaZXm2tMV1liewyiKtHrlUGM1uPWcDiasQa1lh5auvgTzutmJMENUy616dk/xwCS1ttCyqahmX5GoANoZAJoK9s+ayDGqiFz7SBD8p7Sss//wHmN7C1KxL2PnDWXMHJ3OILc1QZIwhqSfXmQFmwP3xwOnDMYWK3hUJnk2aeW8S8nbLd7h/M6GOn84Xw0SZvryGrfyk8h1mcx7p5SFXZw+xg5tzCeqfNECKQF2/XSpG0uTS62p4Mcf8exZEOJw1APNJjPHQxmAx8lF0Gf6Q0auQC+neuWMUYoVC6IFnVrZIJ+muINMBT/oMWOLaTI2hi3+rM5g5G6eQnIXeZBXdIqSFHYQWvxFrPCGK0nreHwVZ0EdKplfTTJMzGUIDVZuei3ljUzJ7jdr5rJnUiaTQI8blREeYGOXg6lcUtxv84WkNG6cSQIMkMdejVyQbNG6fQbjqWEu2j8yNzmMKsg9u8U4uIU5WIN9QmrcRfFUHy4Y6ZxY6r6s1EBOeHOPWqKf5BjCSYlPvwEZV5nK2+FkpGotYV6LoCI5R9DW8FQSKtVLQMdvYx1AOPp5pEgYFBuLIgnZJsHRyqy9kDFp1eBgGCicQK1iBD3+aBws4HyCE/obA7BX/hBkwK3jm/qA1h3/kTSZ68HtYx/A9iuzwQJuesULvO6pwMAhce0Dx9iVn8GEcsW4uiJEnEhzvtzOEqvg4fNz+efThVuhtzdzhYzdkyUB6MpnimZ4n/KKhCS4G5Rus3rmmphKWrFJ0AR1hDiMR/S/RygNm4VnC3cBt/pJ057VCR6wPGsdaw7fTJVJHr0q2W8NHaBCK1WK9wmbyEoA4xaQVagM1yu9Mfh41RzSikKO5wqN7eDf2gJhapkL6hLWQW3jkonPb6l8AtIkQtusQtExLWXiaxfOoYwG/kYxonMTdN2yp3jFKA6xYMmpVlhfN8cDMUxrpAX6QJV9CpgZHxoyFgLP54Km/Cc6/UBQJO2JlbnJaTQmovC3omiLBS+Bi+1wV3TTBzTofWDVMUSs44fKMTODneC4lgP6LqQAnA9F24a9kLObiGUxCyFzpNDwcZYPToVhn48JhX1+Ues1s8REDQ+jAcEhbDKpTa4+c/EOWeKt8D+SKFZQKBu9ET+RhQtweHMjdB/JRPDGNbT8ylQEO0G5fEe8Pj0+D+QVIWgj6b47hw2DS31QVHTeED2rV4EmRKnGTup5cAmKNrnOucwUNa4OMYNZ5AvHwp5DsRoPW5XQ1a4MxjzfMZ9n6xQhx6VdLE3q0BkhHVdzKpF4wLZs+ITqIj0nLGjmvdvgNLYpXMG4nYDCTXqFcBQPKhL84HH59QTwhjW1fpQSJEvgXuNL0aG+yOF3clSW1/Wi1PhHgvGjbQily8EXczKGTustXgLFEa7zCoE1H1erNoFFfEeQFN8qEhcDneaYyYFMaKvcqAkzgsaMta88N6F0S7dKpJHsQvE2YpAq9X3T9BCDu7xmrHzzlfsGJoUvuSYx6fD4OZRKV5Jghx9oXIXXNb64b+Rrmj98IKHxlxvKItbiku+qJ5yJHMT3G+JnzqIUWqvIiE92A6etI5pIVHEU4bkbWMXiOP8d3GCceuLCcbolZ9CYfDMu5xrtWJQywTY6eMVjo6kr4E0pR0OjZHSgx0gPdgeCzkePZeiWALZ4c5QkbgCmgt3wS1jNAxczZ4RiJGx5Jwav/ethufnJxkhDt20dLEXq0AwFBH3EZpvjAUSu+YzSNlp/0rzAZrkvZDlRfMSFJoWxXjAtcNhOAJCXcmrOHm6Qj+Ucwd3PtcVomtlpPyP2ebBoUTWHWhJ51ggtA8PIlYsfKU+PzvcCS9oG/1ceYI7HExaCQNXs8wKYbRSFfYmNDsfvqbrhyTASHmDFlEboUTcw7GrX4y0MocWRsOfGxUzBqIdk3r/rlGO0t3w4HQiazCQMkIcBtFqyOHrMuT6gEbB7+BYglEiq4Pjhb6ovoHS6S05m2cM5GzpVsgIsR+ZrZ+v3IkHZTZhDAMZPR85sFfUqyJt93EswdCmHFTPGC/0jV71KWQFvDxSepkeNClxeDq85Ad1ExkhjhYF5NlYZ7KI8UO5aNHbJMF9OlFdHdXFUSn2TgM1YygFe0VwOG01foycYBlAHEdm7CijoJbxO5VK5S/Y5sGhCKvPUBl3ol1SaH4S5rkADs5wxn4ifyOeSaPw9dGp0CEgoRYAJPQZkNZwPFdSUXwTTQmC2ObBIQkrOtzzo5em4FU+PDyW3D5KTTv9zlA8uFofAmlKezhXvt3igFyr8cfp+fM6Oe62koME/8EajEB3q7+jCKsu1Ybxk4s/yRl2e30Mmp1odhs+rdRJbgSBHYAmdflRIosDUhbnjrPD6LmsMGEPLeVtZg0I6cyVyl3m9U5lH2HGVgeQo2U9iUNjwVR0Mn8jlMZ54S+LahOo20K5LUsBglIxqHV0fqnCzxXt8+iipTx2uq0gx//5HUlYP0bd0VQXONAbeLim3pwxtephW9l2yIkQjjhBn7sNz4YtBQi6FpQTG34uM9Sphw6yXcMKEEporUEbdKa7BUHlg28CAHUJqybtvu4+K+H+2KYeySGhLQiWAgRdy6M2Bv/96CyNrzUpyPY/2YmshFzT8F6N6YrZKMAzeHrHkkm3neVHEXCqRDziiLpUb8jf48o6EHQNtaneI3+3FPuhheBXzA5D6WT1G1JkfWPPyk8GZrr5Hw3waCmQWioAjWxoK9p4reVJazjup1GE1XMpbeiLl/hDRdJK1oGga0DXgh53X0xDq2PQloWNZgdCCa0ySRF3MGva+0GcIdmbBzIXa1PU6oVwvnwHfFUrxlVBlEIviXWDqzX+8OhkCNYVnR/a64dfywx1hPo0H8sE8lUO1KSs79dQS64olYveNjsQqZDrJSO4t0iC279n+cJ+VE9Hm/jRTWLGA5G9wxES1y0Ghdu8XpLg9kT6LLxRx6yA63XiEV04uAPK49zxAoPh2oZaxofyeHe4ULkD2sq24rKpIX87nCy2HCDoWvR5WwcZmaCLlvL/xGHLNm60+hVa10uKuOWk0LoTjQdSgjsod5nXFew2/2mo+4IuJLkrvrUSyETce2hjD1qlopYJmg9pVj4HZFhXdb7wZekWOFuyFT8e/drpwi8gFbcWJyiJW8Y6EHQN6SEOA2qK/8jidusGuXL/jRJyeegOCujmAejOcFKhla/M1Xr5ppXefCepzlZI6tY7k1W74ijXbycCMpkuVe2ErFBHyNk9NFlkUzm7hYMMZVubKl1s2Xe+cwqs/BchpfUTyXS1BKV7LCS1ICS1g27Bh3o8wxue7pWvG6yhl88IyPU6MZTGuKHiEOtAUhR2fcmkLcGxRFukbHhbKK3yIqiaFiFZbVoaXN/zRfIZkyTnKoSV34O9uk6IrvkBKy4tH1KUDnBF+3yXNBVd1vqCRmGPxxi0RootGGheNFSuXfwex5IMpZudg6rWEFTNXYLS9m9IPD2oLLo14vzxtE/3AOjwFVCe4DE9ILViKIvzADpsFTDBLtBRF8wakEu1SlBTgk7W94OMNmep7n0hpWsXUbr+rUwbRFY/eCmI0YopaQNGZg+16pXY0VOBUcOswOfsK22H5Dg5HEobSuixoboUnwFGJijiWIbBW05B1WIhqe1fG93Ut7vi/pRBjFbsAQMwcgcoiXWHi5U7J4Rx8eAOKIlxB1ruCLEFxqFz8+qBkS0ZWm1iZhhPzmmebWGzdWKbBMduu+4dIanLF1K6AXHWlRmBeK6llJ0HVdQX2LnFse5wLHMtLkidyN8IxzLW4hXo6DU6ajPElF4YdW4nMGHLR2bK5tTJIpwi+Yb16qC7b9FfEZT2mGvwoV5l8cvHiempE2IP6CEpIQzU4auBUThhocfouZgDjfiYsefFZxSCRuEAP7YPJffMNZhrZEv6k6W8DezCUBb9WiTTNbgF1/eGlt+bRRivBpLeswUq6XVmA1JFr+nXyAStrLcOIaVLdZHX9oWW3bUAED/81OWVngNGZgdnygPmHMbpMomJpvh9Khnvv1mF4Syt9kYTO3nRTdYBRI+juJxqvEzoct3E+zpeVSjERrtsGSnPg1UYjmTVuwSpe7Iz9SLrjo9+iRKjJXgve1uldNZhnK0MwgstaClfy2HbhJS2ckXk8d7xBlVLUrw6BfKiloJGvgSOZH0BvR3prwyipyMdl2fRLuC8SNc+ldQ2mFUYTkE6ayGpNSkttKuKHgOkJGE1fHcyDvKiXHBG+IJODqZr018Rj85B56IaDNqFi/aQlMYv62YdCEHpqtdEG/vYdnb0NIAgh6K9H2fKA3GVMXu3EC8fengmeVIQ6JjmQl98DjoXvcfwPhLWgaCxQyjVDsoKb8DrBgSGu5xLaXinU3GsJx700SRy8KsXN+qg59Br6Bh07LlqaqRcPCzWgQjJasnS4MM9e3U/vLZAYJS+bohAxSS8MKG1LAC+ORaBhR7vj3LFr319LHLC81kHIqJ0hi2qs6w7OnqWgAwvREAtAbUCVHlENRX0GK1oGdsiLAoIzldR2j7p/uusOzp6Au2pfgDhJd+CYv9lkGW3Q9S+KCiJXzVn85Di+FWmyKjg7yVqY4WYNkT4JxuXShP0vzdfWp3UQmTV1NPp5lBk5X0IPnAFyPTTIKENEKhphsiic5Bcew3SikohReEA3ZdSZx1GF17i44A/A31WRGFbT4C6qV+sajQFaoxX/FUGhVhj+Pc5A0JQWk+RrMYioqu9NT/A7rKbQGaeBTFtAGVuK6QduwGVHY/h+F0T6O8B1vE7A5CxdyUYC3bOOhBj/k7I2LMKf8ZPn2eCykuP8bUos0/3IDgSpskoTtbbcQBmt2gllGq3ugUf6qUOfANsSprTAYEpLSBhjBBffQWqOp6MOGQ8aU+cwDtjZ7r3fDzdOxGH31N7ouWln13V8Rjiqi4PiBnDYKDaeF6iMnw+a0CcSa302cIEVuQi18Hm2GO4RSAQdV/3vtQZo1WQHwtZES5TukXGZELFr+wIVygsSJjy59d93QPx1ZcHxXSjSaI2loiTG/6R8zqbv8roKFEbO0PzzvSibmmqjhjpSm73QXbSdiiI8cKVvZnCQOcWxHhCTtIO/J7TvQ507SG5rb0StfGhP91oz3ntDOAtf7oxXKwymJj6r03HRo0P09Wxm12Qo/LFLeVec+y0YdxtjoHsCBfIpf3we834Ou6agKm/bhLThkF/lSF01seWuTKlsuFtMWNIl6ib+ovOfD9jB+hHO+NWDxQWJgMjE8DhzM3Q+eXkqRN0TH0mKifzoagoGY7fnnpX+TIVnnkAAZqm/gC1MW+j5vSvOJZs7kVFvwxQG8qCUpv70MA4Gw7Qj1LtmfOQnbAZr6E6EOMFJ4p84Up9CNzQ78FC98Y6UegLB/Z54WOyE7ZA7ZfnZ/06UBcWlNLcJ2GMJeg7cyzSAN6SqA1pQSlNfTMZL/TTUF3bJSgqS4Mc1S5IDXcDtdweCz3OpX2huCwd6tovz+k1VF1+AkGpTX0S2phrkd2XP90YKGGMAyien0tH6C1IBy/+iML4AX+60Z9jSSZR6Rf5M4bB/Se/Y91JejMrv+U+yjQMSGiDZfy7C0ma4W8kjPFeku7qINvO0bMk9N0ljPGOf3TdX7PNgyNhjIlk+sneo7d+SkX8panh1gDIM1t6xIyB3ZvV+NPGP6G4vLjtIetO0bOsoi+/B9RtB6ia2VtWhMK+iIKzvWw7Q28hiiho6w2gjQWswPDTGP8L5XgqLjxi3RF6C1H5+UcoZzfol6Q3/952f5UhLiS3tYdtJ+gtTKF5Z8w/lqCUQYDa2Jl38h7rDtBbmHKb70EAY3yIUkhmA4IynqhWcORGP+sO0FuYkE+Qb8Qqg8CcQGIiCtvfdFf3xoeyu6ANVR33mg1IoKapI11/k/Vfo95ClXb8JsoIXzALjO0JundQJFHa3sn6F9dbqEraOlG0NYB8Za7JIBy5+Wb80E8A5PCNPlyyDkhu/OOcAxHTBje0bIbtX6HewhWgbhoQM40ucw+EadwkzzrVxfYX1lu4ZJmnuvxog8+cA0G5/0BNU39EUXvXG7VP6APkI7HK4GcGIMbFYtoQ9UaGSX2AfDXnQN7YG+P8HOz/Ae4fniDQ6PK6AAAAAElFTkSuQmCC;base64,iVBORw0KGgoAAAANSUhEUgAAAGQAAABkCAYAAABw4pVUAAAACXBIWXMAAAsTAAALEwEAmpwYAAALsklEQVR4nO1df3AcVR3fCiIj1FF0HBCkAyg6yjiKig4//G1FOoMoU8bRccA22b2m1dZM09zuJb229kfuvcvtbpLSNpCUQrFpKM2ZJu9d7G+KRZ1CAa0jCDhWSgfa3nvXpuR313l3t3d7+fn2fuTucvuZuT8y897e7fvkve/v7xMEBw4clCCkGu2z+f4NDuKQ5MBdojvwnvm3gzyiTFEfkWRtSJRVwyEirzBmiXJgvSirl1bqTxsOIXnEw17vlZKstbkUfWhz+wGjteOIQ0i+ULEcXCsp2ktLvI2D2/YcNYKH/+EQki+4ZO02l6y/U7m2eXBH6FiUDIeQPEF0B+ZKit4r128b2rX/5QQZmRASwL3XAUTntrcbl+XmV89QiO6AWO5WR9Zt2nUpeOjvKWRkQghAZBnE1ACIvAMwDUB0/gu5eYMZgvnz2y8T5UCjKGsjDdtDY4jIlBCI6F5GiPkBiFyCiOzxofC3c/NGRYwKb9PVkqyhipqGwZaO5yYkIxNCfMEzswEmj0BED0BMRlLIwfQI7Ip8IzdvV2SQlPrrRY92YumaTQPb0V8nJSNbQt3fHbkVYtoMEelL2TGYtMGu8ByhVCEp9XdIHu1sVV3rYPve41OSkW0tC3T1XgsQ1SAmA5Ydcx5i6jIMY5ZQSiiv1h4UFbV/dUPb8O6Dr3KRkSu1tz5EPwMQfXbUMba/Dp29QSgFiIq6TJQDl0DLHy/xEjEddgjsjvwYYPp2khRyBmD6A2GmYr7Xe4Ukq08yN8iW9gO2iJguw7A+RK8BmOxI7BZEhgAmlcJMw0Jv/TUuRT+yZGXjgOkGKURCTPgRFVNlC2nweo0PCDMBoke/xaXob/1uXfNAW0/SDVLIhDD4UfhuiMl7yd1Ctxa9pc8CSi5Fo7Xq04PPHuAX3tkgBKDwl7wHjcsz+f3+0PnPQ0T/a9kpTxXtTjEDSus37xoZzw2SS0K87cYVEJGzENFTEJNVTDak+x7+0LlPQ0T+ZdHCVKG4YMwSFW21KKsjDU9N7AYJ5pAQgMhPR6mxEYDI75nFnj4pyZ0CEFkuFEtAyaU07Kyo0ad0gwRzSAhbeGbgQUxfGUXM2xDRn6dr4QNE3o2rxMMFrxJHA0qyfnzp6k39PG6Q4DQIdWZx+3H4fojp8VHEPJPOMeYPRe40tS9mpxSsqyUaUFL001W+loH2vS/lhIxgBloWE8QAUwkgci557NCTvm76NbvPAogushxdfy44zSsWUNIurmlsG+o4mB3hHcwyIVb/FUQEW3bLRYDpfLvPYdqW+Qw/Di8VCimgJMnqMHjcvhskmAdCzGMMIOpOuuHJiA+RBXaeoXaQj0JM/5cgFdFbhHwHlCRFbcrEDRLMEyEmAA7/hC2mJWC10Nb8EL035raPyqQOIZ8BJZfSgKNukM4Xpo2MYA4sdR8O3xN3uUc1J383ecDOfIhpu0VRSE/rWuCBc0S36lvkaXiducDZC9r9/GbVo0Zbz4vTSkYwR64TFsY1g1UA0d46fO6LvHNhD7nJMveY7ThKuTuwXJTVoeUbHutTt3UZzc8cMh7ffdjWZ3VTm1ENtk47GcEc+rIgpg+Zxw/E5J9NB9+9mnsuor6kgKc/4v5SSdaAy6MNbt65P6NFgS2dhhvOLEIYICYbLMfPFoET6/dGPs52VtwBeYBrUrlbvV9S1OGtweczXpRCJQSi8MOw59xtQppgjkiIyfOmkPeFyHd550JEmkwyfZjcPsVwY5bk0d+sa+4YycaiFCIh3oPGlaZwZovqR+T7aSdAmDIBkxO83uJAF705oUYj0jTpYFEJ3C7KgawJ4UIkpB5Fvsm0pFT3CNnBMhbtkgIwrU08o5uU25i3P767zunI+NDEhLgD4m9XP9qXrUUpREIY6vaGbwSIrEvulOiZforjCEmBt/PUh83YOnOvbDlmfJBnHsSRX1niJj+bcKAoqzVVdS0znhAT9XvOXg8Q2WnxWfWyBAYhTX+VH9Ff8hJpGposujjhwHJZXbXCVzqEmGDHDUBkMK41vV8XoncItnYJORM/+l7gnQcx6Y7vkNMT2iSlSgiDD0XuM0lhx5cdmWJVg3048jmeOQDTxcmdRb4y7qBSJoQhmtObdJfvFDjBMuQtMmGVjTRV05ZZPO6gUieEASCyKbFQIXqvwAkz4ggw+Ru/Jzkec5lIjjiECIKOzn4kkZWI6Iv23SJkxN95/hN2Sh8Apq86hEyCeIzdVIe/LnDAH6I/TB5bkXl2SGSya9xoorNDYoA9p68CmJL4AjcLHNjQRT9miXnU2iWeZauMGeAQkgRzGsYX902BEwDRt+LHVhvPeGbzJC3983eNGeAQkgRLAZr0v3cSlwhE5Kht7Wy8lCOHkCRYzYddmQAwfcJ0o/CM9/3pzKcm9YU5hIxOB4o7IUPk1wIHYlVW0WOO2EiAMO2eZWMGOISkIpnRTqoEDsQdllGtiWc8c0YmLXyqjBngEJKKhI+KMz/XIeRw9i11E8wuMI8s5lLhI8Q5soxcEeII9QLxZWWi9saaDcTyePnGO2pvTg1DiOh/HMPwcG5dJ7xpPtGq3ES+Fq3h+h7HdWI/LMvrXGQtnRIqLIrcxzkHOM5FDvd7rN4wql39RUjD/c4S4njmAEz3xUl8ZdwBjh0ipASo7KR7phWgSnqUWxxCxgFzkTgh3AIJ4UIcmZdukgPAtC6xq7ojt3J9X4guSZDfRb487qBSPbJAHtKAACZoyjQgJ1GOXrCT2MAAEa2wJEX8gmtOz+mruBLloqmkqza9P9N3COwKzxmdSsoSGybMj5psYeMaGWsWkP1U0lJNtkbkD6zq1g4Z0YVFdGVSIyNlNuYd4Eq2ZuUIrhrtjVIpRwCsqWU3+Z6QBliGorUcgbcGnVXhmuUIAJHGKSc4BTv2C3YgJt8ROAEw2ThlCuloiIrqc0ra+NRcOyVtsOfCJ5kWF5+3T7AD0a1WSrI66BR9jnXLp1v0afqu4okQcwW7EKu1G8vlQN0ij/6aJKt96ZRFr6hrLSgZkgnY0QQw6Y8v6AU7bchZKZtl7jEhHxCVwDxJ0QZZO42OQ8VNCOwKf8vaOIB1d7A1H9FdFtmRVl1jVlDu0e+UPFq4Jkut+4J5IIQ1OTPP/qiGxJkWNF6GIsR0t5BvlK3Qb3B5Gk5Urm3ut97xUeiEGIYxC2IqJ9TU6M7gS3iw5l5Zevzmv/lMSiN9j44W1zYOPNF5tOAJCeDe6yAmPZb/7IsgRB6cMe2Zkpd2qWskWRveuGNfQRLiZRmLsYhh2KIRnfT30K/afZa1bI3ZLQXbpbS8Wl3A+qjUNe/OWhfSYDZa/HWTBwCiL1vdKqyLDys1sPuOLJu9KFr8pQh7RSe5EvatNppgsh3BqphS/Fuxc/+htN0q8TTUaCunfGpVdlDmabjJ5dFfr1zX3JdtYd+aQZtYiMgaOwbf2KYE9GTyeUXWD54J+0UeDS1e2dSfTWHfmkYjZYCoN5NGylEyMHnNkrFSLxQjWBvAcjkAsinsW/PQajxlZyDyZNFf9iLJ2sJsCfvpbMYfteLZLktqZa0F1xI2k6b8UlTYbx/IRNhP53UVieSI2M7Qi35njMYid+BmSdH+Xbk2fWGfa0JYMlz0cjDLhS4FaPhlDwuqfLMlWUcVtekJ+9y2+IvMG33lUdGothlfIqmoPknWh+wK+1wQEusiR4Oj1OR9rM2TUEoQqwNl7H4RO8I++9fmET1FVrBrLTCVZpy84IVYrd0tKRqpCWzv5xH2WblYMqbKPmYGlswYOstS4S3imdEQPfotvMI+o+z3WI7vIUu9h2noPWcnq7EksKDKN9ulqHgqYZ+ty4lZLARg2slsjdy8UYkI+9YMr++Ou1L87NjKzVvMQJTJavlEwt654L7AhH3rNLpOHIx7IaX2RuXaLQlh7xBSEJa9Flpc29THhL1DSAHA6/VeLsrqRpeiDq7fvMs5sgoFojsgirI67MiQAkKZHLhHlNUz+f4dDiwoc/u5CjAdOHAgFBH+DyAya9U9j3bAAAAAAElFTkSuQmCC;base64,iVBORw0KGgoAAAANSUhEUgAAAGQAAABkCAYAAABw4pVUAAAACXBIWXMAAAsTAAALEwEAmpwYAAAN00lEQVR4nO1deUwb2R2e3odaqerdbSu12kpVq16qVGlVVVWlav/YXttWjdpVq7ZSpd0e2rZZPIcJYJJwzmVsTIy5PPNmbIwBczkEwp1jAyEhB5DdJGTJRUKyIdkQlsMGv+o3mO0EJSGbEMZ4/Ek/Yb03Nu+9b9773vu9iyBSSCGFTY5CsuLjPIV+yFqk3/Ck9OK7MZZEW3ha/pH9P95PGJ2PTQ1M4PdwlPQ7gUEdHImiHCnjIqsv6syqiRRn10aKs2qizqxgpNgWnHdmBhaW/9bMObMCs86s4KwjIzDnzAzMiFZ1niVlzFHyosAogxwl/yW4Jfg+o/O3qcClVf2Ao5QhnkLRmrK+KCpqw12Nw/hE/1XsyWvAY6PTuLa8D/c0jz5UWHfTiBbuyKjGAqMs2hn1DS7N+xOj87kpwFqkP3EWecFf0vn28OA1rVDX00aPvolrK/owR0qxogx1q9H5TWiwFvRXjpQW6yv2LbbXDr3zho8MXseHOs/h9QxrQocwT6GYM6sm0+h8JyRAtDlSXmivOz4HTQ4UIhRgT8soPn3iFn4SYS1qP2hLjCfVXxid/4QCiCxLSsP+ko434e2FAhsbmcYnB65qhfgkw6DG2NP9t20274eNLofEaqpoNKu17+9CrNcrzJFZHXNlB7cbXQ4JA9YiHawt67283gL+sNZacwQ7M6unjC6HhECR1f85ziIvHe45v/SkBHytsOpdXRjGOYWk8nXC7ODS0C85Up47O3L7iQr4WmEl2UFcujP0CmF2cKT8d0dG9eRGCPjJB4RVcWFcltdYSpgdrEXOdGXXTGyUgI/dJ8zn6sCegsZmwuzgSDnbnVN/3ihBH4ub39WJy/IawoTZsUxI6MJGCXjtfcIURzv25IZSNSROyKWNFPDT9whTnXtxWV6ogTA7gJDS3NBlo0XdV9yB3Tn19YTZAYTs2lE3mQii7s4JBQmzAwjx5DVcMVrUfa4O7NpRGyDMjjghV40WdVTUhl3ba32E2aERkt8wabSoK8527MoOKoTZEa8h140WdbV4L3bZAhJhdsQHhjeNFnW1eC94fKsIswMIKStoumG0qKvFe3FRZnU5YXbECZkyXtT3YPs2v4cwO4CQ8sKmm0aLOnK0YzHdv4swOzRCCppvGS3qinMvFq1KMWF2xHtZd4wWdcXZjnlacRBmh1ZD2OZpo0VdcbbD4jmBMDuAkAq2+Y7Roi7bWzFrkXjC7NAIKWyeMVzUi/YspQiJE1LJht82WtRRUdsiR8ocYXZo45D8xnmjRR0VtUVShLxTQ1rmjRZ1yb5nIUXICiFceMFoUffy4XnWIrGE2QGEVHHhiNGi7uV3zyYlIbAzacVYi/d7az3PkpLDk9e4+GrHGDbSyvIb53iLtKYvC/KkzyOR6IA1sism0MrBNZ+3SL3673CGmnRgrfRCnvTfIRIdkMj+rnM47DsMvqH+h3g+u4oPx4wW9SohPM2RUuFa6YU8Qd4gj5uPEEa5Axl4kPEUuuwVdhtKxtjoNK7kwos8hSbWSi/kadMSYk9XY/D3QSYJrdgrtBpOiCS0aguu10rvSp42JSFF23wx+PwgC5b1JgQhsrgHB9xdD0wrGORp0xIiMsqaQiowSkIQUlHY/FDCD3navITERd3OKOc66o/jvt2vYZ6Wb+ufd6T7ChODkKY3OVLK16eNp1G4QTqAj+6/qBU+HM+xKUW9NCe0UJxdExUZ9RCEiYxyviN0Ave2nMIChW7qn3dmBLhEIKS8oOk6a5Hz9GkTaNQUqtqPhw5cWq7NW8s/CXmCvEEeNwsh2SsGu2shTGDUS50NJ7URsUCrN/TPO7OCwuMQcvbIJB4pr8MjFfXa58dosiZXE8JTcqi+cj8eOnhZIyTXWvmZ5cMN/p9HYjNCZNTLnY3DmoeVp5Xr+jiXLVj0qIScPTKJD2/5Az7y/K81G9zywiOTUp7fdJW1yLn6tHEUCtZV7MPHXp3QCGEt3s8TyQCRUa92N4/grqYRLNBoUh+3a3ut81EJGSmv04iYFUXN4DPUlEck5MpqQlgL8oPj8fihK/FduhVPEckAgVauQ+3oahjGAqNO6ONKdtS5EoEQT17DxGpCeAqh2rJebRILCOFfqfoykQwA3ehpOYU7G05gkVEv6uPcO+vdj9NkDW55YV2aLE9ewyWOlHL0aeNIyRv09OATA5MaIfm09ytEMkBg0M3e8CkMPS3ocenjPLkNnscW9Yr6xxb10tzQxdWEsKRUEXB3x4YPLxPCWqSniWQAT6FbfeFTeG/9cSxY1XF9nCcvVJEI3V5PbujCPWpImX9XV2zk8LX4IBZ9jUgGiLRyDTQEeloCo17Rx5XlN1QlAiHunNB51iLv1KeNI5FPL+rCVumLRDJAYJQL2sAwfAq6vbf0ceX5jRVVCeDtLc2pH+dIacc9R+q6gSGRDBCtygC4GwZ6xjFLSjFha/AjK3FlOfXbS3NChhPiyKi+ylrQv+5KN6O81hYcwgfbz2KORBGbzfZeIhnAk5IUcHctwXlYyzOJVd9eiXNnB/9YlO7X1kiNGUgITyszHCX/Vn8qKk+jt/fvOY3BDydY1QtEsoC1eKnS3NAsZNyZUT3PpaG/rcRBu8xRMj6676JhZMD/Xt2t5dKUb0LYycPXcLC8NyYwKHmO3eDSpB9zpByD1R7+ks5FnkZ37XZ1ZQcnWtQBwwhp8B68wlmko/o0sRbpH66sGm29mHtn/SxHSjSRLLDZPB+FNvhA2xkMLhSBUaZttuAHV+KdmUHGsc0fe+3Y1IaTAf9TYJQ7rEV+WZ9mgUF9UDPizWwMDukkkgnQYwm4uxdfP3YT8zRaZC3y8ytxQI5jm38q5D244YTUVvTdYC3yOf0LIv5X+QJHyksDXW9o3gWeRlNJI+j6A5IFqxqBZivg7lkUGWW/Pp6j1Od4Uo7BnMlGkdHTMhqBc4J5Cj17d1rk3JIdtQtwyl0F2zzPU8hNJBvgGFaeRm/BeGTowGUM57ELlPcZ/TPOzECGQClLG0FKT8voEk/JMMmUpk8DzAoKtDIDjlCYKYRuOmuRvkMkI2ACqCQ7OH92+C2sujrhcPwh6F7qn7EziIZjwGFA9iQ0BX6zvnLfHNSM1WRoaSSVYld27cKZ4bewr2RvVKDRXTU5qZDHyJ/iaXQHfFrQnRQ0LZFeWv0cT6FnBUaZsKf7o81qPz7Sd/Hxxikj09pvNCv9S3BbAkei8dXNFKCQVL7Pk/ISdD4Gl7vCMbjqgkhmQPfRnq4uQO+lve445km0UEDJ31j9nOdFzwc4Uv6nyKjD2uieUSMl2cGZcrZlupJtuR23mSouPLtiXmF3RIqbV2hd9PLh6K4ddQsio0bhN0QGnYTROPz26v/nsgU/JjDKef+u7sWzw7dhjn2ep+TkP2EOCoOnlRHF0R6BNxc52qHpGofaQ9wHBZTyJZ6UfgVjA/A3sRa54GEMngVS4bvwGw866pyn0e7i7GAEeoGtgcEYTykzD/pOUkGg0XdhXNJeOxR7/fhNmByKCAw6CjfpbHRa4i6SMnu6PwJz5+Bv4yl5ES5+IcwEyDC017AVADbQlGyvjQiMeoJ/xffpjUqDzdbzfo5SVGjSDvee12YG7em+BZ6SzXnEBk/JBQKlRPu73tAuWinL1WrKBIjrRhxxLljVV4u2+SNH9l3SOhnFtpp5gVG69INE04En5WKBRlHo2Zw+cQtXu7thoBbhKGS9l/iuB+BuK55BU+UFTREgAtZdFWfVgIgfADcPYWZAG85aJBu4KloDgzEQergzyr7NFxFp9SzczLZ6rPI4d1vxtNLNk2ipSenHMNaAF0Fk1AhPoUb9PI3pwaWhP3AUeruKC8/DW3vq6A1cV7EPnHrQCzvDpXn//aCe2P3geNnxoUJS/r1IK7BTK6Y426Ig3lAbg+V9cPvbEvTGks5XtR5gLdLTPI0Oga60qAOaux4WGMDb7MyoXoBrLUSrOgRz33A/IZeGvsWloc9C0wa1CKZY4coJLs37c228wygdHIVAF6LBst4lcIWAfwoW7BVl+OcFSrm4KfYJJkAT9meeVq7Zrb6FRnQoBre1wWCtv3scN6sDmsNPTPdF7rvFgUaLpXkNc/WV+2PQJL1+8pbmMgEPgcsGWoHmYF1uqol6l00Na5Fe4hnlHDQ1QEJb8BiGHhGQAy4R6JlB8wNdViALVqlr5I0sx8PWZ1jpojjbQSNgYmwKmqeN7FonJQTK+wxrkYsEqzIe390bLc4KLrhzQrFKtgVX8bsx7FOELWmevIYY3ARaZPVp2wV4WrkBYw24OOZJ9dpMjUKy4qlCUv6ZSKOLxbZArJJtXtIbhPG0chk0JnWF0QZCjO9kWu3Zfdjt2CmkCEluiKkaklgQU4QkFsQUIYkFMUVIYkFMEZJYEFOEJBbEFCGJBTFFSGJBTBGy/oBlm3DeukArk7BuilvjJB6elKMCLc9oRqElu1XFjm3+uwzCNM8uJd/Rm0grUwLju3Ivg8NxYE86zK8QZoW2yIBRxp22GlgO9EgHVx5oO62dMPQoBpNUsLIdDC64r+RaokA4T0ovEGYET8thd05IW5i20VsQxu6z3LQ1MKjVQtN5icGFDk3Uoa7lc3MTxkbgmKbmCE9JJYSZwJPen3LU8hY3w0kYvdtgax3PqMcJMwEmmHgKLRld+GP3MFgALlqVM4SZwKVJz8HO29ryfQlnVVzYjISgr7IW2ZOoxpFyltFllEIKKRD3wP8A0EaFWfP/yCwAAAAASUVORK5CYII=;base64,iVBORw0KGgoAAAANSUhEUgAAAGQAAABkCAYAAABw4pVUAAAACXBIWXMAAAsTAAALEwEAmpwYAAATHUlEQVR4nO1dCVRb15l+adq002nStGemnbbT6TKnnU7PLKfT6Uxnembc9kxt7SwOJrbjOPUWJCEvIIHeAxuvsZ3EW2IjQMJoAS+KDRjeE1gSBsQTq4njfY8XvGCceElsNgn9c/6HwHiRECDxgPCd8x8O6Oq9+3/fu/f+/3+vBEFMYhKTGEcwvin+gSVB/D9GufB1c4JQaZSLU3tNpMa/5SUKf2eYJ3uR735OaAHyFKLFFqXYZkmU3DUpRGBSiHx7lsV0FmnjH5akvdrBpM/uOEDGt+Pf8DWTQtRjThQ3o0j6+VO/zbcP4x4ZGRlfMirFMQWJkjok+AP19M6GrYnwcX4G3C/bCj3VOQCs4ZnmqcqGa9a10LBV5bMmx3aaleKHJrlwTd6SqJf59mtcwpggluUnSq/kqySe+q2Jvk9LNwUkHwYxX40eLuavgH2aVzrMieIbJqXkv/j2b9wgTyH6m3yVrMKSKPYeyUyCrkO6YQsBT5i3Ohvqtii9JoXIa5SLXuPb1zEPs1L4J4tKcq981evdD+zvhU0IeMLO5FE+k1LkNclFsXz7PGZhUkjmmJUi7/GcFIAafcTEAL+d0Kf4zEpR+843xT/j2/cxB7NC+oY5Uey9tGtlxIWAPqvRg33VXFzsHXz7P6ZgTBAKcWRc3rVq9MRge+2ebSuGzmBWijvyEyU3zEoxjTmNQSn7PvFFhEUl+FuLSvL5qdzUURcD/NZauAGuf7AOzhrToXaTwrtnWXSnWSnqNitEOsx9iC8KgCCey1dJa51r53lGY82AIUxlLXvXQFHqjA6zUnTXpBRPI74IMCpEMwsWS7s7nDv4F4F92nw1BjiRo/GYFWIPTmPERIY1Lu6FfJXkFp9TFYRol3evxhDZgxUDYqICi3+7lsi6MFHjm3AIwU4aUjxmhegzTFqJiYh8leTUUZ2ad6IhVKvRQ2nazM9MCtFOYqIhL1HyCww1Py/fxj/RbOh2q3gjmBRiz0751B8SEwkmhXB5adrMDr4JhmFYYeqMeya5KI2YSMhfLHUf2ZHEO7kwDPsoM8lrVoqPEBMFlRlTvmxWiDuvfbCOV2K7DumgcdviIU+bbcVvg1Eh8loVU75BTASYlMKf4/rR7tjOmxi+Gj1UrJsPlkQJFCyWwalcMuRipqcqCwXxTZj9FKxb4T4HX5m5r0YP7k1y2L0sCu6e2Q6nmOVQsEQKh9bPD3nfZfeSqIemBOEsYiLAKBcv2qee3s6HGJ6qLKhcv4ATo+3oVoA7Fs7unt4ORcvjoSRtJoRSNdiveeW+US5cQkwEmOTCpGJt/KgLcofeBMXaGbCfjIM7p97vF6PPOlsMQK99DYq08dDuDD6dHiDj7xkVQoqYCDAqROl0+uxRC3m7KnsXb1wvDr23EDqvGZ4So8+6b+ZB6ZrZYMt4DbyuwIcnDpDxd/G4ETERYFIIk0uomREfIZ+Vb4Pm7Uthz7JoblRcZdcHFGKgPbycAx+kTofazYqA196neQUFWURMBJjlovmFqXFhF8TryoFbRRvgWLYa7KvfALNSBCUrZ8HZgyvB22YMSYw+a23exL3/VuHGZ96rQCVtN8vFccREQF6CcDoWFYdC9j1mC+BuIu61N723BOo2K4B9NwGqNizkyC8m48GiknA7f4XUDKg3LYFbRzYPSYQnjdUruUUeo7LHhK/O5sJePBUZKY7EVOkPpBSzXpRG/4iINPISBL9F4gar8n5S8i4Xnu5NiuGItmpigVk7Byq3LYSq7W9CrV4F9cbF8OEeDZwpWwHXGt6Gjqv6EYkw0PBa+Yul3IPwZHCA/SmQi78VCX5iMg5+R0bRnTKKARnJvENEGhaV4CV8wtCxZwmBEU7FunlgThRDxdaFcMm1Dh5eyQkb0TAEcxtUYF8997H+nTel43TWGkmOpCRdgoJISeZuXEZl5CsC+Srp7XOm9KfEuH3gbdiTFA1lG+bC/fOZvIgAA+x64ztgSRRDd2VWfx/d78o7jHJheST5kZH0H7gR0jtKFhKRRr5K6qzdrHxMjIeO7ZwYLp0cfJ/yKwT4zXPLyC3urYXr+/tZqJ1xD6vVkeZIRjGn/aPEHel7ESaFSFusjX9sYcdFunT1bPC2mXgXAgbYHk0UnDWm9R/extOOeUrx7yPNkYyktX2jREKW/CKiN8PCnEkh9mEpoy95w8StpW4D7wLAE7aPiuaiO+wnnqQ3KUXd1mVxfxFxQTTF35dSjNc/SlZG9GbZi379FbNS0nllz2rO0RbrWm6u7rk9tkYH3LFAYXoMfKRL5vpZu0XRbVKKXMQoQUbRVb2jhD4a0RuVG6b+wUpJPOw7cs5RPHliTY3mnXwYRJAPNLFQtE7YflA/8hwkLs76fLSW/nWwNlKqdGnftCXW0j8lIoHK7VO+4dCL7ldkvQp7l0VziRcedtifFjOmBblf1nvktHb3bJ/dILxbki35+nA5kKbRM6UkfUNG0h1/Sj74l4HaRaWW/bhPEClJq4hIoFwvjHfkCj1XG1PwPC1XnkCH96eN7RFyLEcD+6kYuHmcAmeuqMtuEAy7dCIhmej+sFZbKgvWVkbR5/3rSCERCdhzBKmuguiO1hNpULZxJlcGGQ+ClKTHgztvPmC/a3bFtqMfw+VAklHydRnJPPTnGdnB2kopOqc/SYyzPk+EG44cgarKEtWOjh0tUcKuJTI4vH3pmBakeuMibrq6yKo5Qaossnb0YyQ8SCnmAEc0RbcEaxdFMrMeTVu2fyHCDbteIHIYhB4c+jePUrAnKQoPNY9pQQpUMijKeIUTA/uN/Uc/RsKDlLTJ+4gOVkQUp5f+rF8Qin6DCDeKDbIX7XqB94J7ce/TlvUG9/SNZUFMChHU5S/k+ov9PqgX9NgsgpdGwoMs1farPqKj0pj4wC3hOSlF3+ud3uj3iUjAaRAUNxbO9HAOupLApBSPbUGUYrjckMIJ0lD4qseRK6RHysGUjMovyyj6gZ/oLcHaSkmm2p+PVBGRQHn21P+2GwQ9lxuTOCeLV8bCvrQo3smHZxg+KMVrYrh+Yn8P5gh8mEeFg4cBRLPB29H63imLuU5ECg6DcH/Nrpium8coOFr+Z2gofI138uEZ1lQ8l+sf9rOmIKbLaRCUDeZbXIb1BUz6pBS9aNGiw18J1E5GMjv8Ocat0OpatC9Y3jIiVGZL/sqZK7rRWDTLe/TgPGjYP5t38uEZ1lg4B7B/2E+7QXi7LHva9wbzDZO4/gw7vTTgJ3wlWlrdn49oigN+J4uUpGc8KsfbfklECs5cwS8duaLWSqPM6yqYzjv58Ayr2fUKVJqkKManDoPgV6H4FaW1ifoXbK0tYDQmoZjpoYS0EtI25VEAUBrZSjM+cQ79tGrnTjHv5MMzrGKnBOw5AtaR/X9/F6pPA0NVGckEPFAnoUr+LZSMHUfFgBLKDCLSOJgt+k9cLD23cnkXAAYY9seuF0C5fup/DMWfKRmVX+snmqLXBWonTTvwk/49Dy09J2A78sB3H12PSSAijcq8KV+zG6Z1tp0M7ezUaFnbifVg1ws92L+h+iQlmS7/E70p+IGGwYkWZNheepQcli4lRgN2g6DyTOXSbr5FgAF2pmopHDLJGobjj5RiPvELogvUBiOmASNEHaidQGX76qMpkNYSowF7zjTKVRD7Odwx8y4EcGYGdlec1547vE9LSUn6qr/ckROoDRYLBxCdHuw7wwa0W0GMBioMoh9hSeWT02+PATEscPvURsDkdSiL+UDISOa2v0q7NmAbTfGLjxZrJjmkNWm0RgjCoZ+6t7Ho9Qd8iwF3LHC4+A1fRZ6seLi+SCmm3b+oLw62bz6gcBjwrHBcquObo76GIDCawWjrzrlNvIpx59wmLrqyG4T/Phw/HiMwSJgqSy/7h/78gmRmjZkoayAO6qeaq/NjOry383gRo+e2iVs7KoyS3cP1ISqd+ed+AtPo/w3UTqK1/aZfEMomDdQuOp3+x0dTVumrxGiiXD/12w6DsO30ocUePgQ5W7UMnDvFd+jM4Z/dlZJ0bB+B0Wm2vw/UDpPBAWvI70LJ1KVpzB+J0YbDME1s10/zXWlK942mGC3NK3Cq8uH9R9J/GUmv7tt2xf2MQO2kJJPSR7SAtP11oHa4XzIqtaxgsOdMS0Bybh5dMypitB5f1yuGXiAfad+lFM34F3R7sHYyijH4ib4TtF0ak9QnSFxGOX/fPYy5CS7y51xJET3v29KcgQt4j9MgpsKy8UTS9/37F2uCtcV9EH8oWxfaQQf6U4Jv2PXTFtgNQviwdB50twb+fCAMwzxteXCsbBE4DCIskSwIR3+j0sp/KCXpC/5QNipwS3gOCfYTbQrlBOOoHLwOBRiCHjJJ4ZBRCh/XpsJIIzDfJya42rQcqszRUGWWcSFuuPuMkRaGv4FeF6eW/muoh+BwA8tfOc4jxgKQsAtsIrdzh2V6JPJcdRLcv7htSEJ0XM+Gyw0UsLvjwLlTAkfL53HXjYQgg2HguoBhbSinF4OV8kcVSNjF2t5TKteOpMARei4cMvY+2biB1HYy+Kn5+xe3QlPRHHAYcKTJ4Agzl7sOXg+vy4cgUpKh/aPjRrBIbGCEJaVsvyXGmiB9dvNEGpx3q6ChcCbO/3DKmQjtV3WPj4hrWVxegWtEY+Esrj2+b+B1+BAE99mlFPOZn2hLsLZYvvevR91Y0yLGqiCtA+ycSwk1BbEcsa5d06F+32zuJzeCCmK51wO9lw9BZBQtHlAKeT14W+Yjf8RWT/CJ1OzD30ze4f5Nsq5mxmCCtPrtUuMyOFnxJhw/uID7ib8P9p4+QfA+eD/VtvoRHYALBTKK2evPUx7g5lOgdjFU2ffwpIlfkFXEaGJpZs1PkzNrFmkyWWuKzn1bnckCGqmv6wxVkNZhWJ8g2py6rr574v2xH9if5PeqfxJOP6Myil7GjyH4R4cxWFuZlvlzKKWVsGHJlsqX1ZmsPEXnbkIiqNz6zq2lZ7359a1QcuZzqGjxgqsVOMLOs4kREeS8P8rC+1Rc9UDJ6c/BXHcTNpec8ZL6+i71jhof9i95B5uA/R2pz/ip2v5dQtI2JZSPR2MmjwknESks1td9V53JbtDo2IdkTl1X5sGLPiQCSXmWVZRkQKU5Bq40JYdVjCtNydx1K0pXPPO+1a0AxSc/g+1lF3ypObXd2N/kHez65Ez3d4brO1e5JZk8KUWfDBZdibX0t/r35Sk6Mt+Eqtpm+6o6s2a5Wsd2Ljc2dVrqW6HqRk9AIfrtRhdUlK4Ex04pnHAu5E6gt45ACHw/XseRK4EKehV3/cH6UHm9B8y1NyA9r7ET+6/ewaahP8PlItiJRkQUxSx4tN9um0qEG8m6mt9rstyXUvV1XZa6Vqi+OYgIT5kPDtWXgtMYC5WWWDjuWAAtH2qGJERLswaO2xdw78fr4PXwukPpR/UNHxjZ65CaU+dBf5K3uwPud4wEfXUuzNLDOl3FWa3PqzPZDHUm27ONOeepaPEMUYgnrOUBHHIVgLNgDjf3VxfEQVPxa3DcPh9OV8q5EPcCq+J+4u/4d3wd22F7fB++H68zkn44rnTD5pLTXvQreQe7IiMDvhQuzgaWVcL6fScYQmp0bEVqdm3XnuZPRibEM0ZM9ZmzUFlbBBVlG6HCmgDO/NngNMb0Em+M4X6vsMq517Edth/qiBjMChpvgSar1qPWsU6NgQ3L/0zsq+5iyButZX4etoVbo3MfTd/Z2GG70B5mMcaWMeceApXb0KXJYk9p3mdH9I9gcKOq/3MjFFMWPjGy3BdXF3zY4bzSzTthrlEw+6UuWGVp7kS/RxKFyUj6rf7cQ0sLwjNNZbmPrjQ3d454vRhn5rzaDSvMh7s0We6Tw8lZsFyP277+taM5WFgc2gWt1udxzVhhOtyBneObIBcfI+VyFyzvDY2dQ13ocXNLRjLFuHYEO4USMpJ31KxM0bm7J/qa4RrE0P+UbHc35lzD4VFMlv7TiEcH5hnJmWyP9cinvBPiGgO2+/BtrIv1RCpPCYoM64kXNDr3xW22c918E+EaQ7al5IxHnem+NJKMfljAoUnq6zu+aIu4axDDYiVWkZMy2dH7FmyuUKhjOzFB4psA1xg0rBwjPyMJhYcErNouNzZ1YI2Hb+ddY9CQl+XGpnZ1JvtWxMXAWBtL0riA8e24awxbQcMt0OjYB7gLGlFBcHOJ1Nd3Vk2ODggmSNVNH2j1dZ1qXc2bERUEd9KynZd6+H4CXePAshwf92h0tY0R3QPH7U0srPHtrGscWOnZB4B8perqfhwRQXD4UYaGDr4ddY0jS8ttaE/KZMNyhvgpaHSs9X3beQ/fTrrGkb3PnMddxr0RESQly902mXvAkATJx2gry90WdjEwfMNjO/TZyfXDNQRBSs884M59hf0wHp7wU2eyvslwF4Yc/qoza3yaLHZYn+4NCM0ONp401HfyPSe7xqHhSUw8thr2CGulqfkh3865xqGtMDU/VG9nw/s/QZIza5LxXNJb1mPtk3ZsSBwgb8hfmAVx/xGLipPGDosD5C+sgkxiEpMgnsb/A+dZ2ImXNeNCAAAAAElFTkSuQmCC;base64,iVBORw0KGgoAAAANSUhEUgAAAGQAAABkCAYAAABw4pVUAAAACXBIWXMAAAsTAAALEwEAmpwYAAAEiUlEQVR4nO2d72sURxzGz7ct1PY/8F37qhbizSqV3OyRkODs7sVKqkZimmRQTAsGudzY+rNgf1el+kYClsa+yEvxndQX6sWokB4i9UUVEdT3vnHiweXslG/gwmnX2HDuzZed7wMPxyYTdub53LE8l7vZTIZEIpHclr5W/OjpjOIvu3pZrUnjOPTSM2p2vlwy//HViaNpHIdeekbdrP39szFPfl/ysz+PVmMWnIpx6IU9QE1AcAWoCQiuADUBwRWgJiC4AtQEBFeAOs1ANm4U72W52JHloWr45OHhR7/+stdMnT2w5Mkfdy8c3LvjUhrHZcF+MLA2V3jXKgyWCwYZD+cZD+sbevqrH/d++gzMg63P89F2ky80OdxmcmJrrTEmTeM29PRXGY/qjIcanpx2YPCwkOXhc3/LiBGjJSOkctujyvBPRgxksq4zCNvNY5Xnh49zfUP2g5C43FkY+of50UPIqG00OnLBB4yHpndo3HoAApl7do4byGadH73fNiBZP+qEk9pevEBqyAYyahsQLyc4AVHLAoGMCIhMKZDY/wE0+frU54sntb1wgdSQDWT0uhxXBGTh3klTf3wm1nN/fENA5PJAIKNX5QfZrhgI/GHzWwbNrpSPrwhItPtLU/pp0hw7M734CMe2n8UiwTlDNpDRq/KDbK0BGdh3zJy/Mmdm7zxYMhzDz22HLhKaM2og0xdnX1hYw9MXr1kPXiQ050SAvImL+s6J72IX1vDgxLfWwxcJzPmNX9TjPvrS7O/3D47/HyC7Dp1YdnHwe9sARAJzhmwgo9flmGl3Mdw8dtBcvnU3dmFXbt0zfXsOWAcgEpgz6mJ45PS52MUdOjVlPXyR0JxRAwEXf5g0F8oVU759f/ERjm2HLhKcMzV1aR/gy0CoqUtcQFA3ddfMMBdDF80IiEo/EHr7XbUEBGVTd9UMa1N31Qx7MXTNjICodAOhi7pqGQg1dYkLCDV1iQsINXVpHwQBkQ4BoaauWgJCTV3iAkJNXeICQk1d2gdBQKQjQOiirloGQk1d4gJCTV3iAkJNXdoHQUCkQ0CoqauWgFBTl7iAUFOXuIBQU5f2QRAQ6QgQuqirloFQU5e4gFBTl7iAUFOX9kEQEOkQEGrqqiUg1NQlLiCom7qLm894WD/97urmMx5WIK5uPuNhbOq0+UwJ145yLm8+M4fxe+oubz5Twfo9dVc3n6lgBeLq5jMVaurKOsRmINTUJS4gqJu6a2aYi6GLZgREOQ6ERx6cdNNI0friBTJDJotAeOS1DQjc/IrxoN61fcx6AAKZIRPGwwXW2/tOpp3y8tG59V2ba5uG6VUiGq+O4aKBTFgu+i3TbsGrxOPRHS9fqPlbRk33wJjpHvjCUY8ZyGB9vq/G/Oivjq7+1Rkb+rC7+23GgyPMDx9leQi3jTNuOqgzXngIWXQEwVsZbMJ+Z06d5jt9xgl7gJqA4ApQExBcAWoCgitATUBwBagJCK4AtYtAqpWvDSym4fnrXy3ELTgN49BLz5ROwWJecFnd0FeLn6VxHIlEIpFIJBIpg1z/AnYFX+Q/vgFQAAAAAElFTkSuQmCC;base64,iVBORw0KGgoAAAANSUhEUgAAAGQAAABkCAYAAABw4pVUAAAACXBIWXMAAAsTAAALEwEAmpwYAAAHiElEQVR4nO2dW3ATVRjH64yOPjiDOjjqi/qiD16e9Emf9ElnHK8z+qIySPZswk0oDtmzGwhqubd7dkuBtlCgUORWJAO9iaUQaMvNQikplFJKD9NCS+S2ONDSput8cWAc6CVNNjm76Tkz/0nS5iHf/5dzztfs+acZGXzwwUcSB0IFT7i86ocCVn9EEvGORwlQO875ALzIYDlEmXwvKlqPW8mNLFq1rTevpLx35ebKcaW8kvJeqB08EBW9G2HtWyYwEFZ1j29FpKquyWzvvmnSsDGudaH7pllR22SCJyLWclILw6u6ps1f2d/Ydpm5EdRmOnm+y5w2L28ASTmTUwJjkt//lFvWbvx55Azz4qlNVVUfMkVZuz5jhv5k0oEIEvl05oKV/e09t5gXTm2qiz23zBnzcwdckvZJ0oEgrC7SNu65x7poanOBR+BV0oGIil5Wuvco84KpzVVafdQUsVaWdCBuWb904EQr84KpzbW/4ZzpUXJpUmHAJiVIJHKKd1fmaEAa27pM8CqpGzvy5ryNMDEvXLnB/B1Iba62KzdM8MqNtbeSB0Qi32QuKuhjXSx1iMArF1a/ThoQAZMFZMNuDiQcGxB13e4+JKn+pAERFb10W+XhQdbvPOoQba2sH0SKtiNpQNw+rW3f8RbmhVKHqPrYWdPt088nBYbf739clMm9htYu5oVSh6ihtdMEz8A7y4G4pOzXoWto7brGvFDqEJ3vuh7ttESf9prlQBAmn8NnWKyLpA7TzF9W9Yte9bMkAFHl5Wt28g4rPDYgSwtL+wSJYOuBSOrmkrJDvMMKjw1IyZ6Dg0jWSiwH4vFpzXsPNzNfAqjD9MfhkOlW9JDFOMzHREzuHj97iXmB1GE6dvaSiWTSCx5ahkP0klehW2jp5B0WHSOQls6/o53WD8ryVywDIsjk4+nz8gY6rvKrhHSMQMAz8A5JOR9ZBgThnDlw1IX19KcO1cJV23qRRDItBKIWbQwEI6wLow7VhsCBCJLJWsuAeBS9obKuiXlh1KGqqD0FVw//sgyIKJPbR5o7mBdGHaojzRfhWNA/lsBAsvoSdAlnaJh5YdShAu/Aw6k/LXsxYSBwkNqt6IO8wzLiBtLRc8uEs79wIDthIIKkTV+Q+xvvsMKJzZKftc29CKvTEgaCMFm5dmfNAOtpTx2utaXVA4JE8hIG4vbl1u0JNjIviDpcZQdPmh5Fr00YiKho1+ubLjIviDpcdU3t8CHjtYRgeKRVz0J30NxxlXlB1OEKdVyNdlpT/DnPxT87sPq+KGuD/KS7YcmJePBSUPT34gbiwkTwqcW8wwpbM0t82cW9EHaKGwiSiLp6axW/jh62Bkj+lqp+Aavxx908Pn1foKaB+fpL00S7ahpgY6+OGwgkbGsb25gXQtNEhxrbAEh3XDCm+vOeRlgdPN3ezbwQmiZqau82wVPwdsxAkKy+G40e8MizaRUQiI+Dpy5JfyeuLwXwLi3i57DC1s4S8FSQ1O/GPkMksnjF5nIe7gxbC2RFSXl8YVCk6OWle48xX3dpminuMCgPdxr2CYPycKdhrzAoD3ca9gqDRsOdCwv4hh62SRiUhzsNe4VBebjTsFcYlIc7jaSHQT1KbmtMMCCgiDDp5+FOwx5hUB7uNOwVBuXhTsNeYVAIKPJwp5GSMCjCqjT6DJG1Eh7uNFISBhVksmlUIDzcaaQsDOpRck+PgoOHO2kKw6AQpB0xDArBRB7uNFIaBkVe7eVhgfBwp2GvMCgEExet3s4PxoVTFwYVsDp7eCAyWcvDnUZKw6AiJmuGBcLDnUbKw6Ciog8fBhWxxsOd4dSGQZFMbg8JAwKJPNxpMAmDTsHaC48A4eFOw15hUAgkLljBw500xVAgUDtkGBQu285dWnQ3EAyZXKGUeTB32bq74D0HErTHG48DCbKHwIEE2RvPgQTZm82BBNkbzIEE2ZvKHMiWquPm8qLdUcH9dH9eYARVHm4xT7R0ms3t3dFbeJxyIOt2Hfrv4gom0fvp/rzAMAIIkcig+f8Bj+HnHEgwtUDA9JFGrFD4DAkmDgSWpYdnxsNjIBKJafniQIKJAzlxrtOMZTS0dI4OZGkR30MCCQIZbbkay7LFgQQtmCEtfIaYjtxD6ltSs2RpxRUPCkkXacUVMQOJZdkKXYixy+JAiCVA7kOBmfDwzIgVhmVA1gdqTWl5cVSL839/8Nfuw4LfOeV56wO1YwZyf/mCbgrgwG0sy5TlQLhClnnAgQQdAgT+R8ichYV3WL/AwDhTZlbhnSGPkwpe7SuPL/ferv2nmb/IwDgReO1R9Hsub84XjwCZ5CfPIEwGCnccYP5CA+NEBdtr4JuB+pF3yYSMoYZb1gpnZxX0/V7TxPzFBtJc4PGsrPw+JGv5GcONyVh/3q3ol33qpgEOJZRUGAop6RcVrQtlZk/MGGm45qpvurF+eVZWQV/Bjv3RdY71uymQJgIvYZma9Wt+H8AQsf7GiDAedFyZ2RMFRS+A9Q02nTlZhXekZeu5lsXvAXgIXkb3DFnLH3VmDAnGu2QCwuRLaMsErC7hUhPxYDZ4OewGzgcffGSMPv4FZO1V1t+DwzAAAAAASUVORK5CYII=;base64,iVBORw0KGgoAAAANSUhEUgAAAGQAAABkCAYAAABw4pVUAAAACXBIWXMAAAsTAAALEwEAmpwYAAAHY0lEQVR4nO2b208UVxzHt29NL2na9KV9MMY+NmnSv6DpQ5sm7s6sWrTaUoyKy7UJKt3dOYuLXLq4o7CCCtgAGrCiWECZOYMKAlItikgB06qt9UKFahRJWxO5LKf5jVmkBCk7OziHnfNNzgOEIXt+n/1dzu/8xmJhYmJiYmJiYop2bXQGFsW78tsSXflLjP4sppfDWbDYgQJ3ElBhMAEFBuBn0xvFSM9woEC/y79/tKb5J4J2VI46UGCQeYrBMGpP95L6tsuktqWXQaEFRmgxKBTBYFAohMGgUAiDQaEQBoNCIQwGhUIYDMossrmkT2BZnjMMBmUGWV34Y16QRzlBHuMFbLPoCCMcYOycYnkKI2lv90RKcQ+ZDUq4MAoOyCQtp5RUn+hiUMKFISrDBFZySe+MULTA2OguUFdazj4GRQuMZ0EJF0ZpTcskjND6Oq+M1LWynBI2jOlQVgi168JN4GD4zMLqSRhJnkJSXtfOEr1WGFOh8IJMErOrxsOtpkJQtMKYWhTAlwHuVaLuPsUaBozpULLLmsI2Zl1rH6mUOlhJrBcMPaDotaKqJLZGAGO+oZgu0Vt1gDFfUCqOnSXpvjLzlMRWHWFMh5JT3hwxjKSMIk3nlJqmbgKDEw53oM1iZhiiTp5SJXdMwgitTTn75tRmUasucf/YgvIQ6zzC0Kf6+u85BdbOigYGQ6QECoOh0OIpfWTf0RbmGSJF4YvlDIW+nMISuEI/FFZNKfRAWdAwEuextBUNgMJgKPRAYTAUejyFwVDoCV8MhkJPTmEwFHoSPYOh0AOFwVDogpKQXbWwXgSl+Zwh6gQlxl0Tb1kIimYY4hQoc5klNlxmgCEuFChmgiHSDsWMMERaoZgZhkgbFAZjWAWSUtwzAUBsLtnKYCjGegeDoRgfohgMxXjjUwmDc0sfQgJPLu4xbQIXIYkX90yAHeb65u/8wHDi93kBP0rY3R002iCi2WFYvcff5JFyb0PgwrgfG28U0cwwLBbygl1Q5FXZp0e2y0OGG0U0c84AcYL8JYfweFbtoOFGEc3tGRYLl17/Kofw/dSSPtMm8RRaPANkE+SMFZknTRuqkmnxDJDVe/wlHuHhtPJfdNkcFAMZ1bdJ8t4esi6/g8SJ58iGwAWSVvYzyam7a7jxRZo9A2QTpLX2jMZRPbzDc7ifrPG1ER5hEpvXThJ2X1LBxO/qJDFZTervHYVdxNdw33AQ1HlGSDxSWh1FXRGfOTZXXCW8B5P4wk6SW39vxr8RvrtBPstpIauyT5Os2j+ZZ0zXUpf0OifIQQgxkcBwVv2ufvsByv/9bZ40ROJ2nFOhGOUpVHoGiHM1cDzCY375oebN5TU8ICu2niQpJX1zf0YaIquyW4ijqOu5w6AuZ0yVzS37Y7e3j0SywdTSy2RlVjMJNwcJB2+oXvWs8GYqzwjJ7sGNiXu6I9rk6txWklraq+nZlVnNavVles94CkS5uan8imaD+PFDwgmYeDTmoPhdneoyvWeExCP8l7PyumaD5B67B3fMRGu7Jam4Rz2nmDZnTBeH5FEoRbVuFvIGAPHW/KHpeUdRF1lfcJ7BmAQiyOPo0M2IDPJp5imyZf81Tc/G5p0hySU95kzgM4lH+B84Q0Sy8Y2FF0mceDbs53Lq7qpVVsbh2+YOU1PFe/Dglgpt3+7Q8tbceZLYD90K67kNgU6yxndG7X2Z3jNCsgv4bHKxtpJ16koouqSGrrk2DzdVXCE8UkjGkX7mGVPFCdLetTs7xiIF4sdDJM7/gwoFVd+atQiALwCPsOa8E1U5Y7psroa45VtPjOgRNgAKdHchfEFOgb6W90i/WhJDOIPWCnR8AZr7YGR5K2pyxnTxTmXxk3PEgG7GyTw6oCZ6MDz8b1jgEWu+aSNffXuZ5EkPmGfMCgXhq6mlc28MhrMgRMHhEU708/H/U6LFM6aKc0uumG1Njxfa2E9yNOSMmcSl17/NC/KY3nGdwYhAdoQrPve1RdSGZzB0lB3hd8BLnJW/GW5w0YxhaibZXLJveebJEZ/OVRCDoVEfbT7xMufBN9bvPD9utPFFM3vG9Ml3KCM3lekzo8Vg6DSnBZMorirtF1cMhs7ikSzA4LVRUPx4mCTs6Q6aMkzNCsUtB/UaMQ3ndL8uvyPII/wI3uQy2g4Uhi9pDBK93j0ocYa17fsBGKAb4ZEyaHPj94zeP5WyeZR37Ui5BiVx+oFf580rUkp6J3iEx3mEpRhv4xtG75v6ktjqwrlweIQTPbRZ9Oh9bZeH1LksuAKAV+lsSFpt9F4XlJa6pCU2JJcBmJjMpsdwxwHt9nDgwL2J59AtEl94MWj3KKM8UoZsguyO8ba8YvT+FqyWCcpbNkFy2jPwFbjvWOZpHFm748cxmLOCO3qY9YJpFhgxgnYMnGsSdneTL3ztjyEscW45aEdKE7xG94G35UWj9xNVsjqPL7K6pFjOLe+xo8YzdoTv8Aj/DWcZTpBHYRjPjvB1eKHUJsg+TpCWxjhPvWb052ZiYmJiYmJisuihfwG2rVj1851lRQAAAABJRU5ErkJggg==;" vertex="1" parent="j9JfCKXNSG1rssrYbunD-28">
          <mxGeometry x="480" y="200" width="80" height="80" as="geometry" />
        </mxCell>
        <mxCell id="j9JfCKXNSG1rssrYbunD-3" value="" style="shape=image;imageAspect=0;aspect=fixed;verticalLabelPosition=bottom;verticalAlign=top;image=data:image/png,iVBORw0KGgoAAAANSUhEUgAAAGQAAABkCAYAAABw4pVUAAAACXBIWXMAAAsTAAALEwEAmpwYAAAHY0lEQVR4nO2b208UVxzHt29NL2na9KV9MMY+NmnSv6DpQ5sm7s6sWrTaUoyKy7UJKt3dOYuLXLq4o7CCCtgAGrCiWECZOYMKAlItikgB06qt9UKFahRJWxO5LKf5jVmkBCk7OziHnfNNzgOEIXt+n/1dzu/8xmJhYmJiYmJiYop2bXQGFsW78tsSXflLjP4sppfDWbDYgQJ3ElBhMAEFBuBn0xvFSM9woEC/y79/tKb5J4J2VI46UGCQeYrBMGpP95L6tsuktqWXQaEFRmgxKBTBYFAohMGgUAiDQaEQBoNCIQwGhUIYDMossrmkT2BZnjMMBmUGWV34Y16QRzlBHuMFbLPoCCMcYOycYnkKI2lv90RKcQ+ZDUq4MAoOyCQtp5RUn+hiUMKFISrDBFZySe+MULTA2OguUFdazj4GRQuMZ0EJF0ZpTcskjND6Oq+M1LWynBI2jOlQVgi168JN4GD4zMLqSRhJnkJSXtfOEr1WGFOh8IJMErOrxsOtpkJQtMKYWhTAlwHuVaLuPsUaBozpULLLmsI2Zl1rH6mUOlhJrBcMPaDotaKqJLZGAGO+oZgu0Vt1gDFfUCqOnSXpvjLzlMRWHWFMh5JT3hwxjKSMIk3nlJqmbgKDEw53oM1iZhiiTp5SJXdMwgitTTn75tRmUasucf/YgvIQ6zzC0Kf6+u85BdbOigYGQ6QECoOh0OIpfWTf0RbmGSJF4YvlDIW+nMISuEI/FFZNKfRAWdAwEuextBUNgMJgKPRAYTAUejyFwVDoCV8MhkJPTmEwFHoSPYOh0AOFwVDogpKQXbWwXgSl+Zwh6gQlxl0Tb1kIimYY4hQoc5klNlxmgCEuFChmgiHSDsWMMERaoZgZhkgbFAZjWAWSUtwzAUBsLtnKYCjGegeDoRgfohgMxXjjUwmDc0sfQgJPLu4xbQIXIYkX90yAHeb65u/8wHDi93kBP0rY3R002iCi2WFYvcff5JFyb0PgwrgfG28U0cwwLBbygl1Q5FXZp0e2y0OGG0U0c84AcYL8JYfweFbtoOFGEc3tGRYLl17/Kofw/dSSPtMm8RRaPANkE+SMFZknTRuqkmnxDJDVe/wlHuHhtPJfdNkcFAMZ1bdJ8t4esi6/g8SJ58iGwAWSVvYzyam7a7jxRZo9A2QTpLX2jMZRPbzDc7ifrPG1ER5hEpvXThJ2X1LBxO/qJDFZTervHYVdxNdw33AQ1HlGSDxSWh1FXRGfOTZXXCW8B5P4wk6SW39vxr8RvrtBPstpIauyT5Os2j+ZZ0zXUpf0OifIQQgxkcBwVv2ufvsByv/9bZ40ROJ2nFOhGOUpVHoGiHM1cDzCY375oebN5TU8ICu2niQpJX1zf0YaIquyW4ijqOu5w6AuZ0yVzS37Y7e3j0SywdTSy2RlVjMJNwcJB2+oXvWs8GYqzwjJ7sGNiXu6I9rk6txWklraq+nZlVnNavVles94CkS5uan8imaD+PFDwgmYeDTmoPhdneoyvWeExCP8l7PyumaD5B67B3fMRGu7Jam4Rz2nmDZnTBeH5FEoRbVuFvIGAPHW/KHpeUdRF1lfcJ7BmAQiyOPo0M2IDPJp5imyZf81Tc/G5p0hySU95kzgM4lH+B84Q0Sy8Y2FF0mceDbs53Lq7qpVVsbh2+YOU1PFe/Dglgpt3+7Q8tbceZLYD90K67kNgU6yxndG7X2Z3jNCsgv4bHKxtpJ16koouqSGrrk2DzdVXCE8UkjGkX7mGVPFCdLetTs7xiIF4sdDJM7/gwoFVd+atQiALwCPsOa8E1U5Y7psroa45VtPjOgRNgAKdHchfEFOgb6W90i/WhJDOIPWCnR8AZr7YGR5K2pyxnTxTmXxk3PEgG7GyTw6oCZ6MDz8b1jgEWu+aSNffXuZ5EkPmGfMCgXhq6mlc28MhrMgRMHhEU708/H/U6LFM6aKc0uumG1Njxfa2E9yNOSMmcSl17/NC/KY3nGdwYhAdoQrPve1RdSGZzB0lB3hd8BLnJW/GW5w0YxhaibZXLJveebJEZ/OVRCDoVEfbT7xMufBN9bvPD9utPFFM3vG9Ml3KCM3lekzo8Vg6DSnBZMorirtF1cMhs7ikSzA4LVRUPx4mCTs6Q6aMkzNCsUtB/UaMQ3ndL8uvyPII/wI3uQy2g4Uhi9pDBK93j0ocYa17fsBGKAb4ZEyaHPj94zeP5WyeZR37Ui5BiVx+oFf580rUkp6J3iEx3mEpRhv4xtG75v6ktjqwrlweIQTPbRZ9Oh9bZeH1LksuAKAV+lsSFpt9F4XlJa6pCU2JJcBmJjMpsdwxwHt9nDgwL2J59AtEl94MWj3KKM8UoZsguyO8ba8YvT+FqyWCcpbNkFy2jPwFbjvWOZpHFm748cxmLOCO3qY9YJpFhgxgnYMnGsSdneTL3ztjyEscW45aEdKE7xG94G35UWj9xNVsjqPL7K6pFjOLe+xo8YzdoTv8Aj/DWcZTpBHYRjPjvB1eKHUJsg+TpCWxjhPvWb052ZiYmJiYmJisuihfwG2rVj1851lRQAAAABJRU5ErkJggg==;" vertex="1" parent="j9JfCKXNSG1rssrYbunD-28">
          <mxGeometry x="680" y="40" width="80" height="80" as="geometry" />
        </mxCell>
        <mxCell id="j9JfCKXNSG1rssrYbunD-4" value="" style="shape=image;imageAspect=0;aspect=fixed;verticalLabelPosition=bottom;verticalAlign=top;image=data:image/png,iVBORw0KGgoAAAANSUhEUgAAAGQAAABkCAYAAABw4pVUAAAACXBIWXMAAAsTAAALEwEAmpwYAAAHiElEQVR4nO2dW3ATVRjH64yOPjiDOjjqi/qiD16e9Emf9ElnHK8z+qIySPZswk0oDtmzGwhqubd7dkuBtlCgUORWJAO9iaUQaMvNQikplFJKD9NCS+S2ONDSput8cWAc6CVNNjm76Tkz/0nS5iHf/5dzztfs+acZGXzwwUcSB0IFT7i86ocCVn9EEvGORwlQO875ALzIYDlEmXwvKlqPW8mNLFq1rTevpLx35ebKcaW8kvJeqB08EBW9G2HtWyYwEFZ1j29FpKquyWzvvmnSsDGudaH7pllR22SCJyLWclILw6u6ps1f2d/Ydpm5EdRmOnm+y5w2L28ASTmTUwJjkt//lFvWbvx55Azz4qlNVVUfMkVZuz5jhv5k0oEIEvl05oKV/e09t5gXTm2qiz23zBnzcwdckvZJ0oEgrC7SNu65x7poanOBR+BV0oGIil5Wuvco84KpzVVafdQUsVaWdCBuWb904EQr84KpzbW/4ZzpUXJpUmHAJiVIJHKKd1fmaEAa27pM8CqpGzvy5ryNMDEvXLnB/B1Iba62KzdM8MqNtbeSB0Qi32QuKuhjXSx1iMArF1a/ThoQAZMFZMNuDiQcGxB13e4+JKn+pAERFb10W+XhQdbvPOoQba2sH0SKtiNpQNw+rW3f8RbmhVKHqPrYWdPt088nBYbf739clMm9htYu5oVSh6ihtdMEz8A7y4G4pOzXoWto7brGvFDqEJ3vuh7ttESf9prlQBAmn8NnWKyLpA7TzF9W9Yte9bMkAFHl5Wt28g4rPDYgSwtL+wSJYOuBSOrmkrJDvMMKjw1IyZ6Dg0jWSiwH4vFpzXsPNzNfAqjD9MfhkOlW9JDFOMzHREzuHj97iXmB1GE6dvaSiWTSCx5ahkP0klehW2jp5B0WHSOQls6/o53WD8ryVywDIsjk4+nz8gY6rvKrhHSMQMAz8A5JOR9ZBgThnDlw1IX19KcO1cJV23qRRDItBKIWbQwEI6wLow7VhsCBCJLJWsuAeBS9obKuiXlh1KGqqD0FVw//sgyIKJPbR5o7mBdGHaojzRfhWNA/lsBAsvoSdAlnaJh5YdShAu/Aw6k/LXsxYSBwkNqt6IO8wzLiBtLRc8uEs79wIDthIIKkTV+Q+xvvsMKJzZKftc29CKvTEgaCMFm5dmfNAOtpTx2utaXVA4JE8hIG4vbl1u0JNjIviDpcZQdPmh5Fr00YiKho1+ubLjIviDpcdU3t8CHjtYRgeKRVz0J30NxxlXlB1OEKdVyNdlpT/DnPxT87sPq+KGuD/KS7YcmJePBSUPT34gbiwkTwqcW8wwpbM0t82cW9EHaKGwiSiLp6axW/jh62Bkj+lqp+Aavxx908Pn1foKaB+fpL00S7ahpgY6+OGwgkbGsb25gXQtNEhxrbAEh3XDCm+vOeRlgdPN3ezbwQmiZqau82wVPwdsxAkKy+G40e8MizaRUQiI+Dpy5JfyeuLwXwLi3i57DC1s4S8FSQ1O/GPkMksnjF5nIe7gxbC2RFSXl8YVCk6OWle48xX3dpminuMCgPdxr2CYPycKdhrzAoD3ca9gqDRsOdCwv4hh62SRiUhzsNe4VBebjTsFcYlIc7jaSHQT1KbmtMMCCgiDDp5+FOwx5hUB7uNOwVBuXhTsNeYVAIKPJwp5GSMCjCqjT6DJG1Eh7uNFISBhVksmlUIDzcaaQsDOpRck+PgoOHO2kKw6AQpB0xDArBRB7uNFIaBkVe7eVhgfBwp2GvMCgEExet3s4PxoVTFwYVsDp7eCAyWcvDnUZKw6AiJmuGBcLDnUbKw6Ciog8fBhWxxsOd4dSGQZFMbg8JAwKJPNxpMAmDTsHaC48A4eFOw15hUAgkLljBw500xVAgUDtkGBQu285dWnQ3EAyZXKGUeTB32bq74D0HErTHG48DCbKHwIEE2RvPgQTZm82BBNkbzIEE2ZvKHMiWquPm8qLdUcH9dH9eYARVHm4xT7R0ms3t3dFbeJxyIOt2Hfrv4gom0fvp/rzAMAIIkcig+f8Bj+HnHEgwtUDA9JFGrFD4DAkmDgSWpYdnxsNjIBKJafniQIKJAzlxrtOMZTS0dI4OZGkR30MCCQIZbbkay7LFgQQtmCEtfIaYjtxD6ltSs2RpxRUPCkkXacUVMQOJZdkKXYixy+JAiCVA7kOBmfDwzIgVhmVA1gdqTWl5cVSL839/8Nfuw4LfOeV56wO1YwZyf/mCbgrgwG0sy5TlQLhClnnAgQQdAgT+R8ichYV3WL/AwDhTZlbhnSGPkwpe7SuPL/ferv2nmb/IwDgReO1R9Hsub84XjwCZ5CfPIEwGCnccYP5CA+NEBdtr4JuB+pF3yYSMoYZb1gpnZxX0/V7TxPzFBtJc4PGsrPw+JGv5GcONyVh/3q3ol33qpgEOJZRUGAop6RcVrQtlZk/MGGm45qpvurF+eVZWQV/Bjv3RdY71uymQJgIvYZma9Wt+H8AQsf7GiDAedFyZ2RMFRS+A9Q02nTlZhXekZeu5lsXvAXgIXkb3DFnLH3VmDAnGu2QCwuRLaMsErC7hUhPxYDZ4OewGzgcffGSMPv4FZO1V1t+DwzAAAAAASUVORK5CYII=;" vertex="1" parent="j9JfCKXNSG1rssrYbunD-28">
          <mxGeometry x="240" y="40" width="80" height="80" as="geometry" />
        </mxCell>
        <mxCell id="j9JfCKXNSG1rssrYbunD-5" value="" style="shape=image;imageAspect=0;aspect=fixed;verticalLabelPosition=bottom;verticalAlign=top;image=data:image/png,iVBORw0KGgoAAAANSUhEUgAAAGQAAABkCAYAAABw4pVUAAAACXBIWXMAAAsTAAALEwEAmpwYAAAEiUlEQVR4nO2d72sURxzGz7ct1PY/8F37qhbizSqV3OyRkODs7sVKqkZimmRQTAsGudzY+rNgf1el+kYClsa+yEvxndQX6sWokB4i9UUVEdT3vnHiweXslG/gwmnX2HDuzZed7wMPxyYTdub53LE8l7vZTIZEIpHclr5W/OjpjOIvu3pZrUnjOPTSM2p2vlwy//HViaNpHIdeekbdrP39szFPfl/ysz+PVmMWnIpx6IU9QE1AcAWoCQiuADUBwRWgJiC4AtQEBFeAOs1ANm4U72W52JHloWr45OHhR7/+stdMnT2w5Mkfdy8c3LvjUhrHZcF+MLA2V3jXKgyWCwYZD+cZD+sbevqrH/d++gzMg63P89F2ky80OdxmcmJrrTEmTeM29PRXGY/qjIcanpx2YPCwkOXhc3/LiBGjJSOkctujyvBPRgxksq4zCNvNY5Xnh49zfUP2g5C43FkY+of50UPIqG00OnLBB4yHpndo3HoAApl7do4byGadH73fNiBZP+qEk9pevEBqyAYyahsQLyc4AVHLAoGMCIhMKZDY/wE0+frU54sntb1wgdSQDWT0uhxXBGTh3klTf3wm1nN/fENA5PJAIKNX5QfZrhgI/GHzWwbNrpSPrwhItPtLU/pp0hw7M734CMe2n8UiwTlDNpDRq/KDbK0BGdh3zJy/Mmdm7zxYMhzDz22HLhKaM2og0xdnX1hYw9MXr1kPXiQ050SAvImL+s6J72IX1vDgxLfWwxcJzPmNX9TjPvrS7O/3D47/HyC7Dp1YdnHwe9sARAJzhmwgo9flmGl3Mdw8dtBcvnU3dmFXbt0zfXsOWAcgEpgz6mJ45PS52MUdOjVlPXyR0JxRAwEXf5g0F8oVU759f/ERjm2HLhKcMzV1aR/gy0CoqUtcQFA3ddfMMBdDF80IiEo/EHr7XbUEBGVTd9UMa1N31Qx7MXTNjICodAOhi7pqGQg1dYkLCDV1iQsINXVpHwQBkQ4BoaauWgJCTV3iAkJNXeICQk1d2gdBQKQjQOiirloGQk1d4gJCTV3iAkJNXdoHQUCkQ0CoqauWgFBTl7iAUFOXuIBQU5f2QRAQ6QgQuqirloFQU5e4gFBTl7iAUFOX9kEQEOkQEGrqqiUg1NQlLiCom7qLm894WD/97urmMx5WIK5uPuNhbOq0+UwJ145yLm8+M4fxe+oubz5Twfo9dVc3n6lgBeLq5jMVaurKOsRmINTUJS4gqJu6a2aYi6GLZgREOQ6ERx6cdNNI0friBTJDJotAeOS1DQjc/IrxoN61fcx6AAKZIRPGwwXW2/tOpp3y8tG59V2ba5uG6VUiGq+O4aKBTFgu+i3TbsGrxOPRHS9fqPlbRk33wJjpHvjCUY8ZyGB9vq/G/Oivjq7+1Rkb+rC7+23GgyPMDx9leQi3jTNuOqgzXngIWXQEwVsZbMJ+Z06d5jt9xgl7gJqA4ApQExBcAWoCgitATUBwBagJCK4AtYtAqpWvDSym4fnrXy3ELTgN49BLz5ROwWJecFnd0FeLn6VxHIlEIpFIJBIpg1z/AnYFX+Q/vgFQAAAAAElFTkSuQmCC;" vertex="1" parent="j9JfCKXNSG1rssrYbunD-28">
          <mxGeometry x="360" y="120" width="80" height="80" as="geometry" />
        </mxCell>
        <mxCell id="j9JfCKXNSG1rssrYbunD-6" value="" style="shape=image;imageAspect=0;aspect=fixed;verticalLabelPosition=bottom;verticalAlign=top;image=data:image/png,iVBORw0KGgoAAAANSUhEUgAAAGQAAABkCAYAAABw4pVUAAAACXBIWXMAAAsTAAALEwEAmpwYAAATHUlEQVR4nO1dCVRb15l+adq002nStGemnbbT6TKnnU7PLKfT6Uxnembc9kxt7SwOJrbjOPUWJCEvIIHeAxuvsZ3EW2IjQMJoAS+KDRjeE1gSBsQTq4njfY8XvGCceElsNgn9c/6HwHiRECDxgPCd8x8O6Oq9+3/fu/f+/3+vBEFMYhKTGEcwvin+gSVB/D9GufB1c4JQaZSLU3tNpMa/5SUKf2eYJ3uR735OaAHyFKLFFqXYZkmU3DUpRGBSiHx7lsV0FmnjH5akvdrBpM/uOEDGt+Pf8DWTQtRjThQ3o0j6+VO/zbcP4x4ZGRlfMirFMQWJkjok+AP19M6GrYnwcX4G3C/bCj3VOQCs4ZnmqcqGa9a10LBV5bMmx3aaleKHJrlwTd6SqJf59mtcwpggluUnSq/kqySe+q2Jvk9LNwUkHwYxX40eLuavgH2aVzrMieIbJqXkv/j2b9wgTyH6m3yVrMKSKPYeyUyCrkO6YQsBT5i3Ohvqtii9JoXIa5SLXuPb1zEPs1L4J4tKcq981evdD+zvhU0IeMLO5FE+k1LkNclFsXz7PGZhUkjmmJUi7/GcFIAafcTEAL+d0Kf4zEpR+843xT/j2/cxB7NC+oY5Uey9tGtlxIWAPqvRg33VXFzsHXz7P6ZgTBAKcWRc3rVq9MRge+2ebSuGzmBWijvyEyU3zEoxjTmNQSn7PvFFhEUl+FuLSvL5qdzUURcD/NZauAGuf7AOzhrToXaTwrtnWXSnWSnqNitEOsx9iC8KgCCey1dJa51r53lGY82AIUxlLXvXQFHqjA6zUnTXpBRPI74IMCpEMwsWS7s7nDv4F4F92nw1BjiRo/GYFWIPTmPERIY1Lu6FfJXkFp9TFYRol3evxhDZgxUDYqICi3+7lsi6MFHjm3AIwU4aUjxmhegzTFqJiYh8leTUUZ2ad6IhVKvRQ2nazM9MCtFOYqIhL1HyCww1Py/fxj/RbOh2q3gjmBRiz0751B8SEwkmhXB5adrMDr4JhmFYYeqMeya5KI2YSMhfLHUf2ZHEO7kwDPsoM8lrVoqPEBMFlRlTvmxWiDuvfbCOV2K7DumgcdviIU+bbcVvg1Eh8loVU75BTASYlMKf4/rR7tjOmxi+Gj1UrJsPlkQJFCyWwalcMuRipqcqCwXxTZj9FKxb4T4HX5m5r0YP7k1y2L0sCu6e2Q6nmOVQsEQKh9bPD3nfZfeSqIemBOEsYiLAKBcv2qee3s6HGJ6qLKhcv4ATo+3oVoA7Fs7unt4ORcvjoSRtJoRSNdiveeW+US5cQkwEmOTCpGJt/KgLcofeBMXaGbCfjIM7p97vF6PPOlsMQK99DYq08dDuDD6dHiDj7xkVQoqYCDAqROl0+uxRC3m7KnsXb1wvDr23EDqvGZ4So8+6b+ZB6ZrZYMt4DbyuwIcnDpDxd/G4ETERYFIIk0uomREfIZ+Vb4Pm7Uthz7JoblRcZdcHFGKgPbycAx+kTofazYqA196neQUFWURMBJjlovmFqXFhF8TryoFbRRvgWLYa7KvfALNSBCUrZ8HZgyvB22YMSYw+a23exL3/VuHGZ96rQCVtN8vFccREQF6CcDoWFYdC9j1mC+BuIu61N723BOo2K4B9NwGqNizkyC8m48GiknA7f4XUDKg3LYFbRzYPSYQnjdUruUUeo7LHhK/O5sJePBUZKY7EVOkPpBSzXpRG/4iINPISBL9F4gar8n5S8i4Xnu5NiuGItmpigVk7Byq3LYSq7W9CrV4F9cbF8OEeDZwpWwHXGt6Gjqv6EYkw0PBa+Yul3IPwZHCA/SmQi78VCX5iMg5+R0bRnTKKARnJvENEGhaV4CV8wtCxZwmBEU7FunlgThRDxdaFcMm1Dh5eyQkb0TAEcxtUYF8997H+nTel43TWGkmOpCRdgoJISeZuXEZl5CsC+Srp7XOm9KfEuH3gbdiTFA1lG+bC/fOZvIgAA+x64ztgSRRDd2VWfx/d78o7jHJheST5kZH0H7gR0jtKFhKRRr5K6qzdrHxMjIeO7ZwYLp0cfJ/yKwT4zXPLyC3urYXr+/tZqJ1xD6vVkeZIRjGn/aPEHel7ESaFSFusjX9sYcdFunT1bPC2mXgXAgbYHk0UnDWm9R/extOOeUrx7yPNkYyktX2jREKW/CKiN8PCnEkh9mEpoy95w8StpW4D7wLAE7aPiuaiO+wnnqQ3KUXd1mVxfxFxQTTF35dSjNc/SlZG9GbZi379FbNS0nllz2rO0RbrWm6u7rk9tkYH3LFAYXoMfKRL5vpZu0XRbVKKXMQoQUbRVb2jhD4a0RuVG6b+wUpJPOw7cs5RPHliTY3mnXwYRJAPNLFQtE7YflA/8hwkLs76fLSW/nWwNlKqdGnftCXW0j8lIoHK7VO+4dCL7ldkvQp7l0VziRcedtifFjOmBblf1nvktHb3bJ/dILxbki35+nA5kKbRM6UkfUNG0h1/Sj74l4HaRaWW/bhPEClJq4hIoFwvjHfkCj1XG1PwPC1XnkCH96eN7RFyLEcD+6kYuHmcAmeuqMtuEAy7dCIhmej+sFZbKgvWVkbR5/3rSCERCdhzBKmuguiO1hNpULZxJlcGGQ+ClKTHgztvPmC/a3bFtqMfw+VAklHydRnJPPTnGdnB2kopOqc/SYyzPk+EG44cgarKEtWOjh0tUcKuJTI4vH3pmBakeuMibrq6yKo5Qaossnb0YyQ8SCnmAEc0RbcEaxdFMrMeTVu2fyHCDbteIHIYhB4c+jePUrAnKQoPNY9pQQpUMijKeIUTA/uN/Uc/RsKDlLTJ+4gOVkQUp5f+rF8Qin6DCDeKDbIX7XqB94J7ce/TlvUG9/SNZUFMChHU5S/k+ov9PqgX9NgsgpdGwoMs1farPqKj0pj4wC3hOSlF3+ud3uj3iUjAaRAUNxbO9HAOupLApBSPbUGUYrjckMIJ0lD4qseRK6RHysGUjMovyyj6gZ/oLcHaSkmm2p+PVBGRQHn21P+2GwQ9lxuTOCeLV8bCvrQo3smHZxg+KMVrYrh+Yn8P5gh8mEeFg4cBRLPB29H63imLuU5ECg6DcH/Nrpium8coOFr+Z2gofI138uEZ1lQ8l+sf9rOmIKbLaRCUDeZbXIb1BUz6pBS9aNGiw18J1E5GMjv8Ocat0OpatC9Y3jIiVGZL/sqZK7rRWDTLe/TgPGjYP5t38uEZ1lg4B7B/2E+7QXi7LHva9wbzDZO4/gw7vTTgJ3wlWlrdn49oigN+J4uUpGc8KsfbfklECs5cwS8duaLWSqPM6yqYzjv58Ayr2fUKVJqkKManDoPgV6H4FaW1ifoXbK0tYDQmoZjpoYS0EtI25VEAUBrZSjM+cQ79tGrnTjHv5MMzrGKnBOw5AtaR/X9/F6pPA0NVGckEPFAnoUr+LZSMHUfFgBLKDCLSOJgt+k9cLD23cnkXAAYY9seuF0C5fup/DMWfKRmVX+snmqLXBWonTTvwk/49Dy09J2A78sB3H12PSSAijcq8KV+zG6Z1tp0M7ezUaFnbifVg1ws92L+h+iQlmS7/E70p+IGGwYkWZNheepQcli4lRgN2g6DyTOXSbr5FgAF2pmopHDLJGobjj5RiPvELogvUBiOmASNEHaidQGX76qMpkNYSowF7zjTKVRD7Odwx8y4EcGYGdlec1547vE9LSUn6qr/ckROoDRYLBxCdHuw7wwa0W0GMBioMoh9hSeWT02+PATEscPvURsDkdSiL+UDISOa2v0q7NmAbTfGLjxZrJjmkNWm0RgjCoZ+6t7Ho9Qd8iwF3LHC4+A1fRZ6seLi+SCmm3b+oLw62bz6gcBjwrHBcquObo76GIDCawWjrzrlNvIpx59wmLrqyG4T/Phw/HiMwSJgqSy/7h/78gmRmjZkoayAO6qeaq/NjOry383gRo+e2iVs7KoyS3cP1ISqd+ed+AtPo/w3UTqK1/aZfEMomDdQuOp3+x0dTVumrxGiiXD/12w6DsO30ocUePgQ5W7UMnDvFd+jM4Z/dlZJ0bB+B0Wm2vw/UDpPBAWvI70LJ1KVpzB+J0YbDME1s10/zXWlK942mGC3NK3Cq8uH9R9J/GUmv7tt2xf2MQO2kJJPSR7SAtP11oHa4XzIqtaxgsOdMS0Bybh5dMypitB5f1yuGXiAfad+lFM34F3R7sHYyijH4ib4TtF0ak9QnSFxGOX/fPYy5CS7y51xJET3v29KcgQt4j9MgpsKy8UTS9/37F2uCtcV9EH8oWxfaQQf6U4Jv2PXTFtgNQviwdB50twb+fCAMwzxteXCsbBE4DCIskSwIR3+j0sp/KCXpC/5QNipwS3gOCfYTbQrlBOOoHLwOBRiCHjJJ4ZBRCh/XpsJIIzDfJya42rQcqszRUGWWcSFuuPuMkRaGv4FeF6eW/muoh+BwA8tfOc4jxgKQsAtsIrdzh2V6JPJcdRLcv7htSEJ0XM+Gyw0UsLvjwLlTAkfL53HXjYQgg2HguoBhbSinF4OV8kcVSNjF2t5TKteOpMARei4cMvY+2biB1HYy+Kn5+xe3QlPRHHAYcKTJ4Agzl7sOXg+vy4cgUpKh/aPjRrBIbGCEJaVsvyXGmiB9dvNEGpx3q6ChcCbO/3DKmQjtV3WPj4hrWVxegWtEY+Esrj2+b+B1+BAE99mlFPOZn2hLsLZYvvevR91Y0yLGqiCtA+ycSwk1BbEcsa5d06F+32zuJzeCCmK51wO9lw9BZBQtHlAKeT14W+Yjf8RWT/CJ1OzD30ze4f5Nsq5mxmCCtPrtUuMyOFnxJhw/uID7ib8P9p4+QfA+eD/VtvoRHYALBTKK2evPUx7g5lOgdjFU2ffwpIlfkFXEaGJpZs1PkzNrFmkyWWuKzn1bnckCGqmv6wxVkNZhWJ8g2py6rr574v2xH9if5PeqfxJOP6Myil7GjyH4R4cxWFuZlvlzKKWVsGHJlsqX1ZmsPEXnbkIiqNz6zq2lZ7359a1QcuZzqGjxgqsVOMLOs4kREeS8P8rC+1Rc9UDJ6c/BXHcTNpec8ZL6+i71jhof9i95B5uA/R2pz/ip2v5dQtI2JZSPR2MmjwknESks1td9V53JbtDo2IdkTl1X5sGLPiQCSXmWVZRkQKU5Bq40JYdVjCtNydx1K0pXPPO+1a0AxSc/g+1lF3ypObXd2N/kHez65Ez3d4brO1e5JZk8KUWfDBZdibX0t/r35Sk6Mt+Eqtpm+6o6s2a5Wsd2Ljc2dVrqW6HqRk9AIfrtRhdUlK4Ex04pnHAu5E6gt45ACHw/XseRK4EKehV3/cH6UHm9B8y1NyA9r7ET+6/ewaahP8PlItiJRkQUxSx4tN9um0qEG8m6mt9rstyXUvV1XZa6Vqi+OYgIT5kPDtWXgtMYC5WWWDjuWAAtH2qGJERLswaO2xdw78fr4PXwukPpR/UNHxjZ65CaU+dBf5K3uwPud4wEfXUuzNLDOl3FWa3PqzPZDHUm27ONOeepaPEMUYgnrOUBHHIVgLNgDjf3VxfEQVPxa3DcPh9OV8q5EPcCq+J+4u/4d3wd22F7fB++H68zkn44rnTD5pLTXvQreQe7IiMDvhQuzgaWVcL6fScYQmp0bEVqdm3XnuZPRibEM0ZM9ZmzUFlbBBVlG6HCmgDO/NngNMb0Em+M4X6vsMq517Edth/qiBjMChpvgSar1qPWsU6NgQ3L/0zsq+5iyButZX4etoVbo3MfTd/Z2GG70B5mMcaWMeceApXb0KXJYk9p3mdH9I9gcKOq/3MjFFMWPjGy3BdXF3zY4bzSzTthrlEw+6UuWGVp7kS/RxKFyUj6rf7cQ0sLwjNNZbmPrjQ3d454vRhn5rzaDSvMh7s0We6Tw8lZsFyP277+taM5WFgc2gWt1udxzVhhOtyBneObIBcfI+VyFyzvDY2dQ13ocXNLRjLFuHYEO4USMpJ31KxM0bm7J/qa4RrE0P+UbHc35lzD4VFMlv7TiEcH5hnJmWyP9cinvBPiGgO2+/BtrIv1RCpPCYoM64kXNDr3xW22c918E+EaQ7al5IxHnem+NJKMfljAoUnq6zu+aIu4axDDYiVWkZMy2dH7FmyuUKhjOzFB4psA1xg0rBwjPyMJhYcErNouNzZ1YI2Hb+ddY9CQl+XGpnZ1JvtWxMXAWBtL0riA8e24awxbQcMt0OjYB7gLGlFBcHOJ1Nd3Vk2ODggmSNVNH2j1dZ1qXc2bERUEd9KynZd6+H4CXePAshwf92h0tY0R3QPH7U0srPHtrGscWOnZB4B8perqfhwRQXD4UYaGDr4ddY0jS8ttaE/KZMNyhvgpaHSs9X3beQ/fTrrGkb3PnMddxr0RESQly902mXvAkATJx2gry90WdjEwfMNjO/TZyfXDNQRBSs884M59hf0wHp7wU2eyvslwF4Yc/qoza3yaLHZYn+4NCM0ONp401HfyPSe7xqHhSUw8thr2CGulqfkh3865xqGtMDU/VG9nw/s/QZIza5LxXNJb1mPtk3ZsSBwgb8hfmAVx/xGLipPGDosD5C+sgkxiEpMgnsb/A+dZ2ImXNeNCAAAAAElFTkSuQmCC;" vertex="1" parent="j9JfCKXNSG1rssrYbunD-28">
          <mxGeometry y="200" width="80" height="80" as="geometry" />
        </mxCell>
        <mxCell id="j9JfCKXNSG1rssrYbunD-7" value="" style="shape=image;imageAspect=0;aspect=fixed;verticalLabelPosition=bottom;verticalAlign=top;image=data:image/png,iVBORw0KGgoAAAANSUhEUgAAAGQAAABkCAYAAABw4pVUAAAACXBIWXMAAAsTAAALEwEAmpwYAAAN00lEQVR4nO1deUwb2R2e3odaqerdbSu12kpVq16qVGlVVVWlav/YXttWjdpVq7ZSpd0e2rZZPIcJYJJwzmVsTIy5PPNmbIwBczkEwp1jAyEhB5DdJGTJRUKyIdkQlsMGv+o3mO0EJSGbEMZ4/Ek/Yb03Nu+9b9773vu9iyBSSCGFTY5CsuLjPIV+yFqk3/Ck9OK7MZZEW3ha/pH9P95PGJ2PTQ1M4PdwlPQ7gUEdHImiHCnjIqsv6syqiRRn10aKs2qizqxgpNgWnHdmBhaW/9bMObMCs86s4KwjIzDnzAzMiFZ1niVlzFHyosAogxwl/yW4Jfg+o/O3qcClVf2Ao5QhnkLRmrK+KCpqw12Nw/hE/1XsyWvAY6PTuLa8D/c0jz5UWHfTiBbuyKjGAqMs2hn1DS7N+xOj87kpwFqkP3EWecFf0vn28OA1rVDX00aPvolrK/owR0qxogx1q9H5TWiwFvRXjpQW6yv2LbbXDr3zho8MXseHOs/h9QxrQocwT6GYM6sm0+h8JyRAtDlSXmivOz4HTQ4UIhRgT8soPn3iFn4SYS1qP2hLjCfVXxid/4QCiCxLSsP+ko434e2FAhsbmcYnB65qhfgkw6DG2NP9t20274eNLofEaqpoNKu17+9CrNcrzJFZHXNlB7cbXQ4JA9YiHawt67283gL+sNZacwQ7M6unjC6HhECR1f85ziIvHe45v/SkBHytsOpdXRjGOYWk8nXC7ODS0C85Up47O3L7iQr4WmEl2UFcujP0CmF2cKT8d0dG9eRGCPjJB4RVcWFcltdYSpgdrEXOdGXXTGyUgI/dJ8zn6sCegsZmwuzgSDnbnVN/3ihBH4ub39WJy/IawoTZsUxI6MJGCXjtfcIURzv25IZSNSROyKWNFPDT9whTnXtxWV6ogTA7gJDS3NBlo0XdV9yB3Tn19YTZAYTs2lE3mQii7s4JBQmzAwjx5DVcMVrUfa4O7NpRGyDMjjghV40WdVTUhl3ba32E2aERkt8wabSoK8527MoOKoTZEa8h140WdbV4L3bZAhJhdsQHhjeNFnW1eC94fKsIswMIKStoumG0qKvFe3FRZnU5YXbECZkyXtT3YPs2v4cwO4CQ8sKmm0aLOnK0YzHdv4swOzRCCppvGS3qinMvFq1KMWF2xHtZd4wWdcXZjnlacRBmh1ZD2OZpo0VdcbbD4jmBMDuAkAq2+Y7Roi7bWzFrkXjC7NAIKWyeMVzUi/YspQiJE1LJht82WtRRUdsiR8ocYXZo45D8xnmjRR0VtUVShLxTQ1rmjRZ1yb5nIUXICiFceMFoUffy4XnWIrGE2QGEVHHhiNGi7uV3zyYlIbAzacVYi/d7az3PkpLDk9e4+GrHGDbSyvIb53iLtKYvC/KkzyOR6IA1sism0MrBNZ+3SL3673CGmnRgrfRCnvTfIRIdkMj+rnM47DsMvqH+h3g+u4oPx4wW9SohPM2RUuFa6YU8Qd4gj5uPEEa5Axl4kPEUuuwVdhtKxtjoNK7kwos8hSbWSi/kadMSYk9XY/D3QSYJrdgrtBpOiCS0aguu10rvSp42JSFF23wx+PwgC5b1JgQhsrgHB9xdD0wrGORp0xIiMsqaQiowSkIQUlHY/FDCD3navITERd3OKOc66o/jvt2vYZ6Wb+ufd6T7ChODkKY3OVLK16eNp1G4QTqAj+6/qBU+HM+xKUW9NCe0UJxdExUZ9RCEiYxyviN0Ave2nMIChW7qn3dmBLhEIKS8oOk6a5Hz9GkTaNQUqtqPhw5cWq7NW8s/CXmCvEEeNwsh2SsGu2shTGDUS50NJ7URsUCrN/TPO7OCwuMQcvbIJB4pr8MjFfXa58dosiZXE8JTcqi+cj8eOnhZIyTXWvmZ5cMN/p9HYjNCZNTLnY3DmoeVp5Xr+jiXLVj0qIScPTKJD2/5Az7y/K81G9zywiOTUp7fdJW1yLn6tHEUCtZV7MPHXp3QCGEt3s8TyQCRUa92N4/grqYRLNBoUh+3a3ut81EJGSmv04iYFUXN4DPUlEck5MpqQlgL8oPj8fihK/FduhVPEckAgVauQ+3oahjGAqNO6ONKdtS5EoEQT17DxGpCeAqh2rJebRILCOFfqfoykQwA3ehpOYU7G05gkVEv6uPcO+vdj9NkDW55YV2aLE9ewyWOlHL0aeNIyRv09OATA5MaIfm09ytEMkBg0M3e8CkMPS3ocenjPLkNnscW9Yr6xxb10tzQxdWEsKRUEXB3x4YPLxPCWqSniWQAT6FbfeFTeG/9cSxY1XF9nCcvVJEI3V5PbujCPWpImX9XV2zk8LX4IBZ9jUgGiLRyDTQEeloCo17Rx5XlN1QlAiHunNB51iLv1KeNI5FPL+rCVumLRDJAYJQL2sAwfAq6vbf0ceX5jRVVCeDtLc2pH+dIacc9R+q6gSGRDBCtygC4GwZ6xjFLSjFha/AjK3FlOfXbS3NChhPiyKi+ylrQv+5KN6O81hYcwgfbz2KORBGbzfZeIhnAk5IUcHctwXlYyzOJVd9eiXNnB/9YlO7X1kiNGUgITyszHCX/Vn8qKk+jt/fvOY3BDydY1QtEsoC1eKnS3NAsZNyZUT3PpaG/rcRBu8xRMj6676JhZMD/Xt2t5dKUb0LYycPXcLC8NyYwKHmO3eDSpB9zpByD1R7+ks5FnkZ37XZ1ZQcnWtQBwwhp8B68wlmko/o0sRbpH66sGm29mHtn/SxHSjSRLLDZPB+FNvhA2xkMLhSBUaZttuAHV+KdmUHGsc0fe+3Y1IaTAf9TYJQ7rEV+WZ9mgUF9UDPizWwMDukkkgnQYwm4uxdfP3YT8zRaZC3y8ytxQI5jm38q5D244YTUVvTdYC3yOf0LIv5X+QJHyksDXW9o3gWeRlNJI+j6A5IFqxqBZivg7lkUGWW/Pp6j1Od4Uo7BnMlGkdHTMhqBc4J5Cj17d1rk3JIdtQtwyl0F2zzPU8hNJBvgGFaeRm/BeGTowGUM57ELlPcZ/TPOzECGQClLG0FKT8voEk/JMMmUpk8DzAoKtDIDjlCYKYRuOmuRvkMkI2ACqCQ7OH92+C2sujrhcPwh6F7qn7EziIZjwGFA9iQ0BX6zvnLfHNSM1WRoaSSVYld27cKZ4bewr2RvVKDRXTU5qZDHyJ/iaXQHfFrQnRQ0LZFeWv0cT6FnBUaZsKf7o81qPz7Sd/Hxxikj09pvNCv9S3BbAkei8dXNFKCQVL7Pk/ISdD4Gl7vCMbjqgkhmQPfRnq4uQO+lve445km0UEDJ31j9nOdFzwc4Uv6nyKjD2uieUSMl2cGZcrZlupJtuR23mSouPLtiXmF3RIqbV2hd9PLh6K4ddQsio0bhN0QGnYTROPz26v/nsgU/JjDKef+u7sWzw7dhjn2ep+TkP2EOCoOnlRHF0R6BNxc52qHpGofaQ9wHBZTyJZ6UfgVjA/A3sRa54GEMngVS4bvwGw866pyn0e7i7GAEeoGtgcEYTykzD/pOUkGg0XdhXNJeOxR7/fhNmByKCAw6CjfpbHRa4i6SMnu6PwJz5+Bv4yl5ES5+IcwEyDC017AVADbQlGyvjQiMeoJ/xffpjUqDzdbzfo5SVGjSDvee12YG7em+BZ6SzXnEBk/JBQKlRPu73tAuWinL1WrKBIjrRhxxLljVV4u2+SNH9l3SOhnFtpp5gVG69INE04En5WKBRlHo2Zw+cQtXu7thoBbhKGS9l/iuB+BuK55BU+UFTREgAtZdFWfVgIgfADcPYWZAG85aJBu4KloDgzEQergzyr7NFxFp9SzczLZ6rPI4d1vxtNLNk2ipSenHMNaAF0Fk1AhPoUb9PI3pwaWhP3AUeruKC8/DW3vq6A1cV7EPnHrQCzvDpXn//aCe2P3geNnxoUJS/r1IK7BTK6Y426Ig3lAbg+V9cPvbEvTGks5XtR5gLdLTPI0Oga60qAOaux4WGMDb7MyoXoBrLUSrOgRz33A/IZeGvsWloc9C0wa1CKZY4coJLs37c228wygdHIVAF6LBst4lcIWAfwoW7BVl+OcFSrm4KfYJJkAT9meeVq7Zrb6FRnQoBre1wWCtv3scN6sDmsNPTPdF7rvFgUaLpXkNc/WV+2PQJL1+8pbmMgEPgcsGWoHmYF1uqol6l00Na5Fe4hnlHDQ1QEJb8BiGHhGQAy4R6JlB8wNdViALVqlr5I0sx8PWZ1jpojjbQSNgYmwKmqeN7FonJQTK+wxrkYsEqzIe390bLc4KLrhzQrFKtgVX8bsx7FOELWmevIYY3ARaZPVp2wV4WrkBYw24OOZJ9dpMjUKy4qlCUv6ZSKOLxbZArJJtXtIbhPG0chk0JnWF0QZCjO9kWu3Zfdjt2CmkCEluiKkaklgQU4QkFsQUIYkFMUVIYkFMEZJYEFOEJBbEFCGJBTFFSGJBTBGy/oBlm3DeukArk7BuilvjJB6elKMCLc9oRqElu1XFjm3+uwzCNM8uJd/Rm0grUwLju3Ivg8NxYE86zK8QZoW2yIBRxp22GlgO9EgHVx5oO62dMPQoBpNUsLIdDC64r+RaokA4T0ovEGYET8thd05IW5i20VsQxu6z3LQ1MKjVQtN5icGFDk3Uoa7lc3MTxkbgmKbmCE9JJYSZwJPen3LU8hY3w0kYvdtgax3PqMcJMwEmmHgKLRld+GP3MFgALlqVM4SZwKVJz8HO29ryfQlnVVzYjISgr7IW2ZOoxpFyltFllEIKKRD3wP8A0EaFWfP/yCwAAAAASUVORK5CYII=;" vertex="1" parent="j9JfCKXNSG1rssrYbunD-28">
          <mxGeometry x="80" y="200" width="80" height="80" as="geometry" />
        </mxCell>
        <mxCell id="j9JfCKXNSG1rssrYbunD-8" value="" style="shape=image;imageAspect=0;aspect=fixed;verticalLabelPosition=bottom;verticalAlign=top;image=data:image/png,iVBORw0KGgoAAAANSUhEUgAAAGQAAABkCAYAAABw4pVUAAAACXBIWXMAAAsTAAALEwEAmpwYAAALsklEQVR4nO1df3AcVR3fCiIj1FF0HBCkAyg6yjiKig4//G1FOoMoU8bRccA22b2m1dZM09zuJb229kfuvcvtbpLSNpCUQrFpKM2ZJu9d7G+KRZ1CAa0jCDhWSgfa3nvXpuR313l3t3d7+fn2fuTucvuZuT8y897e7fvkve/v7xMEBw4clCCkGu2z+f4NDuKQ5MBdojvwnvm3gzyiTFEfkWRtSJRVwyEirzBmiXJgvSirl1bqTxsOIXnEw17vlZKstbkUfWhz+wGjteOIQ0i+ULEcXCsp2ktLvI2D2/YcNYKH/+EQki+4ZO02l6y/U7m2eXBH6FiUDIeQPEF0B+ZKit4r128b2rX/5QQZmRASwL3XAUTntrcbl+XmV89QiO6AWO5WR9Zt2nUpeOjvKWRkQghAZBnE1ACIvAMwDUB0/gu5eYMZgvnz2y8T5UCjKGsjDdtDY4jIlBCI6F5GiPkBiFyCiOzxofC3c/NGRYwKb9PVkqyhipqGwZaO5yYkIxNCfMEzswEmj0BED0BMRlLIwfQI7Ip8IzdvV2SQlPrrRY92YumaTQPb0V8nJSNbQt3fHbkVYtoMEelL2TGYtMGu8ByhVCEp9XdIHu1sVV3rYPve41OSkW0tC3T1XgsQ1SAmA5Ydcx5i6jIMY5ZQSiiv1h4UFbV/dUPb8O6Dr3KRkSu1tz5EPwMQfXbUMba/Dp29QSgFiIq6TJQDl0DLHy/xEjEddgjsjvwYYPp2khRyBmD6A2GmYr7Xe4Ukq08yN8iW9gO2iJguw7A+RK8BmOxI7BZEhgAmlcJMw0Jv/TUuRT+yZGXjgOkGKURCTPgRFVNlC2nweo0PCDMBoke/xaXob/1uXfNAW0/SDVLIhDD4UfhuiMl7yd1Ctxa9pc8CSi5Fo7Xq04PPHuAX3tkgBKDwl7wHjcsz+f3+0PnPQ0T/a9kpTxXtTjEDSus37xoZzw2SS0K87cYVEJGzENFTEJNVTDak+x7+0LlPQ0T+ZdHCVKG4YMwSFW21KKsjDU9N7AYJ5pAQgMhPR6mxEYDI75nFnj4pyZ0CEFkuFEtAyaU07Kyo0ad0gwRzSAhbeGbgQUxfGUXM2xDRn6dr4QNE3o2rxMMFrxJHA0qyfnzp6k39PG6Q4DQIdWZx+3H4fojp8VHEPJPOMeYPRe40tS9mpxSsqyUaUFL001W+loH2vS/lhIxgBloWE8QAUwkgci557NCTvm76NbvPAogushxdfy44zSsWUNIurmlsG+o4mB3hHcwyIVb/FUQEW3bLRYDpfLvPYdqW+Qw/Di8VCimgJMnqMHjcvhskmAdCzGMMIOpOuuHJiA+RBXaeoXaQj0JM/5cgFdFbhHwHlCRFbcrEDRLMEyEmAA7/hC2mJWC10Nb8EL035raPyqQOIZ8BJZfSgKNukM4Xpo2MYA4sdR8O3xN3uUc1J383ecDOfIhpu0VRSE/rWuCBc0S36lvkaXiducDZC9r9/GbVo0Zbz4vTSkYwR64TFsY1g1UA0d46fO6LvHNhD7nJMveY7ThKuTuwXJTVoeUbHutTt3UZzc8cMh7ffdjWZ3VTm1ENtk47GcEc+rIgpg+Zxw/E5J9NB9+9mnsuor6kgKc/4v5SSdaAy6MNbt65P6NFgS2dhhvOLEIYICYbLMfPFoET6/dGPs52VtwBeYBrUrlbvV9S1OGtweczXpRCJQSi8MOw59xtQppgjkiIyfOmkPeFyHd550JEmkwyfZjcPsVwY5bk0d+sa+4YycaiFCIh3oPGlaZwZovqR+T7aSdAmDIBkxO83uJAF705oUYj0jTpYFEJ3C7KgawJ4UIkpB5Fvsm0pFT3CNnBMhbtkgIwrU08o5uU25i3P767zunI+NDEhLgD4m9XP9qXrUUpREIY6vaGbwSIrEvulOiZforjCEmBt/PUh83YOnOvbDlmfJBnHsSRX1niJj+bcKAoqzVVdS0znhAT9XvOXg8Q2WnxWfWyBAYhTX+VH9Ff8hJpGposujjhwHJZXbXCVzqEmGDHDUBkMK41vV8XoncItnYJORM/+l7gnQcx6Y7vkNMT2iSlSgiDD0XuM0lhx5cdmWJVg3048jmeOQDTxcmdRb4y7qBSJoQhmtObdJfvFDjBMuQtMmGVjTRV05ZZPO6gUieEASCyKbFQIXqvwAkz4ggw+Ru/Jzkec5lIjjiECIKOzn4kkZWI6Iv23SJkxN95/hN2Sh8Apq86hEyCeIzdVIe/LnDAH6I/TB5bkXl2SGSya9xoorNDYoA9p68CmJL4AjcLHNjQRT9miXnU2iWeZauMGeAQkgRzGsYX902BEwDRt+LHVhvPeGbzJC3983eNGeAQkgRLAZr0v3cSlwhE5Kht7Wy8lCOHkCRYzYddmQAwfcJ0o/CM9/3pzKcm9YU5hIxOB4o7IUPk1wIHYlVW0WOO2EiAMO2eZWMGOISkIpnRTqoEDsQdllGtiWc8c0YmLXyqjBngEJKKhI+KMz/XIeRw9i11E8wuMI8s5lLhI8Q5soxcEeII9QLxZWWi9saaDcTyePnGO2pvTg1DiOh/HMPwcG5dJ7xpPtGq3ES+Fq3h+h7HdWI/LMvrXGQtnRIqLIrcxzkHOM5FDvd7rN4wql39RUjD/c4S4njmAEz3xUl8ZdwBjh0ipASo7KR7phWgSnqUWxxCxgFzkTgh3AIJ4UIcmZdukgPAtC6xq7ojt3J9X4guSZDfRb487qBSPbJAHtKAACZoyjQgJ1GOXrCT2MAAEa2wJEX8gmtOz+mruBLloqmkqza9P9N3COwKzxmdSsoSGybMj5psYeMaGWsWkP1U0lJNtkbkD6zq1g4Z0YVFdGVSIyNlNuYd4Eq2ZuUIrhrtjVIpRwCsqWU3+Z6QBliGorUcgbcGnVXhmuUIAJHGKSc4BTv2C3YgJt8ROAEw2ThlCuloiIrqc0ra+NRcOyVtsOfCJ5kWF5+3T7AD0a1WSrI66BR9jnXLp1v0afqu4okQcwW7EKu1G8vlQN0ij/6aJKt96ZRFr6hrLSgZkgnY0QQw6Y8v6AU7bchZKZtl7jEhHxCVwDxJ0QZZO42OQ8VNCOwKf8vaOIB1d7A1H9FdFtmRVl1jVlDu0e+UPFq4Jkut+4J5IIQ1OTPP/qiGxJkWNF6GIsR0t5BvlK3Qb3B5Gk5Urm3ut97xUeiEGIYxC2IqJ9TU6M7gS3iw5l5Zevzmv/lMSiN9j44W1zYOPNF5tOAJCeDe6yAmPZb/7IsgRB6cMe2Zkpd2qWskWRveuGNfQRLiZRmLsYhh2KIRnfT30K/afZa1bI3ZLQXbpbS8Wl3A+qjUNe/OWhfSYDZa/HWTBwCiL1vdKqyLDys1sPuOLJu9KFr8pQh7RSe5EvatNppgsh3BqphS/Fuxc/+htN0q8TTUaCunfGpVdlDmabjJ5dFfr1zX3JdtYd+aQZtYiMgaOwbf2KYE9GTyeUXWD54J+0UeDS1e2dSfTWHfmkYjZYCoN5NGylEyMHnNkrFSLxQjWBvAcjkAsinsW/PQajxlZyDyZNFf9iLJ2sJsCfvpbMYfteLZLktqZa0F1xI2k6b8UlTYbx/IRNhP53UVieSI2M7Qi35njMYid+BmSdH+Xbk2fWGfa0JYMlz0cjDLhS4FaPhlDwuqfLMlWUcVtekJ+9y2+IvMG33lUdGothlfIqmoPknWh+wK+1wQEusiR4Oj1OR9rM2TUEoQqwNl7H4RO8I++9fmET1FVrBrLTCVZpy84IVYrd0tKRqpCWzv5xH2WblYMqbKPmYGlswYOstS4S3imdEQPfotvMI+o+z3WI7vIUu9h2noPWcnq7EksKDKN9ulqHgqYZ+ty4lZLARg2slsjdy8UYkI+9YMr++Ou1L87NjKzVvMQJTJavlEwt654L7AhH3rNLpOHIx7IaX2RuXaLQlh7xBSEJa9Flpc29THhL1DSAHA6/VeLsrqRpeiDq7fvMs5sgoFojsgirI67MiQAkKZHLhHlNUz+f4dDiwoc/u5CjAdOHAgFBH+DyAya9U9j3bAAAAAAElFTkSuQmCC;" vertex="1" parent="j9JfCKXNSG1rssrYbunD-28">
          <mxGeometry x="680" y="200" width="80" height="80" as="geometry" />
        </mxCell>
        <mxCell id="j9JfCKXNSG1rssrYbunD-9" value="" style="shape=image;imageAspect=0;aspect=fixed;verticalLabelPosition=bottom;verticalAlign=top;image=data:image/png,iVBORw0KGgoAAAANSUhEUgAAAGQAAABkCAYAAABw4pVUAAAACXBIWXMAAAsTAAALEwEAmpwYAAAU1klEQVR4nO2deVRTWZ7HU93VXWd6emZO/9Ezc6bmzJwzM2d6prqnZqoIolVWWSVJZM0LIIv7Amq5CyRA3svCJqDITt5L2DeRHQQSQFQ0JKAoluCGS1lV7mVbUpbKTn5z7kUoRJBFyIvV/s75nhOS95KX3yf33t/9/e59cDhv7I29MQszqfv//V5KWNuShJUPSVgFYgm564NEHzpJnW3+ge3r+4swyvWDf5UKuaEygnuJJLgmkuAOKlxtukOW2nSHeizoUrjO6yIJ7gB6jSKsOoIIrlhpN+9v2b7un53JhNw/UEKrElLINQW72XTHr/0c0rbYwf5dzpDvKxwjZ0jfYgfoGIWLdQ9JcB9LCatNHA7nLba/x2tvSvf3fi0luOFSwmowzHNBT+rmJeMAmFj7fZ0hydsWZCLrPpLg1ijd3/st29/ptbUAl3n/TBHcNko0r1e9UTAtEPljlLXNEZRuNj2UyLr1DZQZmNT5g/cpgvsgzOOj3twdjq8EI/+ZcnY4gcLVplcq4pY9G/TfdGFTMZmz9R9JIbczavnCvvHHiJkrY6s9PAsGgCSsBkgR97qUsNobJLSymckP52dvSpf3/54irG9HLkMwZg9E/ihlb3eCzG32kLrZDhLXL4Zwz4+6UbAgI7h1qGWy7QOLMaWS8wtSaGUMcZ/fmzfLLSN/EmVudYDIZR/3SgluP5rLFLm7/1IVZGtNk7Y71BQvO0UhaGFk/D8zFO8JTfIGaZLXr5bxH6plghYVyQtjAgX/y/m5GUlwd1Ei677s7bMzZuTPQPRmHuzb8qmJIXk9NMmD3N1O3TXqFaamvA3QXr4dLlX7wrVaMXRo/eBMyVYw5HjDgT2ibnSsmuJfVUkXizg/B5MIP/gnUsTtSfa2ZQVEttgRUik7oCkeHEz0gPaybfDwRDA8PbN7SrpvkMPxzHWDDMUb0MgEjQy5+F3O62wyETctxG1+L5rUmRNEnp8zpJF26NcNxzLXwXcG+ZQhjCd0fkmMWy/qzpIp3kLO6zrfQBM/zaZXm2tMV1liewyiKtHrlUGM1uPWcDiasQa1lh5auvgTzutmJMENUy616dk/xwCS1ttCyqahmX5GoANoZAJoK9s+ayDGqiFz7SBD8p7Sss//wHmN7C1KxL2PnDWXMHJ3OILc1QZIwhqSfXmQFmwP3xwOnDMYWK3hUJnk2aeW8S8nbLd7h/M6GOn84Xw0SZvryGrfyk8h1mcx7p5SFXZw+xg5tzCeqfNECKQF2/XSpG0uTS62p4Mcf8exZEOJw1APNJjPHQxmAx8lF0Gf6Q0auQC+neuWMUYoVC6IFnVrZIJ+muINMBT/oMWOLaTI2hi3+rM5g5G6eQnIXeZBXdIqSFHYQWvxFrPCGK0nreHwVZ0EdKplfTTJMzGUIDVZuei3ljUzJ7jdr5rJnUiaTQI8blREeYGOXg6lcUtxv84WkNG6cSQIMkMdejVyQbNG6fQbjqWEu2j8yNzmMKsg9u8U4uIU5WIN9QmrcRfFUHy4Y6ZxY6r6s1EBOeHOPWqKf5BjCSYlPvwEZV5nK2+FkpGotYV6LoCI5R9DW8FQSKtVLQMdvYx1AOPp5pEgYFBuLIgnZJsHRyqy9kDFp1eBgGCicQK1iBD3+aBws4HyCE/obA7BX/hBkwK3jm/qA1h3/kTSZ68HtYx/A9iuzwQJuesULvO6pwMAhce0Dx9iVn8GEcsW4uiJEnEhzvtzOEqvg4fNz+efThVuhtzdzhYzdkyUB6MpnimZ4n/KKhCS4G5Rus3rmmphKWrFJ0AR1hDiMR/S/RygNm4VnC3cBt/pJ057VCR6wPGsdaw7fTJVJHr0q2W8NHaBCK1WK9wmbyEoA4xaQVagM1yu9Mfh41RzSikKO5wqN7eDf2gJhapkL6hLWQW3jkonPb6l8AtIkQtusQtExLWXiaxfOoYwG/kYxonMTdN2yp3jFKA6xYMmpVlhfN8cDMUxrpAX6QJV9CpgZHxoyFgLP54Km/Cc6/UBQJO2JlbnJaTQmovC3omiLBS+Bi+1wV3TTBzTofWDVMUSs44fKMTODneC4lgP6LqQAnA9F24a9kLObiGUxCyFzpNDwcZYPToVhn48JhX1+Ues1s8REDQ+jAcEhbDKpTa4+c/EOWeKt8D+SKFZQKBu9ET+RhQtweHMjdB/JRPDGNbT8ylQEO0G5fEe8Pj0+D+QVIWgj6b47hw2DS31QVHTeED2rV4EmRKnGTup5cAmKNrnOucwUNa4OMYNZ5AvHwp5DsRoPW5XQ1a4MxjzfMZ9n6xQhx6VdLE3q0BkhHVdzKpF4wLZs+ITqIj0nLGjmvdvgNLYpXMG4nYDCTXqFcBQPKhL84HH59QTwhjW1fpQSJEvgXuNL0aG+yOF3clSW1/Wi1PhHgvGjbQily8EXczKGTustXgLFEa7zCoE1H1erNoFFfEeQFN8qEhcDneaYyYFMaKvcqAkzgsaMta88N6F0S7dKpJHsQvE2YpAq9X3T9BCDu7xmrHzzlfsGJoUvuSYx6fD4OZRKV5Jghx9oXIXXNb64b+Rrmj98IKHxlxvKItbiku+qJ5yJHMT3G+JnzqIUWqvIiE92A6etI5pIVHEU4bkbWMXiOP8d3GCceuLCcbolZ9CYfDMu5xrtWJQywTY6eMVjo6kr4E0pR0OjZHSgx0gPdgeCzkePZeiWALZ4c5QkbgCmgt3wS1jNAxczZ4RiJGx5Jwav/ethufnJxkhDt20dLEXq0AwFBH3EZpvjAUSu+YzSNlp/0rzAZrkvZDlRfMSFJoWxXjAtcNhOAJCXcmrOHm6Qj+Ucwd3PtcVomtlpPyP2ebBoUTWHWhJ51ggtA8PIlYsfKU+PzvcCS9oG/1ceYI7HExaCQNXs8wKYbRSFfYmNDsfvqbrhyTASHmDFlEboUTcw7GrX4y0MocWRsOfGxUzBqIdk3r/rlGO0t3w4HQiazCQMkIcBtFqyOHrMuT6gEbB7+BYglEiq4Pjhb6ovoHS6S05m2cM5GzpVsgIsR+ZrZ+v3IkHZTZhDAMZPR85sFfUqyJt93EswdCmHFTPGC/0jV71KWQFvDxSepkeNClxeDq85Ad1ExkhjhYF5NlYZ7KI8UO5aNHbJMF9OlFdHdXFUSn2TgM1YygFe0VwOG01foycYBlAHEdm7CijoJbxO5VK5S/Y5sGhCKvPUBl3ol1SaH4S5rkADs5wxn4ifyOeSaPw9dGp0CEgoRYAJPQZkNZwPFdSUXwTTQmC2ObBIQkrOtzzo5em4FU+PDyW3D5KTTv9zlA8uFofAmlKezhXvt3igFyr8cfp+fM6Oe62koME/8EajEB3q7+jCKsu1Ybxk4s/yRl2e30Mmp1odhs+rdRJbgSBHYAmdflRIosDUhbnjrPD6LmsMGEPLeVtZg0I6cyVyl3m9U5lH2HGVgeQo2U9iUNjwVR0Mn8jlMZ54S+LahOo20K5LUsBglIxqHV0fqnCzxXt8+iipTx2uq0gx//5HUlYP0bd0VQXONAbeLim3pwxtephW9l2yIkQjjhBn7sNz4YtBQi6FpQTG34uM9Sphw6yXcMKEEporUEbdKa7BUHlg28CAHUJqybtvu4+K+H+2KYeySGhLQiWAgRdy6M2Bv/96CyNrzUpyPY/2YmshFzT8F6N6YrZKMAzeHrHkkm3neVHEXCqRDziiLpUb8jf48o6EHQNtaneI3+3FPuhheBXzA5D6WT1G1JkfWPPyk8GZrr5Hw3waCmQWioAjWxoK9p4reVJazjup1GE1XMpbeiLl/hDRdJK1oGga0DXgh53X0xDq2PQloWNZgdCCa0ySRF3MGva+0GcIdmbBzIXa1PU6oVwvnwHfFUrxlVBlEIviXWDqzX+8OhkCNYVnR/a64dfywx1hPo0H8sE8lUO1KSs79dQS64olYveNjsQqZDrJSO4t0iC279n+cJ+VE9Hm/jRTWLGA5G9wxES1y0Ghdu8XpLg9kT6LLxRx6yA63XiEV04uAPK49zxAoPh2oZaxofyeHe4ULkD2sq24rKpIX87nCy2HCDoWvR5WwcZmaCLlvL/xGHLNm60+hVa10uKuOWk0LoTjQdSgjsod5nXFew2/2mo+4IuJLkrvrUSyETce2hjD1qlopYJmg9pVj4HZFhXdb7wZekWOFuyFT8e/drpwi8gFbcWJyiJW8Y6EHQN6SEOA2qK/8jidusGuXL/jRJyeegOCujmAejOcFKhla/M1Xr5ppXefCepzlZI6tY7k1W74ijXbycCMpkuVe2ErFBHyNk9NFlkUzm7hYMMZVubKl1s2Xe+cwqs/BchpfUTyXS1BKV7LCS1ICS1g27Bh3o8wxue7pWvG6yhl88IyPU6MZTGuKHiEOtAUhR2fcmkLcGxRFukbHhbKK3yIqiaFiFZbVoaXN/zRfIZkyTnKoSV34O9uk6IrvkBKy4tH1KUDnBF+3yXNBVd1vqCRmGPxxi0RootGGheNFSuXfwex5IMpZudg6rWEFTNXYLS9m9IPD2oLLo14vzxtE/3AOjwFVCe4DE9ILViKIvzADpsFTDBLtBRF8wakEu1SlBTgk7W94OMNmep7n0hpWsXUbr+rUwbRFY/eCmI0YopaQNGZg+16pXY0VOBUcOswOfsK22H5Dg5HEobSuixoboUnwFGJijiWIbBW05B1WIhqe1fG93Ut7vi/pRBjFbsAQMwcgcoiXWHi5U7J4Rx8eAOKIlxB1ruCLEFxqFz8+qBkS0ZWm1iZhhPzmmebWGzdWKbBMduu+4dIanLF1K6AXHWlRmBeK6llJ0HVdQX2LnFse5wLHMtLkidyN8IxzLW4hXo6DU6ajPElF4YdW4nMGHLR2bK5tTJIpwi+Yb16qC7b9FfEZT2mGvwoV5l8cvHiempE2IP6CEpIQzU4auBUThhocfouZgDjfiYsefFZxSCRuEAP7YPJffMNZhrZEv6k6W8DezCUBb9WiTTNbgF1/eGlt+bRRivBpLeswUq6XVmA1JFr+nXyAStrLcOIaVLdZHX9oWW3bUAED/81OWVngNGZgdnygPmHMbpMomJpvh9Khnvv1mF4Syt9kYTO3nRTdYBRI+juJxqvEzoct3E+zpeVSjERrtsGSnPg1UYjmTVuwSpe7Iz9SLrjo9+iRKjJXgve1uldNZhnK0MwgstaClfy2HbhJS2ckXk8d7xBlVLUrw6BfKiloJGvgSOZH0BvR3prwyipyMdl2fRLuC8SNc+ldQ2mFUYTkE6ayGpNSkttKuKHgOkJGE1fHcyDvKiXHBG+IJODqZr018Rj85B56IaDNqFi/aQlMYv62YdCEHpqtdEG/vYdnb0NIAgh6K9H2fKA3GVMXu3EC8fengmeVIQ6JjmQl98DjoXvcfwPhLWgaCxQyjVDsoKb8DrBgSGu5xLaXinU3GsJx700SRy8KsXN+qg59Br6Bh07LlqaqRcPCzWgQjJasnS4MM9e3U/vLZAYJS+bohAxSS8MKG1LAC+ORaBhR7vj3LFr319LHLC81kHIqJ0hi2qs6w7OnqWgAwvREAtAbUCVHlENRX0GK1oGdsiLAoIzldR2j7p/uusOzp6Au2pfgDhJd+CYv9lkGW3Q9S+KCiJXzVn85Di+FWmyKjg7yVqY4WYNkT4JxuXShP0vzdfWp3UQmTV1NPp5lBk5X0IPnAFyPTTIKENEKhphsiic5Bcew3SikohReEA3ZdSZx1GF17i44A/A31WRGFbT4C6qV+sajQFaoxX/FUGhVhj+Pc5A0JQWk+RrMYioqu9NT/A7rKbQGaeBTFtAGVuK6QduwGVHY/h+F0T6O8B1vE7A5CxdyUYC3bOOhBj/k7I2LMKf8ZPn2eCykuP8bUos0/3IDgSpskoTtbbcQBmt2gllGq3ugUf6qUOfANsSprTAYEpLSBhjBBffQWqOp6MOGQ8aU+cwDtjZ7r3fDzdOxGH31N7ouWln13V8Rjiqi4PiBnDYKDaeF6iMnw+a0CcSa302cIEVuQi18Hm2GO4RSAQdV/3vtQZo1WQHwtZES5TukXGZELFr+wIVygsSJjy59d93QPx1ZcHxXSjSaI2loiTG/6R8zqbv8roKFEbO0PzzvSibmmqjhjpSm73QXbSdiiI8cKVvZnCQOcWxHhCTtIO/J7TvQ507SG5rb0StfGhP91oz3ntDOAtf7oxXKwymJj6r03HRo0P09Wxm12Qo/LFLeVec+y0YdxtjoHsCBfIpf3we834Ou6agKm/bhLThkF/lSF01seWuTKlsuFtMWNIl6ib+ovOfD9jB+hHO+NWDxQWJgMjE8DhzM3Q+eXkqRN0TH0mKifzoagoGY7fnnpX+TIVnnkAAZqm/gC1MW+j5vSvOJZs7kVFvwxQG8qCUpv70MA4Gw7Qj1LtmfOQnbAZr6E6EOMFJ4p84Up9CNzQ78FC98Y6UegLB/Z54WOyE7ZA7ZfnZ/06UBcWlNLcJ2GMJeg7cyzSAN6SqA1pQSlNfTMZL/TTUF3bJSgqS4Mc1S5IDXcDtdweCz3OpX2huCwd6tovz+k1VF1+AkGpTX0S2phrkd2XP90YKGGMAyien0tH6C1IBy/+iML4AX+60Z9jSSZR6Rf5M4bB/Se/Y91JejMrv+U+yjQMSGiDZfy7C0ma4W8kjPFeku7qINvO0bMk9N0ljPGOf3TdX7PNgyNhjIlk+sneo7d+SkX8panh1gDIM1t6xIyB3ZvV+NPGP6G4vLjtIetO0bOsoi+/B9RtB6ia2VtWhMK+iIKzvWw7Q28hiiho6w2gjQWswPDTGP8L5XgqLjxi3RF6C1H5+UcoZzfol6Q3/952f5UhLiS3tYdtJ+gtTKF5Z8w/lqCUQYDa2Jl38h7rDtBbmHKb70EAY3yIUkhmA4IynqhWcORGP+sO0FuYkE+Qb8Qqg8CcQGIiCtvfdFf3xoeyu6ANVR33mg1IoKapI11/k/Vfo95ClXb8JsoIXzALjO0JundQJFHa3sn6F9dbqEraOlG0NYB8Za7JIBy5+Wb80E8A5PCNPlyyDkhu/OOcAxHTBje0bIbtX6HewhWgbhoQM40ucw+EadwkzzrVxfYX1lu4ZJmnuvxog8+cA0G5/0BNU39EUXvXG7VP6APkI7HK4GcGIMbFYtoQ9UaGSX2AfDXnQN7YG+P8HOz/Ae4fniDQ6PK6AAAAAElFTkSuQmCC;" vertex="1" parent="j9JfCKXNSG1rssrYbunD-28">
          <mxGeometry x="760" y="200" width="80" height="80" as="geometry" />
        </mxCell>
        <mxCell id="j9JfCKXNSG1rssrYbunD-10" value="" style="shape=image;imageAspect=0;aspect=fixed;verticalLabelPosition=bottom;verticalAlign=top;image=data:image/png,iVBORw0KGgoAAAANSUhEUgAAAGQAAABkCAYAAABw4pVUAAAACXBIWXMAAAsTAAALEwEAmpwYAAAD2ElEQVR4nO1cTU8TQRjm7M2b8ehvgCKmdJfwJe4WGzAQpKULrJIoQQx0V9QAJmCCicYEjSltF+PF6MWrF+5OSPwD/ghOxhCxY949kKZ2d6a17WzgeZI3aaYzb+Z9np2dr7ft6AAAAAAAAAAAAAAAAAAAAGgm5oq5y5lSTsuUVgdgq03kIKcRt9JC3M1vXMgWncJMwSnPFB0Oc5rPQcEpWwV3j7gWCkJi2Ptrxy8Odvm7byWeZx6MNY8D4nTnYJfPv187zhadvPA1ReqRGBDCaykHJApxnd1fvRQoyPRerpeGFEaG1/IHkjgmrjMlNx78uiq4OlXC6PDawgFxTZxDEBaNeRGCMPUiQBCmnngIwtSTDUGYeoIhCFNPKgRh6omMnCDPv7ziScviZlZso7Ozob5W3m7ypIQfM2tx68ly3UFTGxnf1AfqS5gvikXKl2X5HLVNkGcfd3hMT3J9bC7UEsm0Xy/M18KWw3uGxoW+4iOTfrD1CkJtqK3IP/WB+hLmi2KhmES+qB5x1HZBDNsNtaHpRSlBEuaU0Jc+NtewINRW5J/6ICMIxSTyBUEYBMEIsTFCOF5ZmEM45hAbkzpWWTZWWVj2MuxDOPYh2Bhy7NQZduo4OrFxdMJxloXDRY7DRRunvTh+Zzh+x31IEHBB5eCCCjeGLq5wDVzh4k49jyQHD0kOyDpxkXWSRxoQ8rIM5GW5SJRD5qKHzEUDqaT/d3RC+bBhFh+ZkMrtvdqfEvrqGRr3M9Trze2lNtRW5J/6IJPbSzGJfLU9t/fl1zd+52VNJK6snxXBzwVqGbWR9S8isZ6YiaO2CQLzmsIBBGHRepggCFMvAgRh6omHIEw92RCEqScYgjD1pEIQpp5ICMLOqSCppwsTxsN5nl5fgq23ngPimjgPFGRw9va8f15zY/IPbLLlHBDXxHmgIN2aocv8IQDMbQoHxDVxDkHsaDxUEMRWL8KZF2Q484D33bJ9G84snQ9BZpYf+RaFMqPCEinrJKaZ5VjfzR++aWaZyoLqRy2OhgQhR0eH2/zocOvUqaoyo8IGpu5RQL+7NfP0j4i7+kYTVDY4db+mGFGLoyFBchuP+c/v277RZ5VlRoX1mumTmG5+qo4hppuf6bvq+lGM40wJcu36xK8uLblZHQOV0XcQBIJwjBANIwSvrA3MIRxzCCZ1jlUWVln/AsteF/sQ7EMM8caw0u7Y06cbNPqssixWZUHL3lp1oxpH6E49HjcudmqjA5WWzqZTH14vOmT0WWVZZ7X1G1eqY6CyWnWjGgdxHigIAAAAAAAAAAAAAAAAAABAhyT+AjCdETM5wqZKAAAAAElFTkSuQmCC;base64,iVBORw0KGgoAAAANSUhEUgAAAGQAAABkCAYAAABw4pVUAAAACXBIWXMAAAsTAAALEwEAmpwYAAAU1klEQVR4nO2deVRTWZ7HU93VXWd6emZO/9Ezc6bmzJwzM2d6prqnZqoIolVWWSVJZM0LIIv7Amq5CyRA3svCJqDITt5L2DeRHQQSQFQ0JKAoluCGS1lV7mVbUpbKTn5z7kUoRJBFyIvV/s75nhOS95KX3yf33t/9/e59cDhv7I29MQszqfv//V5KWNuShJUPSVgFYgm564NEHzpJnW3+ge3r+4swyvWDf5UKuaEygnuJJLgmkuAOKlxtukOW2nSHeizoUrjO6yIJ7gB6jSKsOoIIrlhpN+9v2b7un53JhNw/UEKrElLINQW72XTHr/0c0rbYwf5dzpDvKxwjZ0jfYgfoGIWLdQ9JcB9LCatNHA7nLba/x2tvSvf3fi0luOFSwmowzHNBT+rmJeMAmFj7fZ0hydsWZCLrPpLg1ijd3/st29/ptbUAl3n/TBHcNko0r1e9UTAtEPljlLXNEZRuNj2UyLr1DZQZmNT5g/cpgvsgzOOj3twdjq8EI/+ZcnY4gcLVplcq4pY9G/TfdGFTMZmz9R9JIbczavnCvvHHiJkrY6s9PAsGgCSsBkgR97qUsNobJLSymckP52dvSpf3/54irG9HLkMwZg9E/ihlb3eCzG32kLrZDhLXL4Zwz4+6UbAgI7h1qGWy7QOLMaWS8wtSaGUMcZ/fmzfLLSN/EmVudYDIZR/3SgluP5rLFLm7/1IVZGtNk7Y71BQvO0UhaGFk/D8zFO8JTfIGaZLXr5bxH6plghYVyQtjAgX/y/m5GUlwd1Ei677s7bMzZuTPQPRmHuzb8qmJIXk9NMmD3N1O3TXqFaamvA3QXr4dLlX7wrVaMXRo/eBMyVYw5HjDgT2ibnSsmuJfVUkXizg/B5MIP/gnUsTtSfa2ZQVEttgRUik7oCkeHEz0gPaybfDwRDA8PbN7SrpvkMPxzHWDDMUb0MgEjQy5+F3O62wyETctxG1+L5rUmRNEnp8zpJF26NcNxzLXwXcG+ZQhjCd0fkmMWy/qzpIp3kLO6zrfQBM/zaZXm2tMV1liewyiKtHrlUGM1uPWcDiasQa1lh5auvgTzutmJMENUy616dk/xwCS1ttCyqahmX5GoANoZAJoK9s+ayDGqiFz7SBD8p7Sss//wHmN7C1KxL2PnDWXMHJ3OILc1QZIwhqSfXmQFmwP3xwOnDMYWK3hUJnk2aeW8S8nbLd7h/M6GOn84Xw0SZvryGrfyk8h1mcx7p5SFXZw+xg5tzCeqfNECKQF2/XSpG0uTS62p4Mcf8exZEOJw1APNJjPHQxmAx8lF0Gf6Q0auQC+neuWMUYoVC6IFnVrZIJ+muINMBT/oMWOLaTI2hi3+rM5g5G6eQnIXeZBXdIqSFHYQWvxFrPCGK0nreHwVZ0EdKplfTTJMzGUIDVZuei3ljUzJ7jdr5rJnUiaTQI8blREeYGOXg6lcUtxv84WkNG6cSQIMkMdejVyQbNG6fQbjqWEu2j8yNzmMKsg9u8U4uIU5WIN9QmrcRfFUHy4Y6ZxY6r6s1EBOeHOPWqKf5BjCSYlPvwEZV5nK2+FkpGotYV6LoCI5R9DW8FQSKtVLQMdvYx1AOPp5pEgYFBuLIgnZJsHRyqy9kDFp1eBgGCicQK1iBD3+aBws4HyCE/obA7BX/hBkwK3jm/qA1h3/kTSZ68HtYx/A9iuzwQJuesULvO6pwMAhce0Dx9iVn8GEcsW4uiJEnEhzvtzOEqvg4fNz+efThVuhtzdzhYzdkyUB6MpnimZ4n/KKhCS4G5Rus3rmmphKWrFJ0AR1hDiMR/S/RygNm4VnC3cBt/pJ057VCR6wPGsdaw7fTJVJHr0q2W8NHaBCK1WK9wmbyEoA4xaQVagM1yu9Mfh41RzSikKO5wqN7eDf2gJhapkL6hLWQW3jkonPb6l8AtIkQtusQtExLWXiaxfOoYwG/kYxonMTdN2yp3jFKA6xYMmpVlhfN8cDMUxrpAX6QJV9CpgZHxoyFgLP54Km/Cc6/UBQJO2JlbnJaTQmovC3omiLBS+Bi+1wV3TTBzTofWDVMUSs44fKMTODneC4lgP6LqQAnA9F24a9kLObiGUxCyFzpNDwcZYPToVhn48JhX1+Ues1s8REDQ+jAcEhbDKpTa4+c/EOWeKt8D+SKFZQKBu9ET+RhQtweHMjdB/JRPDGNbT8ylQEO0G5fEe8Pj0+D+QVIWgj6b47hw2DS31QVHTeED2rV4EmRKnGTup5cAmKNrnOucwUNa4OMYNZ5AvHwp5DsRoPW5XQ1a4MxjzfMZ9n6xQhx6VdLE3q0BkhHVdzKpF4wLZs+ITqIj0nLGjmvdvgNLYpXMG4nYDCTXqFcBQPKhL84HH59QTwhjW1fpQSJEvgXuNL0aG+yOF3clSW1/Wi1PhHgvGjbQily8EXczKGTustXgLFEa7zCoE1H1erNoFFfEeQFN8qEhcDneaYyYFMaKvcqAkzgsaMta88N6F0S7dKpJHsQvE2YpAq9X3T9BCDu7xmrHzzlfsGJoUvuSYx6fD4OZRKV5Jghx9oXIXXNb64b+Rrmj98IKHxlxvKItbiku+qJ5yJHMT3G+JnzqIUWqvIiE92A6etI5pIVHEU4bkbWMXiOP8d3GCceuLCcbolZ9CYfDMu5xrtWJQywTY6eMVjo6kr4E0pR0OjZHSgx0gPdgeCzkePZeiWALZ4c5QkbgCmgt3wS1jNAxczZ4RiJGx5Jwav/ethufnJxkhDt20dLEXq0AwFBH3EZpvjAUSu+YzSNlp/0rzAZrkvZDlRfMSFJoWxXjAtcNhOAJCXcmrOHm6Qj+Ucwd3PtcVomtlpPyP2ebBoUTWHWhJ51ggtA8PIlYsfKU+PzvcCS9oG/1ceYI7HExaCQNXs8wKYbRSFfYmNDsfvqbrhyTASHmDFlEboUTcw7GrX4y0MocWRsOfGxUzBqIdk3r/rlGO0t3w4HQiazCQMkIcBtFqyOHrMuT6gEbB7+BYglEiq4Pjhb6ovoHS6S05m2cM5GzpVsgIsR+ZrZ+v3IkHZTZhDAMZPR85sFfUqyJt93EswdCmHFTPGC/0jV71KWQFvDxSepkeNClxeDq85Ad1ExkhjhYF5NlYZ7KI8UO5aNHbJMF9OlFdHdXFUSn2TgM1YygFe0VwOG01foycYBlAHEdm7CijoJbxO5VK5S/Y5sGhCKvPUBl3ol1SaH4S5rkADs5wxn4ifyOeSaPw9dGp0CEgoRYAJPQZkNZwPFdSUXwTTQmC2ObBIQkrOtzzo5em4FU+PDyW3D5KTTv9zlA8uFofAmlKezhXvt3igFyr8cfp+fM6Oe62koME/8EajEB3q7+jCKsu1Ybxk4s/yRl2e30Mmp1odhs+rdRJbgSBHYAmdflRIosDUhbnjrPD6LmsMGEPLeVtZg0I6cyVyl3m9U5lH2HGVgeQo2U9iUNjwVR0Mn8jlMZ54S+LahOo20K5LUsBglIxqHV0fqnCzxXt8+iipTx2uq0gx//5HUlYP0bd0VQXONAbeLim3pwxtephW9l2yIkQjjhBn7sNz4YtBQi6FpQTG34uM9Sphw6yXcMKEEporUEbdKa7BUHlg28CAHUJqybtvu4+K+H+2KYeySGhLQiWAgRdy6M2Bv/96CyNrzUpyPY/2YmshFzT8F6N6YrZKMAzeHrHkkm3neVHEXCqRDziiLpUb8jf48o6EHQNtaneI3+3FPuhheBXzA5D6WT1G1JkfWPPyk8GZrr5Hw3waCmQWioAjWxoK9p4reVJazjup1GE1XMpbeiLl/hDRdJK1oGga0DXgh53X0xDq2PQloWNZgdCCa0ySRF3MGva+0GcIdmbBzIXa1PU6oVwvnwHfFUrxlVBlEIviXWDqzX+8OhkCNYVnR/a64dfywx1hPo0H8sE8lUO1KSs79dQS64olYveNjsQqZDrJSO4t0iC279n+cJ+VE9Hm/jRTWLGA5G9wxES1y0Ghdu8XpLg9kT6LLxRx6yA63XiEV04uAPK49zxAoPh2oZaxofyeHe4ULkD2sq24rKpIX87nCy2HCDoWvR5WwcZmaCLlvL/xGHLNm60+hVa10uKuOWk0LoTjQdSgjsod5nXFew2/2mo+4IuJLkrvrUSyETce2hjD1qlopYJmg9pVj4HZFhXdb7wZekWOFuyFT8e/drpwi8gFbcWJyiJW8Y6EHQN6SEOA2qK/8jidusGuXL/jRJyeegOCujmAejOcFKhla/M1Xr5ppXefCepzlZI6tY7k1W74ijXbycCMpkuVe2ErFBHyNk9NFlkUzm7hYMMZVubKl1s2Xe+cwqs/BchpfUTyXS1BKV7LCS1ICS1g27Bh3o8wxue7pWvG6yhl88IyPU6MZTGuKHiEOtAUhR2fcmkLcGxRFukbHhbKK3yIqiaFiFZbVoaXN/zRfIZkyTnKoSV34O9uk6IrvkBKy4tH1KUDnBF+3yXNBVd1vqCRmGPxxi0RootGGheNFSuXfwex5IMpZudg6rWEFTNXYLS9m9IPD2oLLo14vzxtE/3AOjwFVCe4DE9ILViKIvzADpsFTDBLtBRF8wakEu1SlBTgk7W94OMNmep7n0hpWsXUbr+rUwbRFY/eCmI0YopaQNGZg+16pXY0VOBUcOswOfsK22H5Dg5HEobSuixoboUnwFGJijiWIbBW05B1WIhqe1fG93Ut7vi/pRBjFbsAQMwcgcoiXWHi5U7J4Rx8eAOKIlxB1ruCLEFxqFz8+qBkS0ZWm1iZhhPzmmebWGzdWKbBMduu+4dIanLF1K6AXHWlRmBeK6llJ0HVdQX2LnFse5wLHMtLkidyN8IxzLW4hXo6DU6ajPElF4YdW4nMGHLR2bK5tTJIpwi+Yb16qC7b9FfEZT2mGvwoV5l8cvHiempE2IP6CEpIQzU4auBUThhocfouZgDjfiYsefFZxSCRuEAP7YPJffMNZhrZEv6k6W8DezCUBb9WiTTNbgF1/eGlt+bRRivBpLeswUq6XVmA1JFr+nXyAStrLcOIaVLdZHX9oWW3bUAED/81OWVngNGZgdnygPmHMbpMomJpvh9Khnvv1mF4Syt9kYTO3nRTdYBRI+juJxqvEzoct3E+zpeVSjERrtsGSnPg1UYjmTVuwSpe7Iz9SLrjo9+iRKjJXgve1uldNZhnK0MwgstaClfy2HbhJS2ckXk8d7xBlVLUrw6BfKiloJGvgSOZH0BvR3prwyipyMdl2fRLuC8SNc+ldQ2mFUYTkE6ayGpNSkttKuKHgOkJGE1fHcyDvKiXHBG+IJODqZr018Rj85B56IaDNqFi/aQlMYv62YdCEHpqtdEG/vYdnb0NIAgh6K9H2fKA3GVMXu3EC8fengmeVIQ6JjmQl98DjoXvcfwPhLWgaCxQyjVDsoKb8DrBgSGu5xLaXinU3GsJx700SRy8KsXN+qg59Br6Bh07LlqaqRcPCzWgQjJasnS4MM9e3U/vLZAYJS+bohAxSS8MKG1LAC+ORaBhR7vj3LFr319LHLC81kHIqJ0hi2qs6w7OnqWgAwvREAtAbUCVHlENRX0GK1oGdsiLAoIzldR2j7p/uusOzp6Au2pfgDhJd+CYv9lkGW3Q9S+KCiJXzVn85Di+FWmyKjg7yVqY4WYNkT4JxuXShP0vzdfWp3UQmTV1NPp5lBk5X0IPnAFyPTTIKENEKhphsiic5Bcew3SikohReEA3ZdSZx1GF17i44A/A31WRGFbT4C6qV+sajQFaoxX/FUGhVhj+Pc5A0JQWk+RrMYioqu9NT/A7rKbQGaeBTFtAGVuK6QduwGVHY/h+F0T6O8B1vE7A5CxdyUYC3bOOhBj/k7I2LMKf8ZPn2eCykuP8bUos0/3IDgSpskoTtbbcQBmt2gllGq3ugUf6qUOfANsSprTAYEpLSBhjBBffQWqOp6MOGQ8aU+cwDtjZ7r3fDzdOxGH31N7ouWln13V8Rjiqi4PiBnDYKDaeF6iMnw+a0CcSa302cIEVuQi18Hm2GO4RSAQdV/3vtQZo1WQHwtZES5TukXGZELFr+wIVygsSJjy59d93QPx1ZcHxXSjSaI2loiTG/6R8zqbv8roKFEbO0PzzvSibmmqjhjpSm73QXbSdiiI8cKVvZnCQOcWxHhCTtIO/J7TvQ507SG5rb0StfGhP91oz3ntDOAtf7oxXKwymJj6r03HRo0P09Wxm12Qo/LFLeVec+y0YdxtjoHsCBfIpf3we834Ou6agKm/bhLThkF/lSF01seWuTKlsuFtMWNIl6ib+ovOfD9jB+hHO+NWDxQWJgMjE8DhzM3Q+eXkqRN0TH0mKifzoagoGY7fnnpX+TIVnnkAAZqm/gC1MW+j5vSvOJZs7kVFvwxQG8qCUpv70MA4Gw7Qj1LtmfOQnbAZr6E6EOMFJ4p84Up9CNzQ78FC98Y6UegLB/Z54WOyE7ZA7ZfnZ/06UBcWlNLcJ2GMJeg7cyzSAN6SqA1pQSlNfTMZL/TTUF3bJSgqS4Mc1S5IDXcDtdweCz3OpX2huCwd6tovz+k1VF1+AkGpTX0S2phrkd2XP90YKGGMAyien0tH6C1IBy/+iML4AX+60Z9jSSZR6Rf5M4bB/Se/Y91JejMrv+U+yjQMSGiDZfy7C0ma4W8kjPFeku7qINvO0bMk9N0ljPGOf3TdX7PNgyNhjIlk+sneo7d+SkX8panh1gDIM1t6xIyB3ZvV+NPGP6G4vLjtIetO0bOsoi+/B9RtB6ia2VtWhMK+iIKzvWw7Q28hiiho6w2gjQWswPDTGP8L5XgqLjxi3RF6C1H5+UcoZzfol6Q3/952f5UhLiS3tYdtJ+gtTKF5Z8w/lqCUQYDa2Jl38h7rDtBbmHKb70EAY3yIUkhmA4IynqhWcORGP+sO0FuYkE+Qb8Qqg8CcQGIiCtvfdFf3xoeyu6ANVR33mg1IoKapI11/k/Vfo95ClXb8JsoIXzALjO0JundQJFHa3sn6F9dbqEraOlG0NYB8Za7JIBy5+Wb80E8A5PCNPlyyDkhu/OOcAxHTBje0bIbtX6HewhWgbhoQM40ucw+EadwkzzrVxfYX1lu4ZJmnuvxog8+cA0G5/0BNU39EUXvXG7VP6APkI7HK4GcGIMbFYtoQ9UaGSX2AfDXnQN7YG+P8HOz/Ae4fniDQ6PK6AAAAAElFTkSuQmCC;base64,iVBORw0KGgoAAAANSUhEUgAAAGQAAABkCAYAAABw4pVUAAAACXBIWXMAAAsTAAALEwEAmpwYAAALsklEQVR4nO1df3AcVR3fCiIj1FF0HBCkAyg6yjiKig4//G1FOoMoU8bRccA22b2m1dZM09zuJb229kfuvcvtbpLSNpCUQrFpKM2ZJu9d7G+KRZ1CAa0jCDhWSgfa3nvXpuR313l3t3d7+fn2fuTucvuZuT8y897e7fvkve/v7xMEBw4clCCkGu2z+f4NDuKQ5MBdojvwnvm3gzyiTFEfkWRtSJRVwyEirzBmiXJgvSirl1bqTxsOIXnEw17vlZKstbkUfWhz+wGjteOIQ0i+ULEcXCsp2ktLvI2D2/YcNYKH/+EQki+4ZO02l6y/U7m2eXBH6FiUDIeQPEF0B+ZKit4r128b2rX/5QQZmRASwL3XAUTntrcbl+XmV89QiO6AWO5WR9Zt2nUpeOjvKWRkQghAZBnE1ACIvAMwDUB0/gu5eYMZgvnz2y8T5UCjKGsjDdtDY4jIlBCI6F5GiPkBiFyCiOzxofC3c/NGRYwKb9PVkqyhipqGwZaO5yYkIxNCfMEzswEmj0BED0BMRlLIwfQI7Ip8IzdvV2SQlPrrRY92YumaTQPb0V8nJSNbQt3fHbkVYtoMEelL2TGYtMGu8ByhVCEp9XdIHu1sVV3rYPve41OSkW0tC3T1XgsQ1SAmA5Ydcx5i6jIMY5ZQSiiv1h4UFbV/dUPb8O6Dr3KRkSu1tz5EPwMQfXbUMba/Dp29QSgFiIq6TJQDl0DLHy/xEjEddgjsjvwYYPp2khRyBmD6A2GmYr7Xe4Ukq08yN8iW9gO2iJguw7A+RK8BmOxI7BZEhgAmlcJMw0Jv/TUuRT+yZGXjgOkGKURCTPgRFVNlC2nweo0PCDMBoke/xaXob/1uXfNAW0/SDVLIhDD4UfhuiMl7yd1Ctxa9pc8CSi5Fo7Xq04PPHuAX3tkgBKDwl7wHjcsz+f3+0PnPQ0T/a9kpTxXtTjEDSus37xoZzw2SS0K87cYVEJGzENFTEJNVTDak+x7+0LlPQ0T+ZdHCVKG4YMwSFW21KKsjDU9N7AYJ5pAQgMhPR6mxEYDI75nFnj4pyZ0CEFkuFEtAyaU07Kyo0ad0gwRzSAhbeGbgQUxfGUXM2xDRn6dr4QNE3o2rxMMFrxJHA0qyfnzp6k39PG6Q4DQIdWZx+3H4fojp8VHEPJPOMeYPRe40tS9mpxSsqyUaUFL001W+loH2vS/lhIxgBloWE8QAUwkgci557NCTvm76NbvPAogushxdfy44zSsWUNIurmlsG+o4mB3hHcwyIVb/FUQEW3bLRYDpfLvPYdqW+Qw/Di8VCimgJMnqMHjcvhskmAdCzGMMIOpOuuHJiA+RBXaeoXaQj0JM/5cgFdFbhHwHlCRFbcrEDRLMEyEmAA7/hC2mJWC10Nb8EL035raPyqQOIZ8BJZfSgKNukM4Xpo2MYA4sdR8O3xN3uUc1J383ecDOfIhpu0VRSE/rWuCBc0S36lvkaXiducDZC9r9/GbVo0Zbz4vTSkYwR64TFsY1g1UA0d46fO6LvHNhD7nJMveY7ThKuTuwXJTVoeUbHutTt3UZzc8cMh7ffdjWZ3VTm1ENtk47GcEc+rIgpg+Zxw/E5J9NB9+9mnsuor6kgKc/4v5SSdaAy6MNbt65P6NFgS2dhhvOLEIYICYbLMfPFoET6/dGPs52VtwBeYBrUrlbvV9S1OGtweczXpRCJQSi8MOw59xtQppgjkiIyfOmkPeFyHd550JEmkwyfZjcPsVwY5bk0d+sa+4YycaiFCIh3oPGlaZwZovqR+T7aSdAmDIBkxO83uJAF705oUYj0jTpYFEJ3C7KgawJ4UIkpB5Fvsm0pFT3CNnBMhbtkgIwrU08o5uU25i3P767zunI+NDEhLgD4m9XP9qXrUUpREIY6vaGbwSIrEvulOiZforjCEmBt/PUh83YOnOvbDlmfJBnHsSRX1niJj+bcKAoqzVVdS0znhAT9XvOXg8Q2WnxWfWyBAYhTX+VH9Ff8hJpGposujjhwHJZXbXCVzqEmGDHDUBkMK41vV8XoncItnYJORM/+l7gnQcx6Y7vkNMT2iSlSgiDD0XuM0lhx5cdmWJVg3048jmeOQDTxcmdRb4y7qBSJoQhmtObdJfvFDjBMuQtMmGVjTRV05ZZPO6gUieEASCyKbFQIXqvwAkz4ggw+Ru/Jzkec5lIjjiECIKOzn4kkZWI6Iv23SJkxN95/hN2Sh8Apq86hEyCeIzdVIe/LnDAH6I/TB5bkXl2SGSya9xoorNDYoA9p68CmJL4AjcLHNjQRT9miXnU2iWeZauMGeAQkgRzGsYX902BEwDRt+LHVhvPeGbzJC3983eNGeAQkgRLAZr0v3cSlwhE5Kht7Wy8lCOHkCRYzYddmQAwfcJ0o/CM9/3pzKcm9YU5hIxOB4o7IUPk1wIHYlVW0WOO2EiAMO2eZWMGOISkIpnRTqoEDsQdllGtiWc8c0YmLXyqjBngEJKKhI+KMz/XIeRw9i11E8wuMI8s5lLhI8Q5soxcEeII9QLxZWWi9saaDcTyePnGO2pvTg1DiOh/HMPwcG5dJ7xpPtGq3ES+Fq3h+h7HdWI/LMvrXGQtnRIqLIrcxzkHOM5FDvd7rN4wql39RUjD/c4S4njmAEz3xUl8ZdwBjh0ipASo7KR7phWgSnqUWxxCxgFzkTgh3AIJ4UIcmZdukgPAtC6xq7ojt3J9X4guSZDfRb487qBSPbJAHtKAACZoyjQgJ1GOXrCT2MAAEa2wJEX8gmtOz+mruBLloqmkqza9P9N3COwKzxmdSsoSGybMj5psYeMaGWsWkP1U0lJNtkbkD6zq1g4Z0YVFdGVSIyNlNuYd4Eq2ZuUIrhrtjVIpRwCsqWU3+Z6QBliGorUcgbcGnVXhmuUIAJHGKSc4BTv2C3YgJt8ROAEw2ThlCuloiIrqc0ra+NRcOyVtsOfCJ5kWF5+3T7AD0a1WSrI66BR9jnXLp1v0afqu4okQcwW7EKu1G8vlQN0ij/6aJKt96ZRFr6hrLSgZkgnY0QQw6Y8v6AU7bchZKZtl7jEhHxCVwDxJ0QZZO42OQ8VNCOwKf8vaOIB1d7A1H9FdFtmRVl1jVlDu0e+UPFq4Jkut+4J5IIQ1OTPP/qiGxJkWNF6GIsR0t5BvlK3Qb3B5Gk5Urm3ut97xUeiEGIYxC2IqJ9TU6M7gS3iw5l5Zevzmv/lMSiN9j44W1zYOPNF5tOAJCeDe6yAmPZb/7IsgRB6cMe2Zkpd2qWskWRveuGNfQRLiZRmLsYhh2KIRnfT30K/afZa1bI3ZLQXbpbS8Wl3A+qjUNe/OWhfSYDZa/HWTBwCiL1vdKqyLDys1sPuOLJu9KFr8pQh7RSe5EvatNppgsh3BqphS/Fuxc/+htN0q8TTUaCunfGpVdlDmabjJ5dFfr1zX3JdtYd+aQZtYiMgaOwbf2KYE9GTyeUXWD54J+0UeDS1e2dSfTWHfmkYjZYCoN5NGylEyMHnNkrFSLxQjWBvAcjkAsinsW/PQajxlZyDyZNFf9iLJ2sJsCfvpbMYfteLZLktqZa0F1xI2k6b8UlTYbx/IRNhP53UVieSI2M7Qi35njMYid+BmSdH+Xbk2fWGfa0JYMlz0cjDLhS4FaPhlDwuqfLMlWUcVtekJ+9y2+IvMG33lUdGothlfIqmoPknWh+wK+1wQEusiR4Oj1OR9rM2TUEoQqwNl7H4RO8I++9fmET1FVrBrLTCVZpy84IVYrd0tKRqpCWzv5xH2WblYMqbKPmYGlswYOstS4S3imdEQPfotvMI+o+z3WI7vIUu9h2noPWcnq7EksKDKN9ulqHgqYZ+ty4lZLARg2slsjdy8UYkI+9YMr++Ou1L87NjKzVvMQJTJavlEwt654L7AhH3rNLpOHIx7IaX2RuXaLQlh7xBSEJa9Flpc29THhL1DSAHA6/VeLsrqRpeiDq7fvMs5sgoFojsgirI67MiQAkKZHLhHlNUz+f4dDiwoc/u5CjAdOHAgFBH+DyAya9U9j3bAAAAAAElFTkSuQmCC;base64,iVBORw0KGgoAAAANSUhEUgAAAGQAAABkCAYAAABw4pVUAAAACXBIWXMAAAsTAAALEwEAmpwYAAAN00lEQVR4nO1deUwb2R2e3odaqerdbSu12kpVq16qVGlVVVWlav/YXttWjdpVq7ZSpd0e2rZZPIcJYJJwzmVsTIy5PPNmbIwBczkEwp1jAyEhB5DdJGTJRUKyIdkQlsMGv+o3mO0EJSGbEMZ4/Ek/Yb03Nu+9b9773vu9iyBSSCGFTY5CsuLjPIV+yFqk3/Ck9OK7MZZEW3ha/pH9P95PGJ2PTQ1M4PdwlPQ7gUEdHImiHCnjIqsv6syqiRRn10aKs2qizqxgpNgWnHdmBhaW/9bMObMCs86s4KwjIzDnzAzMiFZ1niVlzFHyosAogxwl/yW4Jfg+o/O3qcClVf2Ao5QhnkLRmrK+KCpqw12Nw/hE/1XsyWvAY6PTuLa8D/c0jz5UWHfTiBbuyKjGAqMs2hn1DS7N+xOj87kpwFqkP3EWecFf0vn28OA1rVDX00aPvolrK/owR0qxogx1q9H5TWiwFvRXjpQW6yv2LbbXDr3zho8MXseHOs/h9QxrQocwT6GYM6sm0+h8JyRAtDlSXmivOz4HTQ4UIhRgT8soPn3iFn4SYS1qP2hLjCfVXxid/4QCiCxLSsP+ko434e2FAhsbmcYnB65qhfgkw6DG2NP9t20274eNLofEaqpoNKu17+9CrNcrzJFZHXNlB7cbXQ4JA9YiHawt67283gL+sNZacwQ7M6unjC6HhECR1f85ziIvHe45v/SkBHytsOpdXRjGOYWk8nXC7ODS0C85Up47O3L7iQr4WmEl2UFcujP0CmF2cKT8d0dG9eRGCPjJB4RVcWFcltdYSpgdrEXOdGXXTGyUgI/dJ8zn6sCegsZmwuzgSDnbnVN/3ihBH4ub39WJy/IawoTZsUxI6MJGCXjtfcIURzv25IZSNSROyKWNFPDT9whTnXtxWV6ogTA7gJDS3NBlo0XdV9yB3Tn19YTZAYTs2lE3mQii7s4JBQmzAwjx5DVcMVrUfa4O7NpRGyDMjjghV40WdVTUhl3ba32E2aERkt8wabSoK8527MoOKoTZEa8h140WdbV4L3bZAhJhdsQHhjeNFnW1eC94fKsIswMIKStoumG0qKvFe3FRZnU5YXbECZkyXtT3YPs2v4cwO4CQ8sKmm0aLOnK0YzHdv4swOzRCCppvGS3qinMvFq1KMWF2xHtZd4wWdcXZjnlacRBmh1ZD2OZpo0VdcbbD4jmBMDuAkAq2+Y7Roi7bWzFrkXjC7NAIKWyeMVzUi/YspQiJE1LJht82WtRRUdsiR8ocYXZo45D8xnmjRR0VtUVShLxTQ1rmjRZ1yb5nIUXICiFceMFoUffy4XnWIrGE2QGEVHHhiNGi7uV3zyYlIbAzacVYi/d7az3PkpLDk9e4+GrHGDbSyvIb53iLtKYvC/KkzyOR6IA1sism0MrBNZ+3SL3673CGmnRgrfRCnvTfIRIdkMj+rnM47DsMvqH+h3g+u4oPx4wW9SohPM2RUuFa6YU8Qd4gj5uPEEa5Axl4kPEUuuwVdhtKxtjoNK7kwos8hSbWSi/kadMSYk9XY/D3QSYJrdgrtBpOiCS0aguu10rvSp42JSFF23wx+PwgC5b1JgQhsrgHB9xdD0wrGORp0xIiMsqaQiowSkIQUlHY/FDCD3navITERd3OKOc66o/jvt2vYZ6Wb+ufd6T7ChODkKY3OVLK16eNp1G4QTqAj+6/qBU+HM+xKUW9NCe0UJxdExUZ9RCEiYxyviN0Ave2nMIChW7qn3dmBLhEIKS8oOk6a5Hz9GkTaNQUqtqPhw5cWq7NW8s/CXmCvEEeNwsh2SsGu2shTGDUS50NJ7URsUCrN/TPO7OCwuMQcvbIJB4pr8MjFfXa58dosiZXE8JTcqi+cj8eOnhZIyTXWvmZ5cMN/p9HYjNCZNTLnY3DmoeVp5Xr+jiXLVj0qIScPTKJD2/5Az7y/K81G9zywiOTUp7fdJW1yLn6tHEUCtZV7MPHXp3QCGEt3s8TyQCRUa92N4/grqYRLNBoUh+3a3ut81EJGSmv04iYFUXN4DPUlEck5MpqQlgL8oPj8fihK/FduhVPEckAgVauQ+3oahjGAqNO6ONKdtS5EoEQT17DxGpCeAqh2rJebRILCOFfqfoykQwA3ehpOYU7G05gkVEv6uPcO+vdj9NkDW55YV2aLE9ewyWOlHL0aeNIyRv09OATA5MaIfm09ytEMkBg0M3e8CkMPS3ocenjPLkNnscW9Yr6xxb10tzQxdWEsKRUEXB3x4YPLxPCWqSniWQAT6FbfeFTeG/9cSxY1XF9nCcvVJEI3V5PbujCPWpImX9XV2zk8LX4IBZ9jUgGiLRyDTQEeloCo17Rx5XlN1QlAiHunNB51iLv1KeNI5FPL+rCVumLRDJAYJQL2sAwfAq6vbf0ceX5jRVVCeDtLc2pH+dIacc9R+q6gSGRDBCtygC4GwZ6xjFLSjFha/AjK3FlOfXbS3NChhPiyKi+ylrQv+5KN6O81hYcwgfbz2KORBGbzfZeIhnAk5IUcHctwXlYyzOJVd9eiXNnB/9YlO7X1kiNGUgITyszHCX/Vn8qKk+jt/fvOY3BDydY1QtEsoC1eKnS3NAsZNyZUT3PpaG/rcRBu8xRMj6676JhZMD/Xt2t5dKUb0LYycPXcLC8NyYwKHmO3eDSpB9zpByD1R7+ks5FnkZ37XZ1ZQcnWtQBwwhp8B68wlmko/o0sRbpH66sGm29mHtn/SxHSjSRLLDZPB+FNvhA2xkMLhSBUaZttuAHV+KdmUHGsc0fe+3Y1IaTAf9TYJQ7rEV+WZ9mgUF9UDPizWwMDukkkgnQYwm4uxdfP3YT8zRaZC3y8ytxQI5jm38q5D244YTUVvTdYC3yOf0LIv5X+QJHyksDXW9o3gWeRlNJI+j6A5IFqxqBZivg7lkUGWW/Pp6j1Od4Uo7BnMlGkdHTMhqBc4J5Cj17d1rk3JIdtQtwyl0F2zzPU8hNJBvgGFaeRm/BeGTowGUM57ELlPcZ/TPOzECGQClLG0FKT8voEk/JMMmUpk8DzAoKtDIDjlCYKYRuOmuRvkMkI2ACqCQ7OH92+C2sujrhcPwh6F7qn7EziIZjwGFA9iQ0BX6zvnLfHNSM1WRoaSSVYld27cKZ4bewr2RvVKDRXTU5qZDHyJ/iaXQHfFrQnRQ0LZFeWv0cT6FnBUaZsKf7o81qPz7Sd/Hxxikj09pvNCv9S3BbAkei8dXNFKCQVL7Pk/ISdD4Gl7vCMbjqgkhmQPfRnq4uQO+lve445km0UEDJ31j9nOdFzwc4Uv6nyKjD2uieUSMl2cGZcrZlupJtuR23mSouPLtiXmF3RIqbV2hd9PLh6K4ddQsio0bhN0QGnYTROPz26v/nsgU/JjDKef+u7sWzw7dhjn2ep+TkP2EOCoOnlRHF0R6BNxc52qHpGofaQ9wHBZTyJZ6UfgVjA/A3sRa54GEMngVS4bvwGw866pyn0e7i7GAEeoGtgcEYTykzD/pOUkGg0XdhXNJeOxR7/fhNmByKCAw6CjfpbHRa4i6SMnu6PwJz5+Bv4yl5ES5+IcwEyDC017AVADbQlGyvjQiMeoJ/xffpjUqDzdbzfo5SVGjSDvee12YG7em+BZ6SzXnEBk/JBQKlRPu73tAuWinL1WrKBIjrRhxxLljVV4u2+SNH9l3SOhnFtpp5gVG69INE04En5WKBRlHo2Zw+cQtXu7thoBbhKGS9l/iuB+BuK55BU+UFTREgAtZdFWfVgIgfADcPYWZAG85aJBu4KloDgzEQergzyr7NFxFp9SzczLZ6rPI4d1vxtNLNk2ipSenHMNaAF0Fk1AhPoUb9PI3pwaWhP3AUeruKC8/DW3vq6A1cV7EPnHrQCzvDpXn//aCe2P3geNnxoUJS/r1IK7BTK6Y426Ig3lAbg+V9cPvbEvTGks5XtR5gLdLTPI0Oga60qAOaux4WGMDb7MyoXoBrLUSrOgRz33A/IZeGvsWloc9C0wa1CKZY4coJLs37c228wygdHIVAF6LBst4lcIWAfwoW7BVl+OcFSrm4KfYJJkAT9meeVq7Zrb6FRnQoBre1wWCtv3scN6sDmsNPTPdF7rvFgUaLpXkNc/WV+2PQJL1+8pbmMgEPgcsGWoHmYF1uqol6l00Na5Fe4hnlHDQ1QEJb8BiGHhGQAy4R6JlB8wNdViALVqlr5I0sx8PWZ1jpojjbQSNgYmwKmqeN7FonJQTK+wxrkYsEqzIe390bLc4KLrhzQrFKtgVX8bsx7FOELWmevIYY3ARaZPVp2wV4WrkBYw24OOZJ9dpMjUKy4qlCUv6ZSKOLxbZArJJtXtIbhPG0chk0JnWF0QZCjO9kWu3Zfdjt2CmkCEluiKkaklgQU4QkFsQUIYkFMUVIYkFMEZJYEFOEJBbEFCGJBTFFSGJBTBGy/oBlm3DeukArk7BuilvjJB6elKMCLc9oRqElu1XFjm3+uwzCNM8uJd/Rm0grUwLju3Ivg8NxYE86zK8QZoW2yIBRxp22GlgO9EgHVx5oO62dMPQoBpNUsLIdDC64r+RaokA4T0ovEGYET8thd05IW5i20VsQxu6z3LQ1MKjVQtN5icGFDk3Uoa7lc3MTxkbgmKbmCE9JJYSZwJPen3LU8hY3w0kYvdtgax3PqMcJMwEmmHgKLRld+GP3MFgALlqVM4SZwKVJz8HO29ryfQlnVVzYjISgr7IW2ZOoxpFyltFllEIKKRD3wP8A0EaFWfP/yCwAAAAASUVORK5CYII=;base64,iVBORw0KGgoAAAANSUhEUgAAAGQAAABkCAYAAABw4pVUAAAACXBIWXMAAAsTAAALEwEAmpwYAAATHUlEQVR4nO1dCVRb15l+adq002nStGemnbbT6TKnnU7PLKfT6Uxnembc9kxt7SwOJrbjOPUWJCEvIIHeAxuvsZ3EW2IjQMJoAS+KDRjeE1gSBsQTq4njfY8XvGCceElsNgn9c/6HwHiRECDxgPCd8x8O6Oq9+3/fu/f+/3+vBEFMYhKTGEcwvin+gSVB/D9GufB1c4JQaZSLU3tNpMa/5SUKf2eYJ3uR735OaAHyFKLFFqXYZkmU3DUpRGBSiHx7lsV0FmnjH5akvdrBpM/uOEDGt+Pf8DWTQtRjThQ3o0j6+VO/zbcP4x4ZGRlfMirFMQWJkjok+AP19M6GrYnwcX4G3C/bCj3VOQCs4ZnmqcqGa9a10LBV5bMmx3aaleKHJrlwTd6SqJf59mtcwpggluUnSq/kqySe+q2Jvk9LNwUkHwYxX40eLuavgH2aVzrMieIbJqXkv/j2b9wgTyH6m3yVrMKSKPYeyUyCrkO6YQsBT5i3Ohvqtii9JoXIa5SLXuPb1zEPs1L4J4tKcq981evdD+zvhU0IeMLO5FE+k1LkNclFsXz7PGZhUkjmmJUi7/GcFIAafcTEAL+d0Kf4zEpR+843xT/j2/cxB7NC+oY5Uey9tGtlxIWAPqvRg33VXFzsHXz7P6ZgTBAKcWRc3rVq9MRge+2ebSuGzmBWijvyEyU3zEoxjTmNQSn7PvFFhEUl+FuLSvL5qdzUURcD/NZauAGuf7AOzhrToXaTwrtnWXSnWSnqNitEOsx9iC8KgCCey1dJa51r53lGY82AIUxlLXvXQFHqjA6zUnTXpBRPI74IMCpEMwsWS7s7nDv4F4F92nw1BjiRo/GYFWIPTmPERIY1Lu6FfJXkFp9TFYRol3evxhDZgxUDYqICi3+7lsi6MFHjm3AIwU4aUjxmhegzTFqJiYh8leTUUZ2ad6IhVKvRQ2nazM9MCtFOYqIhL1HyCww1Py/fxj/RbOh2q3gjmBRiz0751B8SEwkmhXB5adrMDr4JhmFYYeqMeya5KI2YSMhfLHUf2ZHEO7kwDPsoM8lrVoqPEBMFlRlTvmxWiDuvfbCOV2K7DumgcdviIU+bbcVvg1Eh8loVU75BTASYlMKf4/rR7tjOmxi+Gj1UrJsPlkQJFCyWwalcMuRipqcqCwXxTZj9FKxb4T4HX5m5r0YP7k1y2L0sCu6e2Q6nmOVQsEQKh9bPD3nfZfeSqIemBOEsYiLAKBcv2qee3s6HGJ6qLKhcv4ATo+3oVoA7Fs7unt4ORcvjoSRtJoRSNdiveeW+US5cQkwEmOTCpGJt/KgLcofeBMXaGbCfjIM7p97vF6PPOlsMQK99DYq08dDuDD6dHiDj7xkVQoqYCDAqROl0+uxRC3m7KnsXb1wvDr23EDqvGZ4So8+6b+ZB6ZrZYMt4DbyuwIcnDpDxd/G4ETERYFIIk0uomREfIZ+Vb4Pm7Uthz7JoblRcZdcHFGKgPbycAx+kTofazYqA196neQUFWURMBJjlovmFqXFhF8TryoFbRRvgWLYa7KvfALNSBCUrZ8HZgyvB22YMSYw+a23exL3/VuHGZ96rQCVtN8vFccREQF6CcDoWFYdC9j1mC+BuIu61N723BOo2K4B9NwGqNizkyC8m48GiknA7f4XUDKg3LYFbRzYPSYQnjdUruUUeo7LHhK/O5sJePBUZKY7EVOkPpBSzXpRG/4iINPISBL9F4gar8n5S8i4Xnu5NiuGItmpigVk7Byq3LYSq7W9CrV4F9cbF8OEeDZwpWwHXGt6Gjqv6EYkw0PBa+Yul3IPwZHCA/SmQi78VCX5iMg5+R0bRnTKKARnJvENEGhaV4CV8wtCxZwmBEU7FunlgThRDxdaFcMm1Dh5eyQkb0TAEcxtUYF8997H+nTel43TWGkmOpCRdgoJISeZuXEZl5CsC+Srp7XOm9KfEuH3gbdiTFA1lG+bC/fOZvIgAA+x64ztgSRRDd2VWfx/d78o7jHJheST5kZH0H7gR0jtKFhKRRr5K6qzdrHxMjIeO7ZwYLp0cfJ/yKwT4zXPLyC3urYXr+/tZqJ1xD6vVkeZIRjGn/aPEHel7ESaFSFusjX9sYcdFunT1bPC2mXgXAgbYHk0UnDWm9R/extOOeUrx7yPNkYyktX2jREKW/CKiN8PCnEkh9mEpoy95w8StpW4D7wLAE7aPiuaiO+wnnqQ3KUXd1mVxfxFxQTTF35dSjNc/SlZG9GbZi379FbNS0nllz2rO0RbrWm6u7rk9tkYH3LFAYXoMfKRL5vpZu0XRbVKKXMQoQUbRVb2jhD4a0RuVG6b+wUpJPOw7cs5RPHliTY3mnXwYRJAPNLFQtE7YflA/8hwkLs76fLSW/nWwNlKqdGnftCXW0j8lIoHK7VO+4dCL7ldkvQp7l0VziRcedtifFjOmBblf1nvktHb3bJ/dILxbki35+nA5kKbRM6UkfUNG0h1/Sj74l4HaRaWW/bhPEClJq4hIoFwvjHfkCj1XG1PwPC1XnkCH96eN7RFyLEcD+6kYuHmcAmeuqMtuEAy7dCIhmej+sFZbKgvWVkbR5/3rSCERCdhzBKmuguiO1hNpULZxJlcGGQ+ClKTHgztvPmC/a3bFtqMfw+VAklHydRnJPPTnGdnB2kopOqc/SYyzPk+EG44cgarKEtWOjh0tUcKuJTI4vH3pmBakeuMibrq6yKo5Qaossnb0YyQ8SCnmAEc0RbcEaxdFMrMeTVu2fyHCDbteIHIYhB4c+jePUrAnKQoPNY9pQQpUMijKeIUTA/uN/Uc/RsKDlLTJ+4gOVkQUp5f+rF8Qin6DCDeKDbIX7XqB94J7ce/TlvUG9/SNZUFMChHU5S/k+ov9PqgX9NgsgpdGwoMs1farPqKj0pj4wC3hOSlF3+ud3uj3iUjAaRAUNxbO9HAOupLApBSPbUGUYrjckMIJ0lD4qseRK6RHysGUjMovyyj6gZ/oLcHaSkmm2p+PVBGRQHn21P+2GwQ9lxuTOCeLV8bCvrQo3smHZxg+KMVrYrh+Yn8P5gh8mEeFg4cBRLPB29H63imLuU5ECg6DcH/Nrpium8coOFr+Z2gofI138uEZ1lQ8l+sf9rOmIKbLaRCUDeZbXIb1BUz6pBS9aNGiw18J1E5GMjv8Ocat0OpatC9Y3jIiVGZL/sqZK7rRWDTLe/TgPGjYP5t38uEZ1lg4B7B/2E+7QXi7LHva9wbzDZO4/gw7vTTgJ3wlWlrdn49oigN+J4uUpGc8KsfbfklECs5cwS8duaLWSqPM6yqYzjv58Ayr2fUKVJqkKManDoPgV6H4FaW1ifoXbK0tYDQmoZjpoYS0EtI25VEAUBrZSjM+cQ79tGrnTjHv5MMzrGKnBOw5AtaR/X9/F6pPA0NVGckEPFAnoUr+LZSMHUfFgBLKDCLSOJgt+k9cLD23cnkXAAYY9seuF0C5fup/DMWfKRmVX+snmqLXBWonTTvwk/49Dy09J2A78sB3H12PSSAijcq8KV+zG6Z1tp0M7ezUaFnbifVg1ws92L+h+iQlmS7/E70p+IGGwYkWZNheepQcli4lRgN2g6DyTOXSbr5FgAF2pmopHDLJGobjj5RiPvELogvUBiOmASNEHaidQGX76qMpkNYSowF7zjTKVRD7Odwx8y4EcGYGdlec1547vE9LSUn6qr/ckROoDRYLBxCdHuw7wwa0W0GMBioMoh9hSeWT02+PATEscPvURsDkdSiL+UDISOa2v0q7NmAbTfGLjxZrJjmkNWm0RgjCoZ+6t7Ho9Qd8iwF3LHC4+A1fRZ6seLi+SCmm3b+oLw62bz6gcBjwrHBcquObo76GIDCawWjrzrlNvIpx59wmLrqyG4T/Phw/HiMwSJgqSy/7h/78gmRmjZkoayAO6qeaq/NjOry383gRo+e2iVs7KoyS3cP1ISqd+ed+AtPo/w3UTqK1/aZfEMomDdQuOp3+x0dTVumrxGiiXD/12w6DsO30ocUePgQ5W7UMnDvFd+jM4Z/dlZJ0bB+B0Wm2vw/UDpPBAWvI70LJ1KVpzB+J0YbDME1s10/zXWlK942mGC3NK3Cq8uH9R9J/GUmv7tt2xf2MQO2kJJPSR7SAtP11oHa4XzIqtaxgsOdMS0Bybh5dMypitB5f1yuGXiAfad+lFM34F3R7sHYyijH4ib4TtF0ak9QnSFxGOX/fPYy5CS7y51xJET3v29KcgQt4j9MgpsKy8UTS9/37F2uCtcV9EH8oWxfaQQf6U4Jv2PXTFtgNQviwdB50twb+fCAMwzxteXCsbBE4DCIskSwIR3+j0sp/KCXpC/5QNipwS3gOCfYTbQrlBOOoHLwOBRiCHjJJ4ZBRCh/XpsJIIzDfJya42rQcqszRUGWWcSFuuPuMkRaGv4FeF6eW/muoh+BwA8tfOc4jxgKQsAtsIrdzh2V6JPJcdRLcv7htSEJ0XM+Gyw0UsLvjwLlTAkfL53HXjYQgg2HguoBhbSinF4OV8kcVSNjF2t5TKteOpMARei4cMvY+2biB1HYy+Kn5+xe3QlPRHHAYcKTJ4Agzl7sOXg+vy4cgUpKh/aPjRrBIbGCEJaVsvyXGmiB9dvNEGpx3q6ChcCbO/3DKmQjtV3WPj4hrWVxegWtEY+Esrj2+b+B1+BAE99mlFPOZn2hLsLZYvvevR91Y0yLGqiCtA+ycSwk1BbEcsa5d06F+32zuJzeCCmK51wO9lw9BZBQtHlAKeT14W+Yjf8RWT/CJ1OzD30ze4f5Nsq5mxmCCtPrtUuMyOFnxJhw/uID7ib8P9p4+QfA+eD/VtvoRHYALBTKK2evPUx7g5lOgdjFU2ffwpIlfkFXEaGJpZs1PkzNrFmkyWWuKzn1bnckCGqmv6wxVkNZhWJ8g2py6rr574v2xH9if5PeqfxJOP6Myil7GjyH4R4cxWFuZlvlzKKWVsGHJlsqX1ZmsPEXnbkIiqNz6zq2lZ7359a1QcuZzqGjxgqsVOMLOs4kREeS8P8rC+1Rc9UDJ6c/BXHcTNpec8ZL6+i71jhof9i95B5uA/R2pz/ip2v5dQtI2JZSPR2MmjwknESks1td9V53JbtDo2IdkTl1X5sGLPiQCSXmWVZRkQKU5Bq40JYdVjCtNydx1K0pXPPO+1a0AxSc/g+1lF3ypObXd2N/kHez65Ez3d4brO1e5JZk8KUWfDBZdibX0t/r35Sk6Mt+Eqtpm+6o6s2a5Wsd2Ljc2dVrqW6HqRk9AIfrtRhdUlK4Ex04pnHAu5E6gt45ACHw/XseRK4EKehV3/cH6UHm9B8y1NyA9r7ET+6/ewaahP8PlItiJRkQUxSx4tN9um0qEG8m6mt9rstyXUvV1XZa6Vqi+OYgIT5kPDtWXgtMYC5WWWDjuWAAtH2qGJERLswaO2xdw78fr4PXwukPpR/UNHxjZ65CaU+dBf5K3uwPud4wEfXUuzNLDOl3FWa3PqzPZDHUm27ONOeepaPEMUYgnrOUBHHIVgLNgDjf3VxfEQVPxa3DcPh9OV8q5EPcCq+J+4u/4d3wd22F7fB++H68zkn44rnTD5pLTXvQreQe7IiMDvhQuzgaWVcL6fScYQmp0bEVqdm3XnuZPRibEM0ZM9ZmzUFlbBBVlG6HCmgDO/NngNMb0Em+M4X6vsMq517Edth/qiBjMChpvgSar1qPWsU6NgQ3L/0zsq+5iyButZX4etoVbo3MfTd/Z2GG70B5mMcaWMeceApXb0KXJYk9p3mdH9I9gcKOq/3MjFFMWPjGy3BdXF3zY4bzSzTthrlEw+6UuWGVp7kS/RxKFyUj6rf7cQ0sLwjNNZbmPrjQ3d454vRhn5rzaDSvMh7s0We6Tw8lZsFyP277+taM5WFgc2gWt1udxzVhhOtyBneObIBcfI+VyFyzvDY2dQ13ocXNLRjLFuHYEO4USMpJ31KxM0bm7J/qa4RrE0P+UbHc35lzD4VFMlv7TiEcH5hnJmWyP9cinvBPiGgO2+/BtrIv1RCpPCYoM64kXNDr3xW22c918E+EaQ7al5IxHnem+NJKMfljAoUnq6zu+aIu4axDDYiVWkZMy2dH7FmyuUKhjOzFB4psA1xg0rBwjPyMJhYcErNouNzZ1YI2Hb+ddY9CQl+XGpnZ1JvtWxMXAWBtL0riA8e24awxbQcMt0OjYB7gLGlFBcHOJ1Nd3Vk2ODggmSNVNH2j1dZ1qXc2bERUEd9KynZd6+H4CXePAshwf92h0tY0R3QPH7U0srPHtrGscWOnZB4B8perqfhwRQXD4UYaGDr4ddY0jS8ttaE/KZMNyhvgpaHSs9X3beQ/fTrrGkb3PnMddxr0RESQly902mXvAkATJx2gry90WdjEwfMNjO/TZyfXDNQRBSs884M59hf0wHp7wU2eyvslwF4Yc/qoza3yaLHZYn+4NCM0ONp401HfyPSe7xqHhSUw8thr2CGulqfkh3865xqGtMDU/VG9nw/s/QZIza5LxXNJb1mPtk3ZsSBwgb8hfmAVx/xGLipPGDosD5C+sgkxiEpMgnsb/A+dZ2ImXNeNCAAAAAElFTkSuQmCC;base64,iVBORw0KGgoAAAANSUhEUgAAAGQAAABkCAYAAABw4pVUAAAACXBIWXMAAAsTAAALEwEAmpwYAAAEiUlEQVR4nO2d72sURxzGz7ct1PY/8F37qhbizSqV3OyRkODs7sVKqkZimmRQTAsGudzY+rNgf1el+kYClsa+yEvxndQX6sWokB4i9UUVEdT3vnHiweXslG/gwmnX2HDuzZed7wMPxyYTdub53LE8l7vZTIZEIpHclr5W/OjpjOIvu3pZrUnjOPTSM2p2vlwy//HViaNpHIdeekbdrP39szFPfl/ysz+PVmMWnIpx6IU9QE1AcAWoCQiuADUBwRWgJiC4AtQEBFeAOs1ANm4U72W52JHloWr45OHhR7/+stdMnT2w5Mkfdy8c3LvjUhrHZcF+MLA2V3jXKgyWCwYZD+cZD+sbevqrH/d++gzMg63P89F2ky80OdxmcmJrrTEmTeM29PRXGY/qjIcanpx2YPCwkOXhc3/LiBGjJSOkctujyvBPRgxksq4zCNvNY5Xnh49zfUP2g5C43FkY+of50UPIqG00OnLBB4yHpndo3HoAApl7do4byGadH73fNiBZP+qEk9pevEBqyAYyahsQLyc4AVHLAoGMCIhMKZDY/wE0+frU54sntb1wgdSQDWT0uhxXBGTh3klTf3wm1nN/fENA5PJAIKNX5QfZrhgI/GHzWwbNrpSPrwhItPtLU/pp0hw7M734CMe2n8UiwTlDNpDRq/KDbK0BGdh3zJy/Mmdm7zxYMhzDz22HLhKaM2og0xdnX1hYw9MXr1kPXiQ050SAvImL+s6J72IX1vDgxLfWwxcJzPmNX9TjPvrS7O/3D47/HyC7Dp1YdnHwe9sARAJzhmwgo9flmGl3Mdw8dtBcvnU3dmFXbt0zfXsOWAcgEpgz6mJ45PS52MUdOjVlPXyR0JxRAwEXf5g0F8oVU759f/ERjm2HLhKcMzV1aR/gy0CoqUtcQFA3ddfMMBdDF80IiEo/EHr7XbUEBGVTd9UMa1N31Qx7MXTNjICodAOhi7pqGQg1dYkLCDV1iQsINXVpHwQBkQ4BoaauWgJCTV3iAkJNXeICQk1d2gdBQKQjQOiirloGQk1d4gJCTV3iAkJNXdoHQUCkQ0CoqauWgFBTl7iAUFOXuIBQU5f2QRAQ6QgQuqirloFQU5e4gFBTl7iAUFOX9kEQEOkQEGrqqiUg1NQlLiCom7qLm894WD/97urmMx5WIK5uPuNhbOq0+UwJ145yLm8+M4fxe+oubz5Twfo9dVc3n6lgBeLq5jMVaurKOsRmINTUJS4gqJu6a2aYi6GLZgREOQ6ERx6cdNNI0friBTJDJotAeOS1DQjc/IrxoN61fcx6AAKZIRPGwwXW2/tOpp3y8tG59V2ba5uG6VUiGq+O4aKBTFgu+i3TbsGrxOPRHS9fqPlbRk33wJjpHvjCUY8ZyGB9vq/G/Oivjq7+1Rkb+rC7+23GgyPMDx9leQi3jTNuOqgzXngIWXQEwVsZbMJ+Z06d5jt9xgl7gJqA4ApQExBcAWoCgitATUBwBagJCK4AtYtAqpWvDSym4fnrXy3ELTgN49BLz5ROwWJecFnd0FeLn6VxHIlEIpFIJBIpg1z/AnYFX+Q/vgFQAAAAAElFTkSuQmCC;base64,iVBORw0KGgoAAAANSUhEUgAAAGQAAABkCAYAAABw4pVUAAAACXBIWXMAAAsTAAALEwEAmpwYAAAHiElEQVR4nO2dW3ATVRjH64yOPjiDOjjqi/qiD16e9Emf9ElnHK8z+qIySPZswk0oDtmzGwhqubd7dkuBtlCgUORWJAO9iaUQaMvNQikplFJKD9NCS+S2ONDSput8cWAc6CVNNjm76Tkz/0nS5iHf/5dzztfs+acZGXzwwUcSB0IFT7i86ocCVn9EEvGORwlQO875ALzIYDlEmXwvKlqPW8mNLFq1rTevpLx35ebKcaW8kvJeqB08EBW9G2HtWyYwEFZ1j29FpKquyWzvvmnSsDGudaH7pllR22SCJyLWclILw6u6ps1f2d/Ydpm5EdRmOnm+y5w2L28ASTmTUwJjkt//lFvWbvx55Azz4qlNVVUfMkVZuz5jhv5k0oEIEvl05oKV/e09t5gXTm2qiz23zBnzcwdckvZJ0oEgrC7SNu65x7poanOBR+BV0oGIil5Wuvco84KpzVVafdQUsVaWdCBuWb904EQr84KpzbW/4ZzpUXJpUmHAJiVIJHKKd1fmaEAa27pM8CqpGzvy5ryNMDEvXLnB/B1Iba62KzdM8MqNtbeSB0Qi32QuKuhjXSx1iMArF1a/ThoQAZMFZMNuDiQcGxB13e4+JKn+pAERFb10W+XhQdbvPOoQba2sH0SKtiNpQNw+rW3f8RbmhVKHqPrYWdPt088nBYbf739clMm9htYu5oVSh6ihtdMEz8A7y4G4pOzXoWto7brGvFDqEJ3vuh7ttESf9prlQBAmn8NnWKyLpA7TzF9W9Yte9bMkAFHl5Wt28g4rPDYgSwtL+wSJYOuBSOrmkrJDvMMKjw1IyZ6Dg0jWSiwH4vFpzXsPNzNfAqjD9MfhkOlW9JDFOMzHREzuHj97iXmB1GE6dvaSiWTSCx5ahkP0klehW2jp5B0WHSOQls6/o53WD8ryVywDIsjk4+nz8gY6rvKrhHSMQMAz8A5JOR9ZBgThnDlw1IX19KcO1cJV23qRRDItBKIWbQwEI6wLow7VhsCBCJLJWsuAeBS9obKuiXlh1KGqqD0FVw//sgyIKJPbR5o7mBdGHaojzRfhWNA/lsBAsvoSdAlnaJh5YdShAu/Aw6k/LXsxYSBwkNqt6IO8wzLiBtLRc8uEs79wIDthIIKkTV+Q+xvvsMKJzZKftc29CKvTEgaCMFm5dmfNAOtpTx2utaXVA4JE8hIG4vbl1u0JNjIviDpcZQdPmh5Fr00YiKho1+ubLjIviDpcdU3t8CHjtYRgeKRVz0J30NxxlXlB1OEKdVyNdlpT/DnPxT87sPq+KGuD/KS7YcmJePBSUPT34gbiwkTwqcW8wwpbM0t82cW9EHaKGwiSiLp6axW/jh62Bkj+lqp+Aavxx908Pn1foKaB+fpL00S7ahpgY6+OGwgkbGsb25gXQtNEhxrbAEh3XDCm+vOeRlgdPN3ezbwQmiZqau82wVPwdsxAkKy+G40e8MizaRUQiI+Dpy5JfyeuLwXwLi3i57DC1s4S8FSQ1O/GPkMksnjF5nIe7gxbC2RFSXl8YVCk6OWle48xX3dpminuMCgPdxr2CYPycKdhrzAoD3ca9gqDRsOdCwv4hh62SRiUhzsNe4VBebjTsFcYlIc7jaSHQT1KbmtMMCCgiDDp5+FOwx5hUB7uNOwVBuXhTsNeYVAIKPJwp5GSMCjCqjT6DJG1Eh7uNFISBhVksmlUIDzcaaQsDOpRck+PgoOHO2kKw6AQpB0xDArBRB7uNFIaBkVe7eVhgfBwp2GvMCgEExet3s4PxoVTFwYVsDp7eCAyWcvDnUZKw6AiJmuGBcLDnUbKw6Ciog8fBhWxxsOd4dSGQZFMbg8JAwKJPNxpMAmDTsHaC48A4eFOw15hUAgkLljBw500xVAgUDtkGBQu285dWnQ3EAyZXKGUeTB32bq74D0HErTHG48DCbKHwIEE2RvPgQTZm82BBNkbzIEE2ZvKHMiWquPm8qLdUcH9dH9eYARVHm4xT7R0ms3t3dFbeJxyIOt2Hfrv4gom0fvp/rzAMAIIkcig+f8Bj+HnHEgwtUDA9JFGrFD4DAkmDgSWpYdnxsNjIBKJafniQIKJAzlxrtOMZTS0dI4OZGkR30MCCQIZbbkay7LFgQQtmCEtfIaYjtxD6ltSs2RpxRUPCkkXacUVMQOJZdkKXYixy+JAiCVA7kOBmfDwzIgVhmVA1gdqTWl5cVSL839/8Nfuw4LfOeV56wO1YwZyf/mCbgrgwG0sy5TlQLhClnnAgQQdAgT+R8ichYV3WL/AwDhTZlbhnSGPkwpe7SuPL/ferv2nmb/IwDgReO1R9Hsub84XjwCZ5CfPIEwGCnccYP5CA+NEBdtr4JuB+pF3yYSMoYZb1gpnZxX0/V7TxPzFBtJc4PGsrPw+JGv5GcONyVh/3q3ol33qpgEOJZRUGAop6RcVrQtlZk/MGGm45qpvurF+eVZWQV/Bjv3RdY71uymQJgIvYZma9Wt+H8AQsf7GiDAedFyZ2RMFRS+A9Q02nTlZhXekZeu5lsXvAXgIXkb3DFnLH3VmDAnGu2QCwuRLaMsErC7hUhPxYDZ4OewGzgcffGSMPv4FZO1V1t+DwzAAAAAASUVORK5CYII=;base64,iVBORw0KGgoAAAANSUhEUgAAAGQAAABkCAYAAABw4pVUAAAACXBIWXMAAAsTAAALEwEAmpwYAAAHY0lEQVR4nO2b208UVxzHt29NL2na9KV9MMY+NmnSv6DpQ5sm7s6sWrTaUoyKy7UJKt3dOYuLXLq4o7CCCtgAGrCiWECZOYMKAlItikgB06qt9UKFahRJWxO5LKf5jVmkBCk7OziHnfNNzgOEIXt+n/1dzu/8xmJhYmJiYmJiYop2bXQGFsW78tsSXflLjP4sppfDWbDYgQJ3ElBhMAEFBuBn0xvFSM9woEC/y79/tKb5J4J2VI46UGCQeYrBMGpP95L6tsuktqWXQaEFRmgxKBTBYFAohMGgUAiDQaEQBoNCIQwGhUIYDMossrmkT2BZnjMMBmUGWV34Y16QRzlBHuMFbLPoCCMcYOycYnkKI2lv90RKcQ+ZDUq4MAoOyCQtp5RUn+hiUMKFISrDBFZySe+MULTA2OguUFdazj4GRQuMZ0EJF0ZpTcskjND6Oq+M1LWynBI2jOlQVgi168JN4GD4zMLqSRhJnkJSXtfOEr1WGFOh8IJMErOrxsOtpkJQtMKYWhTAlwHuVaLuPsUaBozpULLLmsI2Zl1rH6mUOlhJrBcMPaDotaKqJLZGAGO+oZgu0Vt1gDFfUCqOnSXpvjLzlMRWHWFMh5JT3hwxjKSMIk3nlJqmbgKDEw53oM1iZhiiTp5SJXdMwgitTTn75tRmUasucf/YgvIQ6zzC0Kf6+u85BdbOigYGQ6QECoOh0OIpfWTf0RbmGSJF4YvlDIW+nMISuEI/FFZNKfRAWdAwEuextBUNgMJgKPRAYTAUejyFwVDoCV8MhkJPTmEwFHoSPYOh0AOFwVDogpKQXbWwXgSl+Zwh6gQlxl0Tb1kIimYY4hQoc5klNlxmgCEuFChmgiHSDsWMMERaoZgZhkgbFAZjWAWSUtwzAUBsLtnKYCjGegeDoRgfohgMxXjjUwmDc0sfQgJPLu4xbQIXIYkX90yAHeb65u/8wHDi93kBP0rY3R002iCi2WFYvcff5JFyb0PgwrgfG28U0cwwLBbygl1Q5FXZp0e2y0OGG0U0c84AcYL8JYfweFbtoOFGEc3tGRYLl17/Kofw/dSSPtMm8RRaPANkE+SMFZknTRuqkmnxDJDVe/wlHuHhtPJfdNkcFAMZ1bdJ8t4esi6/g8SJ58iGwAWSVvYzyam7a7jxRZo9A2QTpLX2jMZRPbzDc7ifrPG1ER5hEpvXThJ2X1LBxO/qJDFZTervHYVdxNdw33AQ1HlGSDxSWh1FXRGfOTZXXCW8B5P4wk6SW39vxr8RvrtBPstpIauyT5Os2j+ZZ0zXUpf0OifIQQgxkcBwVv2ufvsByv/9bZ40ROJ2nFOhGOUpVHoGiHM1cDzCY375oebN5TU8ICu2niQpJX1zf0YaIquyW4ijqOu5w6AuZ0yVzS37Y7e3j0SywdTSy2RlVjMJNwcJB2+oXvWs8GYqzwjJ7sGNiXu6I9rk6txWklraq+nZlVnNavVles94CkS5uan8imaD+PFDwgmYeDTmoPhdneoyvWeExCP8l7PyumaD5B67B3fMRGu7Jam4Rz2nmDZnTBeH5FEoRbVuFvIGAPHW/KHpeUdRF1lfcJ7BmAQiyOPo0M2IDPJp5imyZf81Tc/G5p0hySU95kzgM4lH+B84Q0Sy8Y2FF0mceDbs53Lq7qpVVsbh2+YOU1PFe/Dglgpt3+7Q8tbceZLYD90K67kNgU6yxndG7X2Z3jNCsgv4bHKxtpJ16koouqSGrrk2DzdVXCE8UkjGkX7mGVPFCdLetTs7xiIF4sdDJM7/gwoFVd+atQiALwCPsOa8E1U5Y7psroa45VtPjOgRNgAKdHchfEFOgb6W90i/WhJDOIPWCnR8AZr7YGR5K2pyxnTxTmXxk3PEgG7GyTw6oCZ6MDz8b1jgEWu+aSNffXuZ5EkPmGfMCgXhq6mlc28MhrMgRMHhEU708/H/U6LFM6aKc0uumG1Njxfa2E9yNOSMmcSl17/NC/KY3nGdwYhAdoQrPve1RdSGZzB0lB3hd8BLnJW/GW5w0YxhaibZXLJveebJEZ/OVRCDoVEfbT7xMufBN9bvPD9utPFFM3vG9Ml3KCM3lekzo8Vg6DSnBZMorirtF1cMhs7ikSzA4LVRUPx4mCTs6Q6aMkzNCsUtB/UaMQ3ndL8uvyPII/wI3uQy2g4Uhi9pDBK93j0ocYa17fsBGKAb4ZEyaHPj94zeP5WyeZR37Ui5BiVx+oFf580rUkp6J3iEx3mEpRhv4xtG75v6ktjqwrlweIQTPbRZ9Oh9bZeH1LksuAKAV+lsSFpt9F4XlJa6pCU2JJcBmJjMpsdwxwHt9nDgwL2J59AtEl94MWj3KKM8UoZsguyO8ba8YvT+FqyWCcpbNkFy2jPwFbjvWOZpHFm748cxmLOCO3qY9YJpFhgxgnYMnGsSdneTL3ztjyEscW45aEdKE7xG94G35UWj9xNVsjqPL7K6pFjOLe+xo8YzdoTv8Aj/DWcZTpBHYRjPjvB1eKHUJsg+TpCWxjhPvWb052ZiYmJiYmJisuihfwG2rVj1851lRQAAAABJRU5ErkJggg==;" vertex="1" parent="j9JfCKXNSG1rssrYbunD-28">
          <mxGeometry x="240" y="200" width="80" height="80" as="geometry" />
        </mxCell>
        <mxCell id="j9JfCKXNSG1rssrYbunD-15" value="" style="edgeStyle=elbowEdgeStyle;elbow=horizontal;endArrow=classic;html=1;curved=0;rounded=0;endSize=8;startSize=8;dashed=1;" edge="1" parent="j9JfCKXNSG1rssrYbunD-28">
          <mxGeometry width="50" height="50" relative="1" as="geometry">
            <mxPoint x="390" y="110" as="sourcePoint" />
            <mxPoint x="330" y="80" as="targetPoint" />
            <Array as="points">
              <mxPoint x="390" y="110" />
            </Array>
          </mxGeometry>
        </mxCell>
        <mxCell id="j9JfCKXNSG1rssrYbunD-16" value="" style="edgeStyle=elbowEdgeStyle;elbow=horizontal;endArrow=classic;html=1;curved=0;rounded=0;endSize=8;startSize=8;dashed=1;" edge="1" parent="j9JfCKXNSG1rssrYbunD-28">
          <mxGeometry width="50" height="50" relative="1" as="geometry">
            <mxPoint x="410" y="110" as="sourcePoint" />
            <mxPoint x="670" y="80" as="targetPoint" />
            <Array as="points">
              <mxPoint x="410" y="110" />
            </Array>
          </mxGeometry>
        </mxCell>
        <mxCell id="j9JfCKXNSG1rssrYbunD-17" value="" style="edgeStyle=segmentEdgeStyle;endArrow=classic;html=1;curved=0;rounded=0;endSize=8;startSize=8;dashed=1;" edge="1" parent="j9JfCKXNSG1rssrYbunD-28">
          <mxGeometry width="50" height="50" relative="1" as="geometry">
            <mxPoint x="330" y="240" as="sourcePoint" />
            <mxPoint x="390" y="210" as="targetPoint" />
            <Array as="points">
              <mxPoint x="330" y="240" />
              <mxPoint x="390" y="240" />
            </Array>
          </mxGeometry>
        </mxCell>
        <mxCell id="j9JfCKXNSG1rssrYbunD-18" value="" style="endArrow=classic;html=1;rounded=0;exitX=1;exitY=0.5;exitDx=0;exitDy=0;" edge="1" parent="j9JfCKXNSG1rssrYbunD-28" source="j9JfCKXNSG1rssrYbunD-7">
          <mxGeometry width="50" height="50" relative="1" as="geometry">
            <mxPoint x="400" y="90" as="sourcePoint" />
            <mxPoint x="230" y="240" as="targetPoint" />
          </mxGeometry>
        </mxCell>
        <mxCell id="j9JfCKXNSG1rssrYbunD-19" value="" style="endArrow=classic;html=1;rounded=0;" edge="1" parent="j9JfCKXNSG1rssrYbunD-28">
          <mxGeometry width="50" height="50" relative="1" as="geometry">
            <mxPoint x="570" y="240" as="sourcePoint" />
            <mxPoint x="670" y="240" as="targetPoint" />
          </mxGeometry>
        </mxCell>
        <mxCell id="j9JfCKXNSG1rssrYbunD-20" value="" style="edgeStyle=elbowEdgeStyle;elbow=horizontal;endArrow=classic;html=1;curved=0;rounded=0;endSize=8;startSize=8;dashed=1;" edge="1" parent="j9JfCKXNSG1rssrYbunD-28">
          <mxGeometry width="50" height="50" relative="1" as="geometry">
            <mxPoint x="410" y="210" as="sourcePoint" />
            <mxPoint x="470" y="240" as="targetPoint" />
            <Array as="points">
              <mxPoint x="410" y="230" />
            </Array>
          </mxGeometry>
        </mxCell>
        <mxCell id="j9JfCKXNSG1rssrYbunD-22" value="microphone" style="text;html=1;align=center;verticalAlign=middle;whiteSpace=wrap;rounded=0;fontSize=16;" vertex="1" parent="j9JfCKXNSG1rssrYbunD-28">
          <mxGeometry x="70" y="280" width="100" height="30" as="geometry" />
        </mxCell>
        <mxCell id="j9JfCKXNSG1rssrYbunD-23" value="speaker" style="text;html=1;align=center;verticalAlign=middle;whiteSpace=wrap;rounded=0;fontSize=16;" vertex="1" parent="j9JfCKXNSG1rssrYbunD-28">
          <mxGeometry x="660" y="280" width="100" height="30" as="geometry" />
        </mxCell>
        <mxCell id="j9JfCKXNSG1rssrYbunD-24" value="internal and external memory" style="text;html=1;align=center;verticalAlign=middle;whiteSpace=wrap;rounded=0;fontSize=16;" vertex="1" parent="j9JfCKXNSG1rssrYbunD-28">
          <mxGeometry x="330" y="50" width="240" height="30" as="geometry" />
        </mxCell>
        <mxCell id="j9JfCKXNSG1rssrYbunD-25" value="ADC" style="text;html=1;align=center;verticalAlign=middle;whiteSpace=wrap;rounded=0;fontSize=16;" vertex="1" parent="j9JfCKXNSG1rssrYbunD-28">
          <mxGeometry x="230" y="280" width="100" height="30" as="geometry" />
        </mxCell>
        <mxCell id="j9JfCKXNSG1rssrYbunD-26" value="DAC" style="text;html=1;align=center;verticalAlign=middle;whiteSpace=wrap;rounded=0;fontSize=16;" vertex="1" parent="j9JfCKXNSG1rssrYbunD-28">
          <mxGeometry x="470" y="280" width="100" height="30" as="geometry" />
        </mxCell>
        <mxCell id="j9JfCKXNSG1rssrYbunD-27" value="CPU&lt;div&gt;• effects&lt;/div&gt;&lt;div&gt;• filters&lt;/div&gt;&lt;div&gt;• conversions&lt;/div&gt;" style="text;html=1;align=left;verticalAlign=middle;whiteSpace=wrap;rounded=0;fontSize=16;" vertex="1" parent="j9JfCKXNSG1rssrYbunD-28">
          <mxGeometry x="450" y="110" width="120" height="90" as="geometry" />
        </mxCell>
      </root>
    </mxGraphModel>
  </diagram>
</mxfile>
